STARTFONT 2.1
COMMENT
COMMENT Converted from OpenType font "Q:\font stuff\winfont\EmbassyBT-Regular.otf" by "otf2bdf 3.0".
COMMENT
FONT -FreeType-Embassy-Medium-R-Normal--84-840-72-72-P-497-ISO10646-1
SIZE 84 72 72
FONTBOUNDINGBOX 138 103 -22 -24
STARTPROPERTIES 19
FOUNDRY "FreeType"
FAMILY_NAME "Embassy"
WEIGHT_NAME "Medium"
SLANT "R"
SETWIDTH_NAME "Normal"
ADD_STYLE_NAME ""
PIXEL_SIZE 84
POINT_SIZE 840
RESOLUTION_X 72
RESOLUTION_Y 72
SPACING "P"
AVERAGE_WIDTH 497
CHARSET_REGISTRY "ISO10646"
CHARSET_ENCODING "1"
FONT_ASCENT 80
FONT_DESCENT 24
COPYRIGHT "Copyright 1990-1999 as an unpublished work by Bitstream Inc.  All rights reserved.  Confidential."
_OTF_FONTFILE "Q:\font stuff\winfont\EmbassyBT-Regular.otf"
_OTF_PSNAME "EmbassyBT-Regular"
ENDPROPERTIES
CHARS 229
STARTCHAR 0020
ENCODING 32
SWIDTH 238 0
DWIDTH 20 0
BBX 0 0 0 0
BITMAP
ENDCHAR
STARTCHAR 0021
ENCODING 33
SWIDTH 380 0
DWIDTH 32 0
BBX 42 52 5 0
BITMAP
000000000780
000000000FC0
000000000FC0
000000001F80
000000003F80
000000007F00
000000007E00
00000000FC00
00000001F800
00000003F000
00000003E000
00000007E000
0000000FC000
0000001F8000
0000001F0000
0000003E0000
0000007C0000
000000F80000
000000F80000
000001F00000
000003E00000
000003C00000
000007800000
00000F000000
00001E000000
00001E000000
00003C000000
000078000000
0000F0000000
0000E0000000
0001C0000000
000380000000
000780000000
000700000000
000E00000000
001C00000000
003800000000
003000000000
006000000000
00C000000000
00C000000000
000000000000
000000000000
000000000000
000000000000
000000000000
3C0000000000
7E0000000000
FE0000000000
FE0000000000
FC0000000000
780000000000
ENDCHAR
STARTCHAR 0022
ENCODING 34
SWIDTH 321 0
DWIDTH 27 0
BBX 19 24 4 35
BITMAP
7803C0
FC07E0
FC07E0
FC07E0
FC07E0
FC07E0
FC07E0
FC07E0
7807C0
7803C0
7803C0
7803C0
7803C0
7803C0
7803C0
7803C0
300380
300180
300180
300180
300180
300180
300180
300180
ENDCHAR
STARTCHAR 0023
ENCODING 35
SWIDTH 773 0
DWIDTH 65 0
BBX 53 59 5 0
BITMAP
0000001E001E00
0000001E001E00
0000001C003C00
0000003C003C00
0000003C003C00
00000038007800
00000078007800
00000078007800
0000007000F000
000000F000F000
000000F000F000
000000E001E000
000001E001E000
000001E001E000
000001C003C000
000003C003C000
000003C003C000
00000780078000
00000780078000
00000780078000
00000F000F0000
07FFFFFFFFFFF8
07FFFFFFFFFFF0
0FFFFFFFFFFFF0
00001E001E0000
00001C001C0000
00003C003C0000
00003C003C0000
00003800780000
00007800780000
00007800780000
0000F000F00000
0000F000F00000
0000F000F00000
0001E001E00000
0001E001E00000
7FFFFFFFFFFF00
7FFFFFFFFFFF00
FFFFFFFFFFFF00
00038007800000
00078007800000
00078007800000
000F000F000000
000F000F000000
000F000F000000
001E001E000000
001E001E000000
001C001C000000
003C003C000000
003C003C000000
00380038000000
00780078000000
00780078000000
00700070000000
00F000F0000000
00F000F0000000
00E001E0000000
01E001E0000000
01E001E0000000
ENDCHAR
STARTCHAR 0024
ENCODING 36
SWIDTH 476 0
DWIDTH 40 0
BBX 49 67 4 -10
BITMAP
00000000000380
00000000000700
00000000000600
00000000000C00
00000000001800
00000000003000
000000000FE000
000000007FFC00
00000001E0CE00
00000003018700
00000004018300
00000008030380
00000010060180
000000300E0180
000000200C0180
00000060180000
00000040380000
00000040300000
000000C0600000
000000C0E00000
000000C0C00000
000000C1C00000
000000C3800000
000000E3000000
000000E7000000
000000FE000000
000000FC000000
000000FC000000
000000F8000000
000000F8000000
000000F8000000
000000F8000000
000001F8000000
000001F8000000
000003F8000000
000006F8000000
000004F8000000
00000CF8000000
000018F8000000
000010F8000000
000030F8000000
000060F8000000
C00040F0000000
C000C0F0000000
C00180F0000000
C00301E0000000
C00301E0000000
C00601C0000000
C00C03C0000000
600C0780000000
70180700000000
30300E00000000
1C303C00000000
0E60F800000000
03FFE000000000
01FF0000000000
01800000000000
03000000000000
06000000000000
0E000000000000
0C000000000000
18000000000000
30000000000000
70000000000000
60000000000000
C0000000000000
80000000000000
ENDCHAR
STARTCHAR 0025
ENCODING 37
SWIDTH 607 0
DWIDTH 51 0
BBX 54 52 2 -8
BITMAP
00000000000004
0000000000000C
00000000000018
000003C0000070
00000FE00000E0
00003E700003C0
0000783C000F80
0000F03F807B00
0001F03FFFC600
0003E030000C00
0003C030001800
00078030003000
0007807000E000
000F007001C000
000F0060038000
000E00E0070000
001E00E00E0000
001E01C01C0000
001C01C0380000
001C0380700000
001C0780E00000
001C0701C00000
001C0E03800000
000E3C07000000
000FF80E00F800
0007E01803FC00
0000003007CE00
000000601F0600
000000C03E0600
000001803C0600
000007007C0600
00000E00F80600
00001C00F00600
00003801E00C00
00007001E00C00
0000E003C00C00
0001C003C01800
00038003803800
00070003803000
000E0003806000
001C000380E000
0038000381C000
00700001C78000
00E00001FE0000
01C00000780000
03800000000000
07000000000000
0E000000000000
3C000000000000
78000000000000
F0000000000000
E0000000000000
ENDCHAR
STARTCHAR 0026
ENCODING 38
SWIDTH 630 0
DWIDTH 53 0
BBX 47 59 6 0
BITMAP
000000007F80
00000003FFE0
0000000F83F8
0000001E00FC
0000003C00FC
00000078007E
000000F0007E
000000F0007E
000001E0007E
000001E0007E
000003C000FE
000003C000FC
0000038001FC
0000078003F8
0000078007F0
000007000FC0
000007001F80
000007007E00
00000701F800
00000707E000
0000077F0000
000007F80000
00007F800000
0003FF000000
000FE3000000
003F83000000
00FE03800000
01F803800000
03F001800000
07E001800000
0FC001C00000
1F8000C00000
3F0000C00000
3E0000E00000
7E0000600000
7C0000600F00
7C0000701F80
FC0000301FC0
FC0000383FE0
F80000183FE0
F800001C1FE0
F800000C0FE0
F800000E0060
F80000060060
F80000070060
780000030060
7C00000180C0
7C000001C0C0
3C000000C180
3E0000006380
1E0000007700
1F0000003E00
0F8000001C00
07C000007C00
03F00001EE00
01FC0007C600
007FF1FF0700
001FFFF80300
0001FFC00100
ENDCHAR
STARTCHAR 0027
ENCODING 39
SWIDTH 166 0
DWIDTH 14 0
BBX 6 24 4 35
BITMAP
78
FC
FC
FC
FC
FC
FC
FC
F8
78
78
78
78
78
78
78
70
30
30
30
30
30
30
30
ENDCHAR
STARTCHAR 0028
ENCODING 40
SWIDTH 440 0
DWIDTH 37 0
BBX 55 67 11 -8
BITMAP
0000000000000E
0000000000003C
000000000001F8
000000000007C0
00000000001F00
00000000007C00
0000000001F000
0000000007E000
000000001F8000
000000007E0000
00000000FC0000
00000003F00000
00000007E00000
0000001FC00000
0000003F000000
000000FE000000
000001FC000000
000003F8000000
000007F0000000
00000FE0000000
00001FC0000000
00003F80000000
00007F00000000
0000FE00000000
0001FC00000000
0001F800000000
0003F800000000
0007F000000000
000FE000000000
000FC000000000
001FC000000000
001F8000000000
003F0000000000
007F0000000000
007E0000000000
00FC0000000000
00FC0000000000
01F80000000000
01F80000000000
01F00000000000
03E00000000000
03E00000000000
07C00000000000
07C00000000000
07800000000000
0F800000000000
0F000000000000
0F000000000000
1E000000000000
1E000000000000
1E000000000000
3C000000000000
3C000000000000
38000000000000
38000000000000
78000000000000
70000000000000
70000000000000
70000000000000
60000000000000
60000000000000
E0000000000000
E0000000000000
C0000000000000
C0000000000000
C0000000000000
80000000000000
ENDCHAR
STARTCHAR 0029
ENCODING 41
SWIDTH 440 0
DWIDTH 37 0
BBX 55 67 -10 -8
BITMAP
00000000000002
00000000000006
00000000000006
00000000000006
0000000000000E
0000000000000E
0000000000000E
0000000000000C
0000000000001C
0000000000001C
0000000000001C
0000000000003C
00000000000038
00000000000038
00000000000078
00000000000078
000000000000F0
000000000000F0
000000000000F0
000000000001E0
000000000001E0
000000000003E0
000000000003C0
000000000007C0
000000000007C0
00000000000F80
00000000001F80
00000000001F00
00000000003F00
00000000003F00
00000000007E00
0000000000FE00
0000000000FC00
0000000001FC00
0000000003F800
0000000003F000
0000000007F000
000000000FE000
000000000FE000
000000001FC000
000000003F8000
000000007F0000
000000007F0000
00000000FE0000
00000001FC0000
00000003F80000
00000007F00000
0000000FE00000
0000001FC00000
0000003F800000
0000007F000000
000000FC000000
000003F8000000
000007F0000000
00000FC0000000
00003F80000000
00007E00000000
0000F800000000
0003F000000000
000FC000000000
003F0000000000
00FC0000000000
03F00000000000
0FC00000000000
3E000000000000
F8000000000000
C0000000000000
ENDCHAR
STARTCHAR 002A
ENCODING 42
SWIDTH 488 0
DWIDTH 41 0
BBX 24 24 28 34
BITMAP
000700
000780
000F80
600F00
F80F00
FC0E00
7E0E00
1F0C06
0F8C3F
03CCFF
00EBFE
003FC0
01FC00
3FD600
FF1380
FC31E0
F030F8
00707E
00703F
00F01F
00F00E
01F000
01F000
00E000
ENDCHAR
STARTCHAR 002B
ENCODING 43
SWIDTH 833 0
DWIDTH 70 0
BBX 47 49 11 0
BITMAP
000003800000
000003800000
000003800000
000003800000
000003800000
000003800000
000003800000
000003800000
000003800000
000003800000
000003800000
000003800000
000003800000
000003800000
000003800000
000003800000
000003800000
000003800000
000003800000
000003800000
000003800000
000003800000
000003800000
FFFFFFFFFFFE
FFFFFFFFFFFE
FFFFFFFFFFFE
000003800000
000003800000
000003800000
000003800000
000003800000
000003800000
000003800000
000003800000
000003800000
000003800000
000003800000
000003800000
000003800000
000003800000
000003800000
000003800000
000003800000
000003800000
000003800000
000003800000
000003800000
000003800000
000003800000
ENDCHAR
STARTCHAR 002C
ENCODING 44
SWIDTH 238 0
DWIDTH 20 0
BBX 10 11 1 -4
BITMAP
0780
0FC0
0FC0
1FC0
1FC0
1F80
1F80
3F00
3E00
7800
E000
ENDCHAR
STARTCHAR 002D
ENCODING 45
SWIDTH 226 0
DWIDTH 19 0
BBX 12 3 5 9
BITMAP
3FF0
7FF0
FFE0
ENDCHAR
STARTCHAR 002E
ENCODING 46
SWIDTH 238 0
DWIDTH 20 0
BBX 7 6 4 1
BITMAP
3C
7E
FE
FE
FC
78
ENDCHAR
STARTCHAR 002F
ENCODING 47
SWIDTH 273 0
DWIDTH 23 0
BBX 35 68 4 -9
BITMAP
00000000E0
00000001C0
00000001C0
0000000380
0000000380
0000000700
0000000700
0000000E00
0000000E00
0000001E00
0000001C00
0000003C00
0000003800
0000003800
0000007000
0000007000
000000E000
000000E000
000001C000
000001C000
0000038000
0000038000
0000070000
0000070000
00000F0000
00000E0000
00001E0000
00001C0000
00003C0000
0000380000
0000380000
0000700000
0000700000
0000E00000
0000E00000
0001C00000
0001C00000
0003800000
0003800000
0007000000
0007000000
000F000000
000E000000
001E000000
001C000000
003C000000
0038000000
0038000000
0070000000
0070000000
00E0000000
00E0000000
01C0000000
01C0000000
0380000000
0380000000
0700000000
0700000000
0F00000000
0E00000000
1E00000000
1C00000000
1C00000000
3800000000
3800000000
7000000000
7000000000
E000000000
ENDCHAR
STARTCHAR 0030
ENCODING 48
SWIDTH 416 0
DWIDTH 35 0
BBX 42 42 2 0
BITMAP
000000003F00
00000000FF80
00000007E1C0
0000000F80C0
0000003E00C0
0000007C00C0
000001F800C0
000003E001C0
00000FC001C0
00001F800380
00003F000380
00007E000700
0000FC000700
0001F8000E00
0003F0001E00
0007E0001C00
000FC0003800
001F80007000
003F00007000
007E0000E000
00FC0001C000
01F800038000
03F800070000
03F000060000
07E0000E0000
0FC0001C0000
0F8000380000
1F8000700000
1F0000E00000
3E0001C00000
3C0003800000
7C0007000000
78000E000000
F80038000000
F00070000000
E000E0000000
E00380000000
E00700000000
E01C00000000
70F800000000
7FE000000000
1F0000000000
ENDCHAR
STARTCHAR 0031
ENCODING 49
SWIDTH 261 0
DWIDTH 22 0
BBX 40 42 -1 0
BITMAP
0000000007
000000001F
000000003E
000000007C
00000001F8
00000003F0
00000007E0
0000000FC0
0000001F80
0000003F00
000000FE00
000001FE00
000003FC00
000007F800
00000FF000
00001DE000
00007BC000
0000E78000
0001CF8000
00079F0000
000E3E0000
003C7C0000
00F0F80000
00C1F80000
0003F00000
0007E00000
000FC00000
001F800000
003F800000
003F000000
007E000000
00FC000000
01F8000000
03F0000000
07F0000000
0FE0000000
1FC0000000
1F80000000
3F00000000
7E00000000
FC00000000
F800000000
ENDCHAR
STARTCHAR 0032
ENCODING 50
SWIDTH 392 0
DWIDTH 33 0
BBX 45 42 -4 0
BITMAP
000000007F80
00000003FFE0
0000000FF830
0000001FE010
0000007F8018
000000FE0018
000001FC0018
000003F80C38
000007F00C38
000007C01878
00000F8038F0
00000F0070F0
00001E00E1F0
00001E01C3E0
00001C0387C0
00001C070FC0
00001C1C1F80
00000FF83F00
000007C07E00
00000000F800
00000001F000
00000007C000
0000000F0000
0000003C0000
000000F00000
000003800000
00000E000000
000030000000
0000C0000000
000300000000
000C00000000
003000000000
00C000000000
010000000000
060000000000
0C0000000000
19F000600000
3FFC00C00000
7FFE01800000
7FFF82000000
FFFFFC000000
FFFFE0000000
ENDCHAR
STARTCHAR 0033
ENCODING 51
SWIDTH 416 0
DWIDTH 35 0
BBX 44 42 -1 0
BITMAP
000000007F00
00000003FFC0
0000000FF060
0000001FC020
0000007F0030
000000FE0030
000001FC0830
000003F01870
000007E01870
000007C030F0
00000F8071E0
00000F0063E0
00001E00C7E0
00001C0187C0
00001C030F80
00001C0E3F00
00001C3C7E00
00000FF0FC00
00000383F800
0000000FE000
0000007F0000
000001F80000
0000007C0000
0000001E0000
0000000F0000
0000000F0000
0000000F0000
0F80001F0000
3F80001F0000
7F80003F0000
7F80007E0000
FF00007E0000
C00000FC0000
C00001F80000
C00007F00000
C0000FE00000
60001FC00000
70007F800000
3801FE000000
1F1FF8000000
0FFFE0000000
01FE00000000
ENDCHAR
STARTCHAR 0034
ENCODING 52
SWIDTH 428 0
DWIDTH 36 0
BBX 48 42 0 0
BITMAP
00000007C003
0000001F8006
0000003F001C
0000007E0038
000000FC0070
000001F800E0
000001F001C0
000003E00380
000007C00780
00000FC00700
00000F800E00
00001F001C00
00003E003C00
00007C007800
00007800F000
0000F001F000
0001E001E000
0001E003C000
0003C007C000
0007800F8000
0007001F0000
000E001F0000
001E003E0000
001C007C0000
003800FC0000
007000F80000
03F001F00000
3FFE03F00000
7FCF87E00000
FF81E7C00000
FB007FC00000
FE001FFF0000
78003FFF0000
00007F000000
0000FE000000
0001FC000000
0003F8000000
0007F0000000
000FE0000000
000FC0000000
001F80000000
003F00000000
ENDCHAR
STARTCHAR 0035
ENCODING 53
SWIDTH 380 0
DWIDTH 32 0
BBX 47 42 -2 0
BITMAP
00000003FFFE
00000007FFFC
00000008FFF8
000000181FF0
0000003003C0
000000600000
000000400000
000000C00000
000001800000
000003000000
000003000000
000006000000
00000C000000
00001C000000
000018F00000
000037FC0000
00007E0E0000
000070070000
0001C0070000
000380070000
000780070000
0007000F0000
0000000F0000
0000001E0000
0000001E0000
0000003E0000
0000007C0000
000000FC0000
000000F80000
000001F00000
1E0003E00000
3F0007E00000
7F800FC00000
FF001F800000
FE003F000000
C0007E000000
C001F8000000
C003F0000000
6007E0000000
703F80000000
1FFE00000000
07F000000000
ENDCHAR
STARTCHAR 0036
ENCODING 54
SWIDTH 404 0
DWIDTH 34 0
BBX 45 42 2 0
BITMAP
000000000FC0
000000007FF0
00000003F030
0000000FC038
0000001F00F8
0000007C01F8
000001F803F0
000003E007F0
000007C007E0
00001F800180
00003F000000
00007E000000
0000F8000000
0001F0000000
0007E1F00000
000FC7F80000
001F9E1C0000
003F781C0000
007EE01C0000
00FDC01C0000
00FF003C0000
01FE003C0000
03FC00780000
07D800F80000
07C000F00000
0F8001F00000
1F0003E00000
1E0007E00000
3E000FC00000
3C001F800000
78001F000000
78003E000000
70007C000000
F000F8000000
E003F0000000
E007E0000000
C00FC0000000
C01F80000000
C07E00000000
61FC00000000
7FF000000000
1F8000000000
ENDCHAR
STARTCHAR 0037
ENCODING 55
SWIDTH 321 0
DWIDTH 27 0
BBX 46 45 -3 1
BITMAP
000000018000
000000010000
000000010000
0000001FFFFC
0000007FFFFC
000000FFFFF8
000001C5FFF8
0000018CFFF0
000001987FE0
000001F03FC0
000000E01F80
000000000300
000000000E00
000000001800
000000003000
00000000E000
00000001C000
000000070000
0000000E0000
0000003C0000
000000780000
000001E00000
000003C00000
00000F800000
00001F000000
00007E000000
0000FC000000
0003F0000000
0007E0000000
000FC0000000
001F80000000
003F00000000
00FE00000000
01FC00000000
03F800000000
03F000000000
07E000000000
0FC000000000
1FC000000000
3F8000000000
3F0000000000
7E0000000000
FE0000000000
FC0000000000
F80000000000
ENDCHAR
STARTCHAR 0038
ENCODING 56
SWIDTH 428 0
DWIDTH 36 0
BBX 45 42 1 0
BITMAP
000000001F80
00000000FFE0
00000001E070
000000038038
000000070038
0000000E0038
0000001E0038
0000003C0038
0000003C0070
0000007800F0
0000007800E0
000000F801E0
000000F00780
000000F00F00
000001F03E00
000001F0F800
000001FFC000
000001FE0000
00003FF00000
0001FFE00000
000FE3E00000
003F03E00000
00FC03E00000
03F803C00000
07E003C00000
0FC007C00000
1F8007800000
3F0007800000
3E000F800000
7C000F000000
78000F000000
F8001E000000
F0001E000000
F0003C000000
E00038000000
E00070000000
E000E0000000
6001C0000000
700780000000
381F00000000
1FFC00000000
07E000000000
ENDCHAR
STARTCHAR 0039
ENCODING 57
SWIDTH 404 0
DWIDTH 34 0
BBX 43 42 -2 0
BITMAP
000000003F80
00000001FFC0
00000007F060
0000000FC060
0000003F8060
0000007E0060
000000FC0060
000001F800E0
000003F000E0
000007E001C0
00000FC001C0
00001F8003C0
00003F000380
00007E000780
00007C000F00
0000F8000F00
0000F8001E00
0001F0003C00
0001E0007C00
0003E003F800
0003C007F000
0007800FF000
0007803FE000
00070077C000
000700EF8000
000703DF0000
00030F3E0000
0003FC7C0000
0000E0F80000
000001F00000
1E0003E00000
3E0007C00000
7F000F800000
7E001F000000
FC003C000000
C000F8000000
C001E0000000
C003C0000000
C00F00000000
707C00000000
3FF000000000
0FC000000000
ENDCHAR
STARTCHAR 003A
ENCODING 58
SWIDTH 285 0
DWIDTH 24 0
BBX 18 20 3 0
BITMAP
000780
000FC0
001FC0
001FC0
001F80
000F00
000000
000000
000000
000000
000000
000000
000000
000000
3C0000
7E0000
FE0000
FE0000
FC0000
780000
ENDCHAR
STARTCHAR 003B
ENCODING 59
SWIDTH 285 0
DWIDTH 24 0
BBX 21 24 0 -4
BITMAP
0000F0
0001F8
0003F8
0003F8
0003F0
0001E0
000000
000000
000000
000000
000000
000000
000000
078000
0FC000
0FC000
1FC000
1FC000
1F8000
1F8000
3F0000
3E0000
780000
E00000
ENDCHAR
STARTCHAR 003C
ENCODING 60
SWIDTH 833 0
DWIDTH 70 0
BBX 47 41 11 4
BITMAP
000000000002
00000000001E
00000000007E
0000000003FE
000000000FF8
000000003FC0
00000001FF00
00000007F800
0000003FE000
000000FF0000
000007FC0000
00001FF00000
00007F800000
0003FE000000
000FF0000000
007FC0000000
01FE00000000
0FF800000000
3FC000000000
FF0000000000
F80000000000
FF0000000000
3FC000000000
0FF800000000
01FE00000000
007FC0000000
000FF0000000
0003FC000000
0000FF800000
00001FE00000
000007FC0000
000000FF0000
0000003FE000
00000007F800
00000001FF00
000000003FC0
000000000FF8
0000000003FE
00000000007E
00000000001E
000000000002
ENDCHAR
STARTCHAR 003D
ENCODING 61
SWIDTH 833 0
DWIDTH 70 0
BBX 48 17 10 16
BITMAP
FFFFFFFFFFFF
FFFFFFFFFFFF
FFFFFFFFFFFF
000000000000
000000000000
000000000000
000000000000
000000000000
000000000000
000000000000
000000000000
000000000000
000000000000
000000000000
FFFFFFFFFFFF
FFFFFFFFFFFF
FFFFFFFFFFFF
ENDCHAR
STARTCHAR 003E
ENCODING 62
SWIDTH 833 0
DWIDTH 70 0
BBX 47 41 11 4
BITMAP
800000000000
F00000000000
FC0000000000
FF8000000000
3FE000000000
07F800000000
01FF00000000
003FC0000000
000FF8000000
0003FE000000
00007FC00000
00001FF00000
000003FC0000
000000FF8000
0000001FE000
00000007FC00
00000000FF00
000000003FE0
0000000007F8
0000000001FE
00000000003E
0000000001FE
0000000007F8
000000003FE0
00000000FF00
00000007FC00
0000001FE000
0000007F8000
000003FE0000
00000FF00000
00007FC00000
0001FE000000
000FF8000000
003FC0000000
01FF00000000
07F800000000
3FE000000000
FF8000000000
FC0000000000
F00000000000
800000000000
ENDCHAR
STARTCHAR 003F
ENCODING 63
SWIDTH 535 0
DWIDTH 45 0
BBX 33 45 16 0
BITMAP
000007F000
00003FFC00
0000F80E00
0003E00700
000F800300
001E000380
003C000380
0078000380
00F0010380
01E0010380
03C0010780
07C0030780
0780030F80
0F00020F00
0F00061F00
0F00041F00
1E000C3E00
1E00087E00
1E00187C00
1E0010FC00
1E0021F800
0F0043F000
0F0087E000
07830FC000
03FE1F8000
00F03F0000
00007E0000
0001F80000
0003E00000
000F800000
001E000000
0038000000
0070000000
00C0000000
0180000000
0100000000
0000000000
0000000000
0000000000
3C00000000
7E00000000
FE00000000
FE00000000
FC00000000
7800000000
ENDCHAR
STARTCHAR 0040
ENCODING 64
SWIDTH 988 0
DWIDTH 83 0
BBX 70 70 6 -11
BITMAP
000000003FF0000000
0000000FFFFFC00000
0000007F8003F80000
000001F000003E0000
000007C00000078000
00001E00000001E000
000078000000007000
0000F0000000003800
0003C0000000001C00
000780000000000600
000F00000000000300
001E00000000000380
003C000000000001C0
0078000000000000C0
00F000000000000060
01E000000000000060
01C000000000000030
03C000000000000030
078000000000000030
078000003FC07C0018
0F000000F0707C0018
0F000003C0387C0018
1E000007801CF80008
1E00001F000CF8000C
3C00003E0006F8000C
3C00007C0006F8000C
3C00007C0007F0000C
780000F80003F0000C
780001F00003F0000C
780003F00003E0000C
780003E00003E0000C
F80007E00003E0000C
F00007E00007E0000C
F0000FC00007C00018
F0000FC00007C00018
F0000F800007C00018
F0001F800007800018
F0001F80000F800030
F0001F80000F800030
F0001F00000F800030
F0001F00001F000060
F0001F00001F000060
F0001F00003F0000C0
70001F00003F0001C0
78001F00007E000180
78000F0000DE000300
78000F0000DE000700
38000F80019E000E00
3C000780031E001C00
3C0007C0061E003800
1C0003E01C0F00F000
1E0001F0780783C000
0E00007FE003FF0000
0F00001F0000FC0000
078000000000000000
038000000000000000
03C000000000000000
01E000000000000000
00F000000000000000
007800000000000000
003C00000000000200
001F00000000000E00
000F80000000001800
0003E0000000007000
0001F800000001C000
00007E0000000F0000
00001FC000007C0000
000007FC0007F00000
000000FFFFFF000000
00000003FFF0000000
ENDCHAR
STARTCHAR 0041
ENCODING 65
SWIDTH 761 0
DWIDTH 64 0
BBX 92 59 0 0
BITMAP
0000000000000000000003F0
000000000000000000001FE0
0000000000000000000063C0
000000000000000000018780
000000000000000000060F00
000000000000000000081E00
000000000000000000307C00
00000000000000000040F800
00000000000000000181F800
00000000000000000303F000
00000000000000000407E000
0000000000000000080FC000
0000000000000000301F8000
0000000000000000603F8000
0000000000000000803F0000
0000000000000001007E0000
0000003F8000000200FC0000
000001FFF000000C01FC0000
000003FFF800001803F80000
000007FFFC00003007F00000
00000FE03E0000600FE00000
00001F800F0000C00FE00000
00003E00038001801FC00000
00003C0001C003003F800000
0000780000C006007F000000
0000700000601C007F000000
0000700000603800FE000000
0000600000307001FC000000
0000E0000030E003FC000000
0000E0000031C007F8000000
0000C00000138007F0000000
0000C000001F000FE0000000
0000C000001C001FE0000000
0000C0000038003FC0000000
0000C0000078007F80000000
0000C00000F8007F00000000
0000E00001D800FE00000000
00006000039801FE00000000
00006000071803FC00000000
000060000E1807F800000000
000070001C1807F000000000
0000300078180FE000000000
00003800E0181FE000000000
00001801C0183FC000000000
1E001C0380187F80C0000000
3F000E0F0010FF00C0000000
7F80061E0030FE0180000000
7F80073C0031FC0300000000
FF8003F00033F80700000000
FF0001E00037F00E00000000
FE0003C0002FE01C00000000
C0000760007FE03800000000
C0001E38007FC07000000000
C000381C007F80E000000000
6000F00F00FF038000000000
7003C003C0FE0F0000000000
3C1F8001F8FC7C0000000000
1FFE00003FFFF00000000000
07F0000007FF800000000000
ENDCHAR
STARTCHAR 0042
ENCODING 66
SWIDTH 952 0
DWIDTH 80 0
BBX 72 59 8 0
BITMAP
000000000003FFC003
00000000007FFFFC07
0000000003FC001F0E
000000001F800003CC
000000007C000000FC
00000001F000000078
00000007C0000000F8
0000001F00000001FC
0000003C000000039C
000000F0000000070E
000001C00000000E0E
000007800000001C0F
00000F00000000380F
00001C00001000700F
00003800001800F00F
00007000003001E01F
0000E000003003C01F
0001C000003007801F
0003800000700F003E
0007000000601F003E
0006000000E03E007C
000C000001C07C007C
001C000001C0F800F8
001800000380F801F0
003800000781F003E0
003000000F03E3FFC0
003000001E07EFFF00
006000003C0FDC0F00
006000007C0FB01980
00600000F81FB07180
00600001F03F38E1C0
00600003E07E3F81C0
0060000FC0FC0F01C0
0070001F00FC0003C0
0030007E01F80003C0
003801F803F00003C0
001E0FF007E00007C0
000FFF800FE0700FC0
0003FC001FC1E00F80
000000003F87801F80
000000003F0E001F80
000000007E3C003F00
00000000FE70007F00
00000001FCE000FE00
1E000003FB8000FC00
7F000007F70001FC00
7F00000FE60003F800
FF00001FCC0007F000
FF00003F98000FE000
FF00007F38001FC000
FE0000FE30003F8000
E00003F860007F0000
600007F06000FE0000
70000FE06001FC0000
38003F806007F00000
3C00FF00700FE00000
0F07FC00387F800000
07FFE0001FFE000000
00FF000007F0000000
ENDCHAR
STARTCHAR 0043
ENCODING 67
SWIDTH 702 0
DWIDTH 59 0
BBX 66 59 5 0
BITMAP
000000000000003F00
00000000000001FFC0
0000000000000FE1C0
0000000000003F00C0
000000000000FC00C0
000000000003F001C0
00000000000FC001C0
00000000001F800380
00000000007E000380
0000000000FC000700
0000000001F0000E00
0000000007E0001E00
000000000FC0003C00
000000001F80007800
000000007F0001F000
00000000FE0003C000
00000001FC00078000
00000003F8001F0000
00000007E0003C0000
0000000FE000F80000
0000001FC003E00000
0000003F8007800000
0000007F001E000000
000000FE00F8000000
000001FC03E0000000
000003F81F00000000
000007F0FC00000000
00000FE7E000000000
00001FFF0000000000
00003FF80000000000
0001FF800000000000
001FFF000000000000
0FFFFE000000000000
FFF0FC000000000000
FC01FC000000000000
0001F8000000000000
0003F0000000000000
0003F00003E0000000
0007E0001FF8000000
0007C0007C38000000
000FC001E01C000000
000F8003801C000000
000F0007001C000000
000F001C003C000000
001E0038003C000000
001E00700078000000
001E00E000F8000000
001C01C001F0000000
001C038003F0000000
001C030007E0000000
001C06001FC0000000
001C04003F80000000
000C00007F00000000
000E0001FE00000000
00070003F800000000
0003800FF000000000
0001F07FC000000000
0000FFFE0000000000
00001FF00000000000
ENDCHAR
STARTCHAR 0044
ENCODING 68
SWIDTH 892 0
DWIDTH 75 0
BBX 76 59 5 0
BITMAP
00000000007FF8000000
0000000007FFFF000000
000000003FFE07E00000
00000000FFC000780000
00000003FE00000C0000
0000000FF80000020000
0000001FE00000010000
0000007F800000008000
000000FF000000004070
000001FC0000000021E0
000003F8000000002780
000007F0000030001F00
00000FE0000070000E00
00001FC0000060001C00
00001F80000060003C00
00003F000000E0006C00
00007E000000C000CC00
00007C000000C001CC00
0000F800000180038C00
0000F000000180070C00
0001F0000003000E0C00
0001E0000007001E0C00
0001C0000006003C0C00
0001C000000C00780C00
00038000001C00F80C00
00038000003800F00C00
00038000003001E00C00
00030000006003E01800
0003000000C007C01800
0003000001800F801800
0003000007000F801800
000180000E001F003000
000180001C003E003000
0000C00078007E003000
0000E001E000FC006000
0000781F8000F8006000
00001FFE0001F800C000
000007F00003F000C000
000000000007E0018000
00000000000FC0018000
00000000001FC0030000
00000000001F80060000
00000000003F000E0000
00000000007E000C0000
0000000000FC00180000
0000000001F800300000
0000000003F000600000
0000000007E000C00000
000000000FC001C00000
000000001F8003000000
000000003F000E000000
00000000FC001C000000
3F800001F80038000000
FFF80003E000E0000000
C07F000F8003C0000000
C007E03E001F00000000
78007CF801FC00000000
3FFFFFFFFFE000000000
03FFFFFFFE0000000000
ENDCHAR
STARTCHAR 0045
ENCODING 69
SWIDTH 642 0
DWIDTH 54 0
BBX 61 59 7 0
BITMAP
000000000001FF00
00000000003FFFC0
0000000000FFC1E0
0000000007FE0030
000000000FF00038
000000003FE00018
00000000FF800018
00000001FE000018
00000003FC000018
00000007F0000038
0000001FE0000038
0000001FC0000070
0000003F800000F0
0000007F000001E0
0000007E000003E0
000000FC000007C0
000000F800000F80
000000F000001F00
000001F000007E00
000001E00001F800
000001C00007E000
000001C0001F8000
000001FF81FE0000
000003FFE0E00000
00001E6070000000
0000F87030000000
0003E03830000000
000FC01FE0000000
003F8007C0000000
007E000000000000
00FC000000000000
03F8000000000000
07F0000000000000
07E0000000000000
0FC0000000000000
1F80000000000000
1F80000000000000
3F00000780000000
3E00007FE0000000
7C0001F070000000
7C00078030000000
78000E0030000000
F8003C0030000000
F000700070000000
F000E000F0000000
E001C000E0000000
E0038003E0000000
E0070007C0000000
E00E000FC0000000
E00C001F80000000
6000003F00000000
7000007E00000000
700001FC00000000
380007F800000000
1C000FE000000000
1E007FC000000000
07E7FF0000000000
03FFF80000000000
007FC00000000000
ENDCHAR
STARTCHAR 0046
ENCODING 70
SWIDTH 761 0
DWIDTH 64 0
BBX 89 59 5 0
BITMAP
0000000003FFFF0000000000
00000000FFFFFFFF80000000
00000007FE0000FFFFE00000
0000001FE0000001FFFFFF80
0000007F00000001CFFFFF00
000001FC00000003C03FF800
000003F00000000780000000
00000FE00000000F80000000
00001FC00000001F00000000
00003F000003003E00000000
00003E000003003C00000000
00007C000006007C00000000
00007800000600F800000000
0000F000000C01F000000000
0000F000001C01F000000000
0000E000001803E000000000
0001E000003807C000000000
0001C000007007C000000000
0001C00000E00F8000000000
0001C00001C01F800C000000
0001C00003801F007C000000
0000C00007003E03F8000000
0000E0000E003E1FF0000000
0000F0001C007DFFC0000000
000078007800FFE380000000
00003E03E001FF0780000000
00001FFF800FF80F00000000
000007FC007FF00E00000000
0000000003FFE01E00000000
000000001F87E03C00000000
00000000FC0FC03C00000000
00000003E01F800000000000
0000000F803F800000000000
0000003C003F000000000000
00000070007E000000000000
000000C000FE000000000000
0000000001FC000000000000
0000000003F8000000000000
0000000007F0000000000000
0000000007F0000000000000
000000000FE0000000000000
000000001FC0000000000000
000000003F80000000000000
000000007F00000000000000
1E000000FE00000000000000
7F000001FE00000000000000
7F000003FC00000000000000
FF800007F800000000000000
FF80000FF000000000000000
FF00001FE000000000000000
FE00003F8000000000000000
E000007F0000000000000000
600000FE0000000000000000
700003F80000000000000000
300007F00000000000000000
3C001FC00000000000000000
0F81FF000000000000000000
07FFF8000000000000000000
00FFC0000000000000000000
ENDCHAR
STARTCHAR 0047
ENCODING 71
SWIDTH 690 0
DWIDTH 58 0
BBX 76 59 -1 0
BITMAP
00000000000000001FC0
0000000000000001FFE0
0000000000000007E070
000000000000003F8030
00000000000000FE0030
00000000000003F80070
0000000000000FE00070
0000000000001F8000E0
0000000000007F0001E0
000000000000FE0003C0
000000000003F8000780
000000000007F0000F00
00000000001FE0001E00
00000000003FC0003C00
00000000007F80007800
0000000000FE0000F000
0000000001FC0001E000
0000000003F80003C000
0000000007F0000F0000
000000000FE0001E0000
000000001FC0007C0000
000000003F8000F00000
000000003F8003E00000
000000007F0007800000
00000000FE001E006000
00000000FC007800E000
00000001F801E001C000
00000001F00F80038000
00000003F03E000E0000
00000003E3F8001C0000
00000003FFC000380000
00000007FE0000F00000
0007FFFFE00001E00000
0007FFFF800007E00000
0000000700000FC00000
0000000700001F800000
0000000700007F000000
000000070001FE000000
000000030007FC000000
00000003801FFC000000
00000001E0FFF8000000
00000000FFF7F0000000
000000003F0FE0000000
00000000000FC0000000
1E000000001F80000000
3F000000003F00000000
7F800000007F00000000
7F80000001FC00000000
FF80000003F800000000
FF80000007F000000000
FF0000000FE000000000
E00000003FC000000000
600000007F0000000000
70000001FC0000000000
38000007F00000000000
1E00003FC00000000000
0FE003FF000000000000
03FFFFF8000000000000
003FFF00000000000000
ENDCHAR
STARTCHAR 0048
ENCODING 72
SWIDTH 761 0
DWIDTH 64 0
BBX 98 59 0 0
BITMAP
00000000000000000000003F00
00000000001F8000180001FF80
0000000000FFC000300007C180
0000000003E1E00070000F00C0
000000000F01E000E0003C00C0
000000003C01E001C0007800C0
000000007003E0038000F000C0
00000000E007C00F0003E001C0
00000003801FC01E0007C00180
00000007003F803C000F800380
0000000E007F007C001F000700
0000001C00FC00F8003E000F00
0000003801F803F0007C001E00
0000003003F007E000F8001C00
0000002003E00FC001F0007800
0000000003C03FC003E000F000
0000000003C07F8007C001E000
0000000003C1DF000FC003C000
0000000001FFBE001F800F8000
0000000000FC7E001F001E0000
000000000000FC003E00780000
000000000001F8007C01F00000
000000000001F000FC07C00000
000000000003F001F81E000000
000000000007E003F0F8000000
00000000000FC007E7C0000000
00000000001F800FFF00000000
00000000003F800FF000000000
00000000003F00FF8000000000
00000000007E1FFF0000000000
0000000000FFFF7E0000000000
0000000001FFF0FE0000000000
0000000007FE01FC0000000000
000000007FF001F80000000000
0000000FFFF003F00000000000
0000007F8FE007F00000000000
000007F81FC00FE00000000000
00003F801F801FC00000000000
0001FC003F801F800000000000
0007E0007F003F800000000000
003F8000FE007F000000000000
007C0001FC00FE000000000000
01F00003F800FC000000000000
07E00003F001F8000000000000
0F800007E003F8000000000000
1E00000FC007F0000000000000
3C00001F8007E0006000000000
7800003F000FC000C000000000
7000007E001FC0038000000000
E00000FC001F80070000000000
E00003F8003F000E0000000000
C00007F0003E00180000000000
C0000FC0007C00700000000000
C0003F80007C00E00000000000
E0007E00007803800000000000
6003F80000780F000000000000
781FE00000783C000000000000
1FFF8000003FF0000000000000
07F80000001F80000000000000
ENDCHAR
STARTCHAR 0049
ENCODING 73
SWIDTH 714 0
DWIDTH 60 0
BBX 89 59 -2 0
BITMAP
0000000000000000000FFF80
000000000000000003FFFF80
00000000000000001FC0FC00
0000000000000000FE03E000
0000000000000003F80FC000
000000000000000FE01F0000
000000000000003F803E0000
000000000000007E00780000
00000000000001FC00F00000
00000000000003F803E00000
0000000000000FE007C00000
0000000000001FC00F800000
0000000000003F801F000000
0000000000007F003E000000
000000000000FE003C000000
000000000001FC0078000000
000000000001F800F0000000
000000000003F001E0000000
000000000007E003E0000000
000000000007E007C0000000
00000000000FC00F80000000
00000000000F801F00000000
00000000001F001E00000000
00000000001F003E00000000
00000000001E007C03000000
00000000003C00F803000000
00000000003C01F006000000
00000000003801F006000000
00000000003803E00C000000
00000000003807C00C000000
0000000000300FC018000000
0000000000300F8030000000
0000000000301F0070000000
0000000000103E00E0000000
0000000000107E01C0000000
0000000000087C0380000000
000000000008F80E00000000
000000000005F87C00000000
000000000007FFF000000000
00000000000FFF8000000000
00000000001FC00000000000
00000000001F800000000000
00000000003F800000000000
00000000007F000000000000
1E00000000FE000000000000
3F00000003F8000000000000
7F80000007F0000000000000
7F8000000FE0000000000000
FF8000001FC0000000000000
FF0000003F80000000000000
FE000000FE00000000000000
E0000001FC00000000000000
60000007F000000000000000
7000001FE000000000000000
3800007F8000000000000000
1C0003FC0000000000000000
0FE03FF00000000000000000
03FFFF800000000000000000
007FF0000000000000000000
ENDCHAR
STARTCHAR 004A
ENCODING 74
SWIDTH 416 0
DWIDTH 35 0
BBX 91 82 -21 -23
BITMAP
00000000000000000001FFE0
0000000000000000003FDC00
000000000000000003FC7000
00000000000000001FE0C000
00000000000000007F038000
0000000000000001FC070000
0000000000000007F01E0000
000000000000001FC0380000
000000000000007F80700000
00000000000000FE00E00000
00000000000001FC01C00000
00000000000007F803800000
0000000000000FE007000000
0000000000001FC00E000000
0000000000003F801E000000
0000000000003F003C000000
0000000000007E0078000000
000000000000FC00F0000000
000000000000F801E0000000
000000000001F803C0000000
000000000001F00780000000
000000000001E00780000000
000000000003E00F00000000
000000000003C01E00000000
000000000003C03C00600000
000000000003C07800C00000
00000000000380F801800000
00000000000380F003800000
00000000000181E007000000
00000000000183C00E000000
00000000000087C038000000
000000000000CF80F0000000
0000000000006F03C0000000
0000000000003FFF00000000
0000000000007FF800000000
000000000000FC0000000000
000000000001F80000000000
000000000003F00000000000
000000000007E00000000000
000000000007E00000000000
00000000000FC00000000000
00000000001F800000000000
00000000003F000000000000
00000000007E000000000000
0000000000FE000000000000
0000000001FC000000000000
0000000001F8000000000000
0000000003F0006000000000
0000000007E000C000000000
000000000FC0018000000000
000000001FC0030000000000
000000001F800E0000000000
000000003F001C0000000000
000000007E00700000000000
00000000FC01E00000000000
00000001FC0F800000000000
00000003F9FC000000000000
00000003FFE0000000000000
0000007FF800000000000000
000007FFC000000000000000
00007F1FC000000000000000
0001F03F8000000000000000
000FC03F0000000000000000
003F007E0000000000000000
007C00FC0000000000000000
01F001F80000000000000000
03E003F00000000000000000
078003F00000000000000000
0F0007E00000000000000000
1C000FC00000000000000000
38001F800000000000000000
70003F000000000000000000
70007E000000000000000000
E000FC000000000000000000
C001F0000000000000000000
C003E0000000000000000000
C007C0000000000000000000
C00F80000000000000000000
E01E00000000000000000000
70F800000000000000000000
7FE000000000000000000000
1F0000000000000000000000
ENDCHAR
STARTCHAR 004B
ENCODING 75
SWIDTH 761 0
DWIDTH 64 0
BBX 100 58 -5 0
BITMAP
00000000000000000000000070
000000000000000000000001F0
00000000001F80000800000780
0000000000FFC0003000001E00
000000000387E0006000003C00
000000000E07E000C00000F000
000000001807E001800001E000
00000000600FE003000007C000
00000000C01FC00600000F8000
00000001803FC01C00001F0000
00000006007F803C00003E0000
0000000C007F007800007C0000
0000001800FC01F00000F80000
0000001801F803E00001F00000
0000001001F007C00003E00000
0000000001E01F800007C00000
0000000001E07F00000F800000
0000000001E1DF00001E000000
0000000000FFBE00003C000000
00000000007C7C000078000000
000000000000F80000F0000000
000000000001F00001E0000000
000000000001F00003C0000000
000000000003E0000780000000
000000000007C0000E00000000
00000000000FC0003C00000000
00000000001F9C007800000000
00000000003F3F00E000000000
00000000007E61838000000000
00000000007E60CF0000000000
0000000000FC3FF80000000000
0000000001F81FF00000000000
0000000003F800300000000000
0000000007F000300000000000
000000000FE000300000000000
000000000FC000700000000000
000000001FC000F00000000000
000000003F8001E00000000000
000000007F0003E00000000000
00000000FE0007C00000000000
00000001FE000FC00000000000
00000001FC001F800000000000
00000003F8003F800000000000
1F000007F0007F000200000000
3F80000FE0007E000600000000
7F80001FC000FC000C00000000
FF80003F8001F8001800000000
FF80007F0001F0003000000000
FF0000FE0003E000E000000000
FE0001FC0003C001C000000000
E00007F8000780038000000000
60000FF0000780070000000000
70001FC00007001C0000000000
38003F80000700380000000000
1C00FE00000700F00000000000
0F07F800000387C00000000000
07FFE0000001FF000000000000
00FF00000000FC000000000000
ENDCHAR
STARTCHAR 004C
ENCODING 76
SWIDTH 595 0
DWIDTH 50 0
BBX 93 59 -11 0
BITMAP
0000000000000000000007E0
000000000000000000003FF0
00000000000000000000F838
00000000000000000003C018
000000000000000000078018
0000000000000000001E0018
0000000000000000003C0038
000000000000000000780030
000000000000000000F00070
000000000000000001E00060
000000000000000003C000E0
0000000000000000078001C0
00000000000000001F000380
00000000000000003E000700
00000000000000003C000E00
000000000000000078001C00
0000000000000000F0003800
0000000000000001E0007000
0000000000000003E001C000
0000000000000007C0038000
000000000000000F800F0000
000000000000001F001C0000
000000000000003F00700000
000000000000003E01E00000
000000000000007C07800000
00000000000000F81E000000
00000000000001F878000000
00000000000003F3E0000000
00000000000007FF00000000
00000000000007FC00000000
0000000000000FF000000000
0000000000001F8000000000
000000000001FF8000000000
00000000003FFF0000000000
000000000FFCFE0000000000
00000000FF80FC0000000000
00000000F001FC0000000000
000000000003F80000000000
000000000007F00000000000
000000000007E00000000000
00000000000FC00000000000
00000000001FC00000000000
00000000003F800000000000
00000000007F000000000000
0000000000FE000000000000
0000000001FC000000000000
0000000003F8000000000000
0000000007F0000380000000
000000000FC0000700000000
000000003F80000C00000000
000000007F00003800000000
0FF80000FC00007000000000
7FFFC003F80001E000000000
E007FC0FE000038000000000
C0003F9F00000F0000000000
C00001FC00007C0000000000
78000FFF8003F00000000000
3FFFFF03FFFF800000000000
03FFE0003FFC000000000000
ENDCHAR
STARTCHAR 004D
ENCODING 77
SWIDTH 750 0
DWIDTH 63 0
BBX 90 59 -5 0
BITMAP
0000000000000000060000C0
00000000000000000C000180
00000000000000001C000380
000000000000000038000F00
000000000000000070001E00
0000000000000000E0003C00
0000000000000001E0007C00
0000000000000003C000F800
000000000000000F8001F000
000000000000001F0003E000
000000000000003F0007C000
000000000000007E000FC000
00000000000000FC001F8000
00000000000001F8003F0000
00000000000003F8007E0000
00000000000007F000FC0000
0000000000000FE001FC0000
0000000000001FC003F80000
0000000000003F8007F00000
0000000000007F800FE00000
000000000000DF001FC00000
000000000001BE003FC00000
0000000000033C0077800000
0000000000067C00EF000000
00000000000CF801DE000000
000000000019F003BE000000
000000000033E0077C000000
000000000067E00EF8000000
0000000000C7C01DF0000000
00000000018F8039E0000000
00000000031F0073E0000000
00000000063E00E7C0000000
000000000C7E01CF80000000
0000000038FC079F00000000
0000000070F80F3E00000000
00000000E1F01E7E00000000
00000001C3F03C7C00000000
0000000387E070F800000000
000000070FC0E1F000000000
0000000E1F81C3E000000000
0000001C1F8387E000000000
000000383F070FC000000000
000000707E0E0F8000000000
000000E0FC1C1F0000000000
000001C1F8383F0000000000
00000383F8707E0000000000
0F800703F0E0FC0006000000
1FC00E07E1C0FC000E000000
3FE01C0FC381F8001C000000
7FE0381FC703F00038000000
FFE0701F8E03F000E0000000
FFC0E03F1C07E001C0000000
FF81C03E3807C00780000000
C003807E7007C00E00000000
C00E007FE007803C00000000
C01C007FC00780F000000000
7078007F0007C3C000000000
3FE0007E0003FF0000000000
1F8000780001F80000000000
ENDCHAR
STARTCHAR 004E
ENCODING 78
SWIDTH 750 0
DWIDTH 63 0
BBX 104 59 -8 0
BITMAP
0000000000000000180000000F
0000000000000000300000003E
000000000000000070000000F8
0000000000000000F0000001C0
0000000000000001E000000780
0000000000000003E000000E00
0000000000000007C000001C00
000000000000000FC000003000
000000000000001F8000006000
000000000000003F800000C000
00000000000000770000038000
00000000000000EF0000070000
00000000000001CF00000E0000
000000000000039E00001C0000
000000000000031E0000380000
000000000000061E0000700000
0000000000000E3E0000E00000
0000000000001C3C0000C00000
000000000000387C0001800000
000000000000707C0003000000
000000000000607C0006000000
000000000000C0F8000C000000
00000000000180F80018000000
00000000000380F80030000000
00000000000701F80060000000
00000000000601F000E0000000
00000000000C01F001C0000000
00000000001803F00180000000
00000000003803F00300000000
00000000003003E00600000000
00000000006007E00C00000000
0000000000C007E01800000000
00000000018007C03800000000
00000000038007C07000000000
0000000003000FC06000000000
0000000006000FC0C000000000
000000000C000F818000000000
000000001C000F830000000000
0000000038001F860000000000
0000000070001F0E0000000000
0000000060001F0C0000000000
00000000C0001E180000000000
0000000180003E300000000000
0000000380003E600000000000
0000000700003CC00000000000
0000000E00003D800000000000
0F80001C00007B800000000000
3FC0003800007B000000000000
7FE00070000076000000000000
7FE000E00000FC000000000000
FFE001C00000F8000000000000
FFC003800000F0000000000000
FF8007000001F0000000000000
C0001E000001E0000000000000
C00038000003C0000000000000
6000F000000380000000000000
3807C000000700000000000000
1FFF0000000600000000000000
07F80000000C00000000000000
ENDCHAR
STARTCHAR 004F
ENCODING 79
SWIDTH 666 0
DWIDTH 56 0
BBX 64 59 9 0
BITMAP
000000000000FF80
00000000000FFFF0
00000000007FC078
0000000003FC001C
000000000FF00006
000000003FC00006
00000000FF000003
00000003FC000003
00000007F8000003
0000001FE0000003
0000003FC0000003
000000FF00000007
000001FE00000006
000003FC003FC00E
00000FF003FFF01E
00001FE00FF8383C
00003FC03FC01C78
00007F80FE000CF0
0000FF01FC0007E0
0001FE03F00007C0
0003F80FC0000F80
0007F01F80003E00
000FE03E0000FE00
001FC07C0001C600
003F80F800000600
007F01E000000600
007F03C000000C00
00FE078000000C00
01FC0F0000000800
03F81E0000001800
03F03C0000003000
07E0780000003000
07C0F00000006000
0FC0E0000000E000
1F81C0000000C000
1F03800000018000
1F07800000030000
3E07000000060000
3C0E0000000E0000
7C1C0000001C0000
781C000000380000
7838000000700000
7030000000E00000
F070000001C00000
E060000003800000
E040000006000000
E00000001C000000
C000000038000000
C000000070000000
C0000001C0000000
C000000380000000
4000000E00000000
6000003C00000000
600000F000000000
300003C000000000
18001F0000000000
0E00FC0000000000
07FFF00000000000
00FF000000000000
ENDCHAR
STARTCHAR 0050
ENCODING 80
SWIDTH 809 0
DWIDTH 68 0
BBX 81 59 3 0
BITMAP
000000000000FFFC000180
00000000001FFFFFE00700
0000000001FC0001FC1E00
000000000FC000001F3800
000000003E00000003F000
00000001F000000001E000
000000078000000003E000
0000000E000000000F3000
00000038000000001E3800
000000F0000080003C1800
000001C000018000781800
0000038000018000F01C00
00000E0000018001F01C00
00001C0000030003E01C00
0000380000030003C01C00
0000700000070007801C00
0000E0000007000F003C00
0001C000000E001F003C00
00018000000E003E003C00
00030000001C007C007C00
00070000003C007C007800
00060000007800F800F800
000C0000007801F001F800
000C000000F063F001F000
000C000001E1E7E003F000
0018000003E387C007E000
0018000007C70FC00FE000
001800000F861F801FC000
001800001F0C3F003F8000
001800003E0C7F007F0000
001800007C0C7E00FE0000
000C0001F80EFC01FC0000
000E0003E007FC03F80000
0007000FC007F80FE00000
0003C07F0003F07FC00000
0001FFFC0007FFFE000000
00003FC0000FFFF0000000
00000000001FC000000000
00000000003FC000000000
00000000007F8000000000
00000000007F0000000000
0000000000FE0000000000
0000000001FC0000000000
0000000003FC0000000000
1E00000007F80000000000
7F0000000FF00000000000
7F8000001FE00000000000
FF8000003FC00000000000
FF8000007F800000000000
FF000000FE000000000000
FE000003FC000000000000
E0000007F8000000000000
6000001FE0000000000000
7000003FC0000000000000
380000FF00000000000000
1C0003FC00000000000000
0FC03FF000000000000000
03FFFF8000000000000000
007FF80000000000000000
ENDCHAR
STARTCHAR 0051
ENCODING 81
SWIDTH 702 0
DWIDTH 59 0
BBX 74 59 -1 0
BITMAP
000000000000FFF00000
00000000001FFFFF0000
0000000000FC000FC000
0000000007C00001F000
000000001F0000007800
000000007C0000003C00
00000000F00000001E00
00000003C00000000F00
00000007000000000700
0000000E000000000780
0000003C000000000380
00000070000000000380
000000E00000180003C0
000001C00000180003C0
000001800000180003C0
000003000000380003C0
000007000000300003C0
00000E000000300007C0
00000C000000700007C0
00001C000000700007C0
000018000000E0000FC0
000038000000E0000F80
000030000001E0001F80
000030000003C0001F80
000060000003C0003F00
00006000000780003F00
00006000000F00007E00
00006000001F0000FE00
00006000003E0001FC00
00006000003C0001F800
0000600000F80003F000
0000300001F00007F000
0000300003E0000FE000
000018000FC0001FC000
00001C001F00003F8000
00000780FE0000FF0000
000003FFF00001FC0000
0000007F800003F80000
00000000000007F00000
0000000000001FE00000
0000000000003F800000
0000000000007F000000
000000000001FC000000
000000000003F0000000
00000000000FE0000000
00000000003F80000000
00000000007E00000000
0000000001F800060000
0000000007E0000E0000
000000001F8000180000
000000007E0000700000
00000001F00000E00000
3FF80007C00003800000
7FFFC03F00000F000000
E007FCF800003C000000
C0001FE00000F0000000
F000FEFF000FC0000000
3FFFF00FFFFF00000000
0FFE00007FE000000000
ENDCHAR
STARTCHAR 0052
ENCODING 82
SWIDTH 821 0
DWIDTH 69 0
BBX 82 59 -1 0
BITMAP
0000000000000FFF8000C0
000000000001FFFFF803C0
00000000001FC0007E0780
0000000000FC0000078F00
0000000003E0000001FC00
000000001F000000007800
000000007800000000FC00
00000000E000000003CE00
0000000380000000078F00
0000000F000000000F0700
0000001C000000001E0780
00000038000010003C0380
000000E0000030007803C0
000001C000003000F003C0
0000038000003001E003C0
0000070000006003E003C0
00000E0000006007C003C0
00001C000000E00F8003C0
000018000001C01F0007C0
000030000001C03E0007C0
000060000003807C000F80
00006000000780FC000F80
0000C000000701F8001F80
0000C000000F01F0001F00
0000C000001E03E0003F00
00018000003C07E0003E00
00018000007C0FC0007E00
0001800000F81F8000FC00
0001800001F03F0001F800
0001800003E03F0003F000
000180000FC07E0007E000
0000C0001F80FC000FC000
0000E0007E01FC001F0000
00007001FC03FBE03E0000
00003C07F007F7F1F80000
00001FFF800FE7FFC00000
000003FC000FE1FE000000
00000000001FC00E000000
00000000003F800E000000
00000000007F000E000000
0000000000FF001E000000
0000000001FE001E000000
0000000003FC003E000000
0000000007F8007C000000
000000000FF000FC000000
1F0000000FE001F8018000
3F8000001FC003F0038000
7F8000003F8007F0070000
FFC00000FF000FE00E0000
FFC00001FC001FC01C0000
FF800003F8003F80300000
FF000007F0007F00E00000
C000000FC0007E01C00000
4000003F8000FC07800000
600000FE0000F80E000000
380003F80000F03C000000
1F003FE00000F0F0000000
07FFFF0000007FC0000000
007FF00000003E00000000
ENDCHAR
STARTCHAR 0053
ENCODING 83
SWIDTH 642 0
DWIDTH 54 0
BBX 93 59 -6 0
BITMAP
0000000000000000000007E0
000000000000000000003FF0
00000000000000000000F818
00000000000000000003E018
000000000000000000078018
0000000000000000001F0018
0000000000000000003C0038
000000000000000000780070
000000000000000000F00070
000000000000000003E000E0
000000000000000007C001E0
00000000000000000F8003C0
00000000000000001F000780
00000000000000003E000F00
00000000000000007C001E00
0000000000000000F8003C00
0000000000000001F0007800
0000000000000003F000F000
0000000000000007E003C000
0000000000000007C0078000
000000000000000F801E0000
000000000000001F003C0000
000000000000003F00F00000
000000000000007E03C00000
00000000000000FC0F800000
00000000000001FC3E000000
00000000000001F8F8000000
00000000000003F7C0000000
00000000000007FF00000000
0000000000000FF800000000
0000000000001FE000000000
000000000000FF8000000000
00000000001FFF8000000000
000000000FFF7F0000000000
0000000FFFE0FE0000000000
00000007E001FC0000000000
000000000003FC0000000000
000000000003F80000000000
000000000007F00000000000
00000000000FE00000000000
00000000001FC00000000000
00000000003FC00000000000
00000000007F800000000000
0000000000FF000000000000
1E00000001FE000000000000
3F00000003FC000000000000
7F80000007F8000000000000
FF8000000FE0000000000000
FF8000001FC0000000000000
FF8000003F80000000000000
FE0000007F00000000000000
C0000000FC00000000000000
40000003F800000000000000
60000007E000000000000000
3000001F8000000000000000
1C0000FE0000000000000000
0F8007F80000000000000000
03FFFFC00000000000000000
007FF8000000000000000000
ENDCHAR
STARTCHAR 0054
ENCODING 84
SWIDTH 714 0
DWIDTH 60 0
BBX 89 59 5 0
BITMAP
0000000003FFFF0000000000
00000000FFFFFFFF80000000
00000007FE0000FFFFE00000
0000001FE0000001FFFFFF80
0000007F00000001CFFFFF00
000001FC00000003C03FF800
000003F80000000780000000
00000FE00000000F80000000
00001FC00000001F00000000
00003F800003003E00000000
00003E000003007C00000000
00007C000006007C00000000
00007800000600F800000000
0000F000000C01F000000000
0000F000001C03F000000000
0000E000001803E000000000
0001E000003807C000000000
0001C00000700FC000000000
0001C00000E00F8000000000
0001C00001C01F0000000000
0001C00001803F0000000000
0000C00007007E0000000000
0000E0000E007E0000000000
0000F0001C00FC0000000000
000078007801F80000000000
00003E03E001F80000000000
00001FFF8003F00000000000
000007FC0007F00000000000
000000000007E00000000000
00000000000FC00000000000
00000000001FC00000000000
00000000003F800000000000
00000000003F000000000000
00000000007F000000000000
0000000000FE000000000000
0000000000FC000000000000
0000000001FC000000000000
0000000003F8000000000000
0000000007F0000000000000
000000000FF0000000000000
000000000FE0000000000000
000000001FC0000000000000
000000003F80000000000000
000000007F00000000000000
1E000000FF00000000000000
7F000001FE00000000000000
7F000003FC00000000000000
FF800007F800000000000000
FF80000FF000000000000000
FF00001FE000000000000000
FE00003F8000000000000000
E000007F0000000000000000
600000FE0000000000000000
700003F80000000000000000
30000FF00000000000000000
3C003FC00000000000000000
0F81FF000000000000000000
07FFF8000000000000000000
00FF80000000000000000000
ENDCHAR
STARTCHAR 0055
ENCODING 85
SWIDTH 845 0
DWIDTH 71 0
BBX 73 59 10 0
BITMAP
0000003FFC0000000000
000003FFFF8000000000
00001FC003E000000000
0000FC00007800000000
0003E000001C00000000
00078000000600000000
001E0000000300000000
00380000000180000000
00F00000000180000000
01C000000000C0000000
038000001000C0000000
07000000300060000000
0E000000300060000000
0C000000300060000000
18000000700060000000
38000000600060000000
30000000E00060000000
60000001C000E0000300
60000003C000E0000780
600000038001E0001F80
C00000078001C0003F80
C000000F0003C0007F00
C000001E0003C000FE00
C000003C00078000FC00
C0000078000F8001F000
C00001F0001F0003E000
600003E0001F0007C000
60000FC0003E000F8000
30003F80007C001F0000
3800FE0000FC003E0000
1E07F80001F8007E0000
07FFE00003F000FC0000
01FF000007E001F80000
000000000FE003F00000
000000001FC007E00000
000000003F800FC00000
000000007F001F800000
00000000FE003F000000
00000000FE007E000000
00000001FC00FC000000
00000003F801F8000000
00000007F003F0000000
0000000FE007F0000000
0000001FC00FE0000000
0000003F801FC0000000
0000007F003F80000000
000000FE007F00020000
000001FE00FE00060000
000003FC01FE001C0000
000003F8037C00380000
000007F00EF800600000
000007E01CF001C00000
00000FC030F003800000
00000F80E1E00E000000
00000F01C1C03C000000
00000F0701C0F0000000
00000F1E01C3C0000000
000007F800FF00000000
000003C0007C00000000
ENDCHAR
STARTCHAR 0056
ENCODING 86
SWIDTH 571 0
DWIDTH 48 0
BBX 67 58 11 0
BITMAP
00007C0001000000E0
0001FE0007000003E0
00078F000E00000F80
000E0F001C00001C00
003C0F003800007800
00701F00780000E000
00E03E00F00001C000
01C07E01E000038000
0380FC03E000070000
0701F807C0000E0000
0E01F00FC0001C0000
1C03E01F8000380000
3C07E03F8000700000
3807C07F0000E00000
700780FF0001C00000
700781BF0003800000
E0078F7E0003000000
6003FC7E0006000000
4001F0FC000E000000
000000FC001C000000
000001F80038000000
000001F80070000000
000003F80060000000
000003F000C0000000
000007F00180000000
000007E00380000000
00000FE00700000000
00000FC00E00000000
00001FC00C00000000
00001F801800000000
00003F803000000000
00003F007000000000
00007F00E000000000
00007E01C000000000
0000FE038000000000
0000FC030000000000
0001FC060000000000
0001F80C0000000000
0003F0180000000000
0003F0300000000000
0003E0600000000000
0007C0E00000000000
000FC1800000000000
000F83000000000000
001F06000000000000
001E1C000000000000
003E38000000000000
003C70000000000000
0078E0000000000000
00F380000000000000
00E700000000000000
01DE00000000000000
03F800000000000000
07F000000000000000
07C000000000000000
0F8000000000000000
1E0000000000000000
180000000000000000
ENDCHAR
STARTCHAR 0057
ENCODING 87
SWIDTH 726 0
DWIDTH 61 0
BBX 86 58 8 1
BITMAP
000003F00003000180001C
00000FF800060007000030
00003C3C000C000F0000E0
0000E03C0018001E000180
0003C07C0078007C000300
0007007C00F000F8000C00
000C01F801E001F8001800
003803F003C002F0003000
007007E0078005F0006000
00E00FC00F801BE000C000
01C01F803F0037C0018000
03801F007E0067C0020000
03003E00FE00CF80040000
02003C01FC019F80180000
00003C07F8031F00300000
00003C1DF8063E00600000
00001FF3F00C7E00C00000
00000F83F0187C01800000
00000007E030FC03000000
0000000FC061F806000000
0000000FC0C1F80C000000
0000001F8183F018000000
0000001F8303F030000000
0000003F0607E060000000
0000007F0C0FC0C0000000
0000007E180FC1C0000000
000000FC301F8380000000
000001FC601F8700000000
000001F8C03F0E00000000
000003F1803F1C00000000
000003F3007E3800000000
000007E600FC7000000000
00000FCC00FCE000000000
00000F9801F9C000000000
00001F3001F38000000000
00003FE003F70000000000
00003FC003EE0000000000
00007F8007DC0000000000
0000FF000FF80000000000
0000FE000FF00000000000
0001FC001FE00000000000
0003F8001FC00000000000
0003F0003F800000000000
0007E0007F000000000000
000FC0007E000000000000
001F8000FC000000000000
003F0001F8000000000000
007C0001F0000000000000
00780003E0000000000000
00F00007C0000000000000
01E0000780000000000000
03C0000F00000000000000
0780001E00000000000000
0F00003C00000000000000
1C00007800000000000000
3800007000000000000000
700000E000000000000000
C000008000000000000000
ENDCHAR
STARTCHAR 0058
ENCODING 88
SWIDTH 833 0
DWIDTH 70 0
BBX 91 59 7 0
BITMAP
0000000003FF000000003F00
000000007FFFE0000001FFC0
00000003F000F800000781C0
0000001F00001C00001E03E0
0000007800000E00003807E0
000001E00000070000F007E0
000007800000038001C00FE0
00000E000000018003800FE0
00003C000000018007000FC0
00007000000800C00E000780
0000E000000800C018000000
0001C000001800C030000000
00038000001800C060000000
00060000003000C0C0000000
000C0000003001C180000000
001C0000007001C300000000
00380000007001C600000000
0030000000E0038E00000000
0060000000E0039C00000000
0060000001E007B800000000
00C0000003C007F000000000
00C0000003C00FE000000000
00C0000007800FC000000000
018000000F001F8000000000
018000001E003F0000000000
018000003E003E0000000000
018000007C007E0000000000
01800000F800FC0000000000
00C00003F001F80000000000
00C00007C001F00000000000
00E0001F8003E00000000000
0070007F0007E00000000000
003C03FC000FC00000000000
000FFFE0000F800000000000
0001FF00001F000000000000
00000000003F000000000000
00000000007E000000000000
0000000000FC000000000000
0000000001FC000000000000
0000000003F8000000000000
0000000003F8000000000000
0000000007F0000000000000
000000000FE0000000000000
000000001F60000000000000
000000003EC0000000000000
1E0000007CC00000C0000000
3F000000F9800001C0000000
7F800001F180000380000000
FF800003C180000700000000
FF80000F8300000C00000000
FF80001F0300003800000000
FF00003C0300007000000000
C00000F8030000E000000000
400001F00300038000000000
600007C00300070000000000
30001F0001801E0000000000
1E00FC0001C0780000000000
0FFFF00000FFE00000000000
01FF0000003F000000000000
ENDCHAR
STARTCHAR 0059
ENCODING 89
SWIDTH 809 0
DWIDTH 68 0
BBX 81 59 12 0
BITMAP
0000007FF0000000000000
000007FFFF000000000000
00003F0007C00000000000
0000F00000E00000000000
0003C00000700000000380
000F000000380000000F00
001C0000001C0000001C00
00700000000C0000003800
00E00000000C0000006000
01800001000E000001C000
03000001000E0000038000
06000003000E0000070000
0C000003001E00000E0000
18000006001E00001C0000
38000006003E0000380000
3000000C003C0000700000
6000001C007C0000F00000
6000003800F80001E00000
E000007801F80003C00000
C00000F003F00007800000
C00001E007F0000F000000
C00003C00FE0001F000000
C00007C01FC0003E000000
C0000F803F80007C000000
E0003F007F000078000000
60007C00FE0000F8000000
7001F801FC0001F0000000
3C0FE003F80003E0000000
0FFF8007F00007E0000000
03FC000FE0001FC0000000
0000001FC0003F80000000
0000003F80007F80000000
0000007F0000FF00000000
0000007E0001FE00000000
000000FC0003FE00000000
000000F80007FC00000000
000001F0000FF800000000
000001F0003FF000000000
000001E00077F000000000
000001C000CFE000000000
000001C0039FC000000000
000000C00E3F8000000000
000000C0387F0000000000
00000060E07F0000000000
1E00003F00FE0000000000
3F00000001FC0000000000
7F80000003F80000000000
FF80000007F00000000000
FF8000001FC00000000000
FF8000003F800000000000
FF0000007F000000000000
C0000000FC000000000000
C0000003F8000000000000
6000000FE0000000000000
3000003F80000000000000
180000FE00000000000000
0F0007F800000000000000
03FFFFC000000000000000
007FF80000000000000000
ENDCHAR
STARTCHAR 005A
ENCODING 90
SWIDTH 607 0
DWIDTH 51 0
BBX 62 82 3 -23
BITMAP
000000001FFC0000
00000003FFFFC000
0000000FC001F000
0000007C00003C00
000001E000000E00
0000038000000380
00000F00000001C0
00001C00000000C0
0000380000000060
0000600000000070
0000C00000000030
0001800000400038
0003000000C00018
0006000000C00018
000C000000C0001C
000C000001C0001C
001800000180001C
003000000180001C
003000000380001C
006000000380001C
006000000700003C
006000000F00003C
004000000E00003C
00C000001E00007C
00C000003C000078
00C000003C000078
00C00000780000F8
00C00000F00000F0
00C00001F00001F0
00C00003E00003E0
00600007C00003E0
0060001F800007C0
0030003E00000FC0
003800FC00000F80
001E07F000001F00
0007FFC000003E00
0001FC0000007E00
0000000000007C00
000000000000F800
000000000001F000
000000000003C000
0000000000078000
00000000000F0000
00000000001C0000
0000000000380000
000000F800E01000
000003FE01803000
000007018300E000
000006004C01C000
000007FFF0038000
000001FC380E0000
00000000383C0000
0000000038F00000
000000003F800000
00000001FE000000
0000001FF8000000
000001FE38000000
00000FE078000000
00007E0078000000
0003F80070000000
000FC000F0000000
003F0001F0000000
00FC0001E0000000
01F00003E0000000
03C00007C0000000
0F800007C0000000
1E00000F80000000
1C00001F00000000
3800003F00000000
7000007E00000000
700000FC00000000
600001F800000000
E00003F000000000
C0000FE000000000
C0001FC000000000
C0003F0000000000
C000FE0000000000
C001F80000000000
6007E00000000000
783F800000000000
3FFE000000000000
0FE0000000000000
ENDCHAR
STARTCHAR 005B
ENCODING 91
SWIDTH 440 0
DWIDTH 37 0
BBX 59 64 4 -6
BITMAP
000000000003FFE0
000000000007FFE0
00000000000FC000
00000000001F8000
00000000003F0000
00000000003F0000
00000000007E0000
0000000000FC0000
0000000001F80000
0000000001F80000
0000000003F00000
0000000007E00000
0000000007C00000
000000000FC00000
000000001F800000
000000003F000000
000000003E000000
000000007E000000
00000000FC000000
00000001F8000000
00000001F0000000
00000003F0000000
00000007E0000000
0000000FC0000000
0000000FC0000000
0000001F80000000
0000003F00000000
0000003E00000000
0000007E00000000
000000FC00000000
000001F800000000
000001F000000000
000003F000000000
000007E000000000
00000FC000000000
00000F8000000000
00001F8000000000
00003F0000000000
00007E0000000000
00007C0000000000
0000FC0000000000
0001F80000000000
0001F00000000000
0003E00000000000
0007E00000000000
000FC00000000000
000F800000000000
001F000000000000
003F000000000000
007E000000000000
007C000000000000
00FC000000000000
01F8000000000000
03F0000000000000
03E0000000000000
07E0000000000000
0FC0000000000000
0F80000000000000
1F00000000000000
3F00000000000000
7E00000000000000
7C00000000000000
FFFC000000000000
FFFC000000000000
ENDCHAR
STARTCHAR 005C
ENCODING 92
SWIDTH 500 0
DWIDTH 42 0
BBX 18 67 21 -8
BITMAP
E00000
E00000
E00000
600000
700000
700000
700000
300000
380000
380000
380000
380000
180000
1C0000
1C0000
1C0000
0C0000
0E0000
0E0000
0E0000
060000
070000
070000
070000
070000
030000
038000
038000
038000
018000
01C000
01C000
01C000
00C000
00E000
00E000
00E000
00E000
006000
007000
007000
007000
003000
003800
003800
003800
001800
001C00
001C00
001C00
001C00
000C00
000E00
000E00
000E00
000600
000700
000700
000700
000300
000380
000380
000380
000380
000180
0001C0
0001C0
ENDCHAR
STARTCHAR 005D
ENCODING 93
SWIDTH 440 0
DWIDTH 37 0
BBX 59 64 -4 -6
BITMAP
000000000007FFE0
000000000007FFE0
00000000000007C0
0000000000000FC0
0000000000001F80
0000000000001F00
0000000000003F00
0000000000007E00
000000000000FC00
000000000000F800
000000000001F800
000000000003F000
000000000003E000
000000000007C000
00000000000FC000
00000000001F8000
00000000001F0000
00000000003E0000
00000000007E0000
0000000000FC0000
0000000000F80000
0000000001F80000
0000000003F00000
0000000007E00000
0000000007C00000
000000000FC00000
000000001F800000
000000003F000000
000000003E000000
000000007E000000
00000000FC000000
00000000F8000000
00000001F0000000
00000003F0000000
00000007E0000000
00000007C0000000
0000000FC0000000
0000001F80000000
0000003F00000000
0000003E00000000
0000007E00000000
000000FC00000000
000001F800000000
000001F000000000
000003F000000000
000007E000000000
00000FC000000000
00000F8000000000
00001F8000000000
00003F0000000000
00007E0000000000
00007E0000000000
0000FC0000000000
0001F80000000000
0001F00000000000
0003F00000000000
0007E00000000000
000FC00000000000
000F800000000000
001F800000000000
003F000000000000
007E000000000000
FFFC000000000000
FFF8000000000000
ENDCHAR
STARTCHAR 005E
ENCODING 94
SWIDTH 1000 0
DWIDTH 84 0
BBX 49 23 17 36
BITMAP
000007F0000000
00000FF8000000
00001FFC000000
00003FFE000000
00007F7F000000
0000FE3F800000
0001FC1FC00000
0003F80FE00000
0007E003F00000
000FC001F80000
000F8000F80000
001F00007C0000
003E00003E0000
007C00001F0000
00F800000F8000
01E0000007C000
03C0000001E000
0780000000F000
0F000000007800
1E000000003C00
3C000000001E00
78000000000F00
E0000000000780
ENDCHAR
STARTCHAR 005F
ENCODING 95
SWIDTH 500 0
DWIDTH 42 0
BBX 41 3 0 -19
BITMAP
FFFFFFFFFF80
FFFFFFFFFF80
FFFFFFFFFF80
ENDCHAR
STARTCHAR 0060
ENCODING 96
SWIDTH 500 0
DWIDTH 42 0
BBX 9 14 25 24
BITMAP
7000
F800
F800
F800
F800
7800
7800
3800
3C00
1C00
0E00
0700
0380
0180
ENDCHAR
STARTCHAR 0061
ENCODING 97
SWIDTH 380 0
DWIDTH 32 0
BBX 36 21 -1 0
BITMAP
00007C3E00
0003FE7E00
000FE3FC00
003F83F800
00FE07F000
01FC07E000
07F80F8000
0FE01F0000
1FC03E0010
1F807C0030
3F00F800E0
7E01F001C0
7E03F00300
FC07E00E00
F80FC01C00
F81F807000
F03F80E000
F0EF038000
F18F1F0000
7F07FC0000
3C03E00000
ENDCHAR
STARTCHAR 0062
ENCODING 98
SWIDTH 404 0
DWIDTH 34 0
BBX 40 49 2 0
BITMAP
000000000F
000000001F
000000003E
000000007C
00000000FC
00000001F8
00000003F0
00000003E0
00000007C0
0000000F80
0000001F00
0000003F00
0000007E00
000000FC00
000000F800
000001F000
000003E000
000007E000
00000FC000
00001F8000
00003F0000
00003E0000
00007C0000
0000F80000
0001F80000
0003F00000
0007E00000
000FC00000
001F80F000
003F01F800
007E039800
00FE071800
01FC0E3800
03F80C3000
06F00C6000
0DE0186000
1BC018C000
37C0198000
77801B0060
EF001E03C0
DF001FFF00
9E001FF800
1E00300000
3C00E00000
3C03800000
3C0F000000
3EFC000000
1FF0000000
0F80000000
ENDCHAR
STARTCHAR 0063
ENCODING 99
SWIDTH 285 0
DWIDTH 24 0
BBX 27 19 1 1
BITMAP
0007F000
0038F800
00E1F800
01C1F800
0781F000
0F00E000
1E000000
3E000060
7C0000C0
78000380
F8000700
F0000E00
F0001800
F0007000
F001E000
F8078000
7C3E0000
3FF80000
1FC00000
ENDCHAR
STARTCHAR 0064
ENCODING 100
SWIDTH 369 0
DWIDTH 31 0
BBX 53 49 -1 0
BITMAP
00000000000078
000000000000F8
000000000001F0
000000000003E0
000000000007C0
00000000000FC0
00000000000F80
00000000001F00
00000000003E00
00000000007C00
0000000000F800
0000000001F000
0000000001F000
0000000003E000
0000000007C000
000000000F8000
000000001F0000
000000003E0000
000000003C0000
000000007C0000
00000000F80000
00000001F00000
00000003E00000
00000003C00000
00000007800000
0000000F000000
0000001F000000
0000003E000000
00007C7C000000
0003FE78000000
000FE3F0000000
003F83E0000000
00FE07C0000000
01FC07C0000000
07F80F80000000
0FE01F00000000
1FC03E00100000
1F807C00300000
3F00F800E00000
7E01F001C00000
7E03F003000000
FC07E00E000000
F80FC01C000000
F81F8070000000
F03F00E0000000
F0EF0380000000
F18F1F00000000
7F07FC00000000
3C03E000000000
ENDCHAR
STARTCHAR 0065
ENCODING 101
SWIDTH 273 0
DWIDTH 23 0
BBX 26 21 1 0
BITMAP
0003E000
001FF000
007E3000
00F83000
03F03000
07E06000
0FC0C000
1F818000
3F030040
3E0E00C0
7C780180
7FE00700
FF800E00
F8001C00
F0003000
F000E000
F003C000
70070000
783C0000
3FF00000
0F800000
ENDCHAR
STARTCHAR 0066
ENCODING 102
SWIDTH 250 0
DWIDTH 21 0
BBX 71 78 -18 -23
BITMAP
00000000000000003C
0000000000000001FE
0000000000000003EE
000000000000000F86
000000000000001E06
000000000000003C04
00000000000000780C
00000000000000F018
00000000000001E030
00000000000003C030
000000000000078060
0000000000000F01C0
0000000000001E0380
0000000000003C0700
000000000000780E00
000000000000F01800
000000000001F03000
000000000003E0E000
000000000007C1C000
000000000007838000
00000000000F0E0000
00000000001F1C0000
00000000003E780000
00000000007CE00000
00000000007BC00000
0000000000FF000000
0000000001FE000000
0000000003FC000000
0000000007F0000000
0000000007E0000000
000000000F80000000
000000001F00000000
000000003E00000000
000000003E00000000
000000007C00000000
00000000F800000000
00000001F000000000
00000003E000000000
00000007E000000000
0000001FC000000000
0000003F8000000000
0000006F0000000000
000000DF0000000000
000003BE0000000000
0000073C0020000000
00000E780060000000
00001CF801C0000000
000010F00380000000
000001E00E00000000
000003C03C00000000
00000381F000000000
00003FFFC000000000
00003FFE0000000000
00003FF00000000000
00007C000000000000
0000F8000000000000
0001F0000000000000
0001F0000000000000
0003E0000000000000
0007C0000000000000
000F80000000000000
000F80000000000000
001F00000000000000
003E00000000000000
007C00000000000000
007C00000000000000
00F800000000000000
01F000000000000000
03E000000000000000
07E000000000000000
07C000000000000000
0F8000000000000000
1F0000000000000000
3F0000000000000000
3E0000000000000000
7C0000000000000000
F80000000000000000
F00000000000000000
ENDCHAR
STARTCHAR 0067
ENCODING 103
SWIDTH 380 0
DWIDTH 32 0
BBX 51 44 -16 -23
BITMAP
00000000F87C00
00000007FCFC00
0000001FC5F800
0000007F07F000
000001FC0FE000
000003F80FC000
000007F01F0000
00000FC03E0000
00001F807C0000
00003F00F80060
00007E01F800C0
0000FE03F00380
0000FC07E00700
0000F80FC00E00
0001F01F803800
0001F03F007000
0001E07E01C000
0001E0FC078000
0001E3FC1E0000
0000FFF8F80000
000079FFC00000
000003FE000000
00000FE0000000
00003FC0000000
0000FF80000000
0003DF00000000
000F1F00000000
003C3E00000000
00707C00000000
00C0F800000000
0381F000000000
0701E000000000
0C03C000000000
1807C000000000
300F8000000000
300F0000000000
601E0000000000
403C0000000000
C0780000000000
C0E00000000000
C1C00000000000
C3800000000000
FF000000000000
7C000000000000
ENDCHAR
STARTCHAR 0068
ENCODING 104
SWIDTH 392 0
DWIDTH 33 0
BBX 46 49 -4 0
BITMAP
00000000003C
00000000007C
0000000000FC
0000000001F8
0000000001F0
0000000003E0
0000000007C0
000000000F80
000000001F00
000000003E00
000000007E00
000000007C00
00000000F800
00000001F000
00000003E000
00000007C000
0000000F8000
0000001F8000
0000003F0000
0000003E0000
0000007C0000
000000F80000
000001F00000
000003E00000
000007C00000
00000FC00000
00001F800000
00001F000000
00007E0F0000
0000FC7F8000
0003F9EF8000
0007F3878000
000DEE0F8000
003BFC1F0000
0077F07E0000
00EFE0FC0000
019FC1F80100
033F83F00300
067E07E00600
007C0FC00C00
00F81F803800
01F03F007000
03E03E01C000
07C07C038000
0F80780F0000
1F00703C0000
3F0071F00000
7E003FC00000
FC001F000000
ENDCHAR
STARTCHAR 0069
ENCODING 105
SWIDTH 250 0
DWIDTH 21 0
BBX 30 34 1 0
BITMAP
00000078
000000FC
000000FC
000000FC
00000078
00000000
00000000
00000000
00000000
00000000
00000000
00000000
00000000
0003F000
000FE000
003FC000
007F8000
01FF0000
03FE0000
0FFC0000
1DF80000
33F00000
E7E00600
CFC00C00
1F801800
3F007000
3E00E000
7C018000
78070000
F80E0000
F0380000
F0E00000
7F800000
3E000000
ENDCHAR
STARTCHAR 006A
ENCODING 106
SWIDTH 214 0
DWIDTH 18 0
BBX 51 57 -22 -23
BITMAP
000000000003C0
000000000007E0
000000000007E0
000000000007E0
000000000003C0
00000000000000
00000000000000
00000000000000
00000000000000
00000000000000
00000000000000
00000000000000
00000000000000
000000000F8000
000000003FC000
000000007F8000
00000001FF0000
00000003FE0000
0000000EFC0000
0000001DF80000
00000039F80000
00000063F00000
000000C7E03000
00000187C06000
0000000F80C000
0000001F818000
0000001F070000
0000003E0E0000
0000007E380000
0000007CE00000
000000FF800000
000000FE000000
000001F8000000
000007F0000000
00001FE0000000
00007FC0000000
0001E7C0000000
00078F80000000
000E0F80000000
003C1F00000000
00703E00000000
01E03E00000000
03807C00000000
07007800000000
0E00F000000000
1C01F000000000
3801E000000000
3003C000000000
70078000000000
600F8000000000
E00F0000000000
C01E0000000000
C03C0000000000
C0F00000000000
E1E00000000000
7FC00000000000
3E000000000000
ENDCHAR
STARTCHAR 006B
ENCODING 107
SWIDTH 416 0
DWIDTH 35 0
BBX 44 49 -1 0
BITMAP
0000000000F0
0000000001F0
0000000001F0
0000000003E0
0000000007C0
000000000F80
000000001F00
000000003E00
000000003E00
000000007C00
00000000F800
00000001F000
00000003E000
00000007C000
0000000FC000
0000000F8000
0000001F0000
0000003E0000
0000007C0000
000000F80000
000001F00000
000001F00000
000003E00000
000007C00000
00000F800000
00001F000000
00007E000000
0000FE000000
0001FC7C0000
0003F9FE0000
000FF7CE0000
001BEF1E0000
0037DC3E0000
006FF03C0000
018FE0180000
031F78000000
063E3C000000
0C7C3C000000
18F83C000400
31F03E000C00
03E03C003800
07C07C00E000
0780F801C000
0F80F0070000
1F01F01E0000
3E01E0780000
7C01E3E00000
F800FF800000
F8007C000000
ENDCHAR
STARTCHAR 006C
ENCODING 108
SWIDTH 297 0
DWIDTH 25 0
BBX 42 49 1 0
BITMAP
0000000003C0
0000000007C0
000000000F80
000000001F00
000000003E00
000000007C00
00000000FC00
00000001F800
00000003F000
00000003E000
00000007C000
0000000F8000
0000001F0000
0000003E0000
0000007E0000
000000FC0000
000001F80000
000003F00000
000007E00000
000007C00000
00000F800000
00001F800000
00003F000000
00007E000000
0000FC000000
0001F8000000
0003F0000000
0007E0000000
000FC0000000
001FC0000000
007F80000000
00FF00000000
01FE00000000
037C00000000
0EF800000000
18F000000000
31F000200000
63E000600000
C3C000C00000
038001800000
078007000000
07000E000000
0F0018000000
0E0070000000
0E01E0000000
0E0380000000
0E1E00000000
07F800000000
03E000000000
ENDCHAR
STARTCHAR 006D
ENCODING 109
SWIDTH 595 0
DWIDTH 50 0
BBX 54 21 -2 0
BITMAP
0000F007803C00
0003F01F80FE00
000FF87F83FE00
001879C38E1E00
0070F307B83E00
00E1FE0FF07C00
0183F81FE0F800
0307F03F83F800
060FE07F07F000
0C1FC0FE0FE00C
003F01FC1FC01C
007E03F03F0030
00FC07E07E0060
01F80FC07C01C0
03F01F80F80380
07E03F00F00E00
0FC07E01E03C00
1F80FC01E0F000
3F01F801E3C000
7E03F000FF0000
FC07E0007C0000
ENDCHAR
STARTCHAR 006E
ENCODING 110
SWIDTH 428 0
DWIDTH 36 0
BBX 40 21 -1 0
BITMAP
0001E00F00
0007F07F80
001EF0FF80
0038F38780
0061F60F80
01C3FC1F00
0383F03E00
0607E0FE00
0C0FC1FC00
183F83F803
007E07F006
00FC0FC00C
01F81F8038
03F01F0070
07E03E00E0
0FC03C0380
1F80780F00
3F00783C00
7E0078F000
FC003FC000
F8001F0000
ENDCHAR
STARTCHAR 006F
ENCODING 111
SWIDTH 321 0
DWIDTH 27 0
BBX 32 21 -1 0
BITMAP
00007E00
0003FF00
000FF380
001FC180
007F0180
00FE0180
03F80380
07F00700
0FE00700
1FC00E00
3F801E07
3F003FFE
7E007FF0
7C01F000
FC03E000
F8078000
F01F0000
F03C0000
F0F00000
7FC00000
3F000000
ENDCHAR
STARTCHAR 0070
ENCODING 112
SWIDTH 404 0
DWIDTH 34 0
BBX 56 52 -20 -22
BITMAP
00000000003800
00000000007800
0000000000F000
0000000001E000
0000000007C000
000000000F8000
000000001F0000
000000003F0000
000000007E0F00
00000000FC7F80
00000001F8FF80
00000007FB8780
0000000FF70F80
0000001BFC1F00
00000077F83E00
000000EFE0FE00
0000019FC1FC00
0000033F83F803
0000003F07F006
0000007E0FE00C
000000FC1F8018
000001F81F0070
000003F03E00E0
000003E03C0380
000007C0780700
00000F80781C00
00001F0078F000
00003E003FC000
00007C001F0000
00007C00000000
0000F800000000
0001F000000000
0003E000000000
0007E000000000
0007C000000000
000F8000000000
001F0000000000
003F0000000000
007E0000000000
007C0000000000
00F80000000000
01F00000000000
03F00000000000
07E00000000000
07C00000000000
0F800000000000
1F800000000000
3F000000000000
3E000000000000
7C000000000000
F8000000000000
F8000000000000
ENDCHAR
STARTCHAR 0071
ENCODING 113
SWIDTH 380 0
DWIDTH 32 0
BBX 42 44 -7 -23
BITMAP
000001F0F800
00000FF9F800
00003F8BF000
0000FE0FE000
0003F81FC000
0007F01F8000
001FE03E0000
003F807C0000
007F00F80000
007E01F800C0
00FC03F00180
01F807E00700
01F80FC00E00
03F01F801800
03E03F007000
03E07E00E000
03C0FE038000
03C1FC0F0000
03C7FC3C0000
01FDFFF00000
00F3FFC00000
0007D0000000
000F90000000
001F30000000
003E30000000
007C30000000
00F860000000
01F060000000
03F0C0000000
03E0C0000000
07C180000000
0F8380000000
1F0300000000
1E0600000000
3C0E00000000
781C00000000
783800000000
707000000000
E0E000000000
C1C000000000
C38000000000
C70000000000
FE0000000000
780000000000
ENDCHAR
STARTCHAR 0072
ENCODING 114
SWIDTH 357 0
DWIDTH 30 0
BBX 31 21 2 0
BITMAP
000E0700
003F0F80
00FF1F00
01EF3E00
078F7E00
0E0EFC00
1C1EF800
301FB800
603F7802
C07E7006
80FC700C
01F87018
01F07030
03E078E0
07C03F80
0F801F00
1F000000
3F000000
7E000000
FC000000
F8000000
ENDCHAR
STARTCHAR 0073
ENCODING 115
SWIDTH 285 0
DWIDTH 24 0
BBX 27 26 -1 0
BITMAP
0000C000
0000C000
0001C000
0001C000
0001C000
0001C000
0007C000
000FC000
003BC000
0063C000
01C3C000
0303C000
0603C000
0C03C000
1803C060
0007C0C0
0007C180
00078300
00078600
700F1800
F80F3000
F81EC000
F03F8000
C07E0000
7FF00000
1F800000
ENDCHAR
STARTCHAR 0074
ENCODING 116
SWIDTH 285 0
DWIDTH 24 0
BBX 31 36 1 1
BITMAP
0000003E
0000007E
000000FC
000000F8
000001F0
000003F0
000007E0
00000FC0
00000F80
00001F00
001FFFFE
00007C00
0000F800
0001F800
0003F000
0007E000
001FC000
003F8000
007F0000
01FE0000
037C0000
06F80000
1DF80000
39F00020
63E00060
C7C000C0
07800180
0F800700
0F000C00
1F003800
1E007000
1E01C000
1E078000
1F1E0000
0FF80000
07C00000
ENDCHAR
STARTCHAR 0075
ENCODING 117
SWIDTH 440 0
DWIDTH 37 0
BBX 38 21 1 0
BITMAP
0007E003C0
001FE007C0
003FC01F80
00FF003F00
01FE007E00
03FC00FC00
0FF801F800
1DF003F000
33E007E000
E7C00FC00C
CF801F0018
1F003F0030
3E007E0060
3E01FC01C0
7C03F80380
7807F00E00
F80FF01C00
F039E07000
F0E1E3E000
7F80FF8000
3E007C0000
ENDCHAR
STARTCHAR 0076
ENCODING 118
SWIDTH 416 0
DWIDTH 35 0
BBX 37 21 2 0
BITMAP
0007803C00
001FC0FE00
0073C1F600
01C3C1C600
0387C38C00
060F871800
1C1F861000
383F062000
607E064000
C0FC068038
01F80700F0
03F00703E0
07E00FFF80
0FC01FFC00
0F807C0000
1F00F80000
1E03E00000
1E07800000
1E3F000000
0FF8000000
07E0000000
ENDCHAR
STARTCHAR 0077
ENCODING 119
SWIDTH 607 0
DWIDTH 51 0
BBX 53 21 1 0
BITMAP
0003F001F01C00
000FE003E07E00
003FC007C0E600
007F800F81C600
01FF001F018C00
03FE003E031C00
07FC007C031800
1DF000F8033000
3BE001F0036000
67C003E003C038
CF800FC0038070
1F001FC00381E0
3E003F8007FF80
3E00EF001FFE00
7C01DF003E0000
78071E00780000
F80E1E01F00000
F0381E07C00000
F1F01E1F000000
7FC00FFC000000
3E0007E0000000
ENDCHAR
STARTCHAR 0078
ENCODING 120
SWIDTH 369 0
DWIDTH 31 0
BBX 38 21 -3 0
BITMAP
00007803C0
0001FC0FE0
0003FC3FE0
000E3C73E0
00183CC3C0
00303F0000
00607E0000
01C0F80000
0380F00004
0601E0000C
0003C00018
0007C00070
00078000E0
000F0003C0
001F000700
302E001E00
784E007800
F98E01F000
FB0E07C000
FE07FE0000
7803F00000
ENDCHAR
STARTCHAR 0079
ENCODING 121
SWIDTH 464 0
DWIDTH 39 0
BBX 51 44 -9 -23
BITMAP
000000F0001C00
000003F8007C00
000007F800F800
00001C7801F000
000030F803E000
000061F00FC000
0000C7E01F8000
00018FC03F0000
00031F807E0020
00063F00FC0060
00007E01F800C0
0000FC07F00180
0001F80FE00700
0003F01FC00E00
0003E03F801800
0007C07F007000
000781FF01C000
000703FE078000
00070FFC1E0000
0003FEF8F80000
0001F0FFC00000
000003FC000000
00000FE0000000
00003FC0000000
0000F7C0000000
0003CF80000000
000F1F00000000
003C1E00000000
00703C00000000
01E07800000000
0380F000000000
0700F000000000
0E01E000000000
1C03C000000000
38078000000000
300F0000000000
601E0000000000
603C0000000000
C0380000000000
C0F00000000000
C1C00000000000
E3800000000000
7F000000000000
3C000000000000
ENDCHAR
STARTCHAR 007A
ENCODING 122
SWIDTH 333 0
DWIDTH 28 0
BBX 50 45 -19 -24
BITMAP
000000001F0000
00000000FF8000
00000003FF8000
0000000F0F8000
0000001C0F8000
000000701F8000
000000E01F0000
000003803F0000
000007007E0040
00000600FC00C0
00000001F80180
00000003F00300
00000007E00E00
0000000FC01C00
0000003F803800
00000FFE00E000
000011FC03C000
000020F00F0000
000021E03C0000
00003FE0F00000
00001FE7C00000
000001FF000000
000003F8000000
00000FC0000000
00003FC0000000
0000E7C0000000
00038F80000000
000F1F80000000
001C3F00000000
00703E00000000
00E07E00000000
0180FC00000000
0701F800000000
0E03F000000000
1C07E000000000
1807C000000000
300F8000000000
601F0000000000
603E0000000000
C07C0000000000
C0F00000000000
C1E00000000000
C7C00000000000
7F000000000000
38000000000000
ENDCHAR
STARTCHAR 007B
ENCODING 123
SWIDTH 500 0
DWIDTH 42 0
BBX 27 71 8 -10
BITMAP
000007E0
00007FE0
0001F800
0003E000
0007C000
000F8000
000F8000
000F0000
001F0000
001F0000
001F0000
001F0000
001F0000
001F0000
001F0000
001F0000
001F0000
001F0000
001F0000
001F0000
001F0000
001F0000
001F0000
001F0000
001F0000
001F0000
001E0000
001E0000
003E0000
003C0000
00780000
00F00000
01E00000
1F800000
FC000000
FC000000
0F800000
01E00000
00700000
00780000
003C0000
003E0000
001E0000
001E0000
001F0000
001F0000
001F0000
001F0000
001F0000
001F0000
001F0000
001F0000
001F0000
001F0000
001F0000
001F0000
001F0000
001F0000
001F0000
001F0000
001F0000
001F0000
000F0000
000F8000
000F8000
00078000
0007C000
0003E000
0001FC00
00007FE0
000007E0
ENDCHAR
STARTCHAR 007C
ENCODING 124
SWIDTH 500 0
DWIDTH 42 0
BBX 4 83 19 -20
BITMAP
F0
F0
F0
F0
F0
F0
F0
F0
F0
F0
F0
F0
F0
F0
F0
F0
F0
F0
F0
F0
F0
F0
F0
F0
F0
F0
F0
F0
F0
F0
F0
F0
F0
F0
F0
F0
F0
F0
F0
F0
F0
F0
F0
F0
F0
F0
F0
F0
F0
F0
F0
F0
F0
F0
F0
F0
F0
F0
F0
F0
F0
F0
F0
F0
F0
F0
F0
F0
F0
F0
F0
F0
F0
F0
F0
F0
F0
F0
F0
F0
F0
F0
F0
ENDCHAR
STARTCHAR 007D
ENCODING 125
SWIDTH 500 0
DWIDTH 42 0
BBX 27 71 7 -10
BITMAP
FE000000
FFC00000
07F00000
00F80000
007C0000
003E0000
003E0000
001E0000
001F0000
001F0000
001F0000
001F0000
001F0000
001F0000
001F0000
001F0000
001F0000
001F0000
001F0000
001F0000
001F0000
001F0000
001F0000
001F0000
001F0000
000F0000
000F0000
000F0000
000F8000
00078000
0003C000
0003E000
0000F800
00003F00
000007E0
000007E0
00003E00
0000F000
0001C000
0003C000
00078000
00078000
000F0000
000F0000
000F0000
001F0000
001F0000
001F0000
001F0000
001F0000
001F0000
001F0000
001F0000
001F0000
001F0000
001F0000
001F0000
001F0000
001F0000
001F0000
001F0000
001F0000
001E0000
001E0000
003E0000
003C0000
007C0000
00F80000
03F00000
FFC00000
FC000000
ENDCHAR
STARTCHAR 007E
ENCODING 126
SWIDTH 833 0
DWIDTH 70 0
BBX 54 9 7 20
BITMAP
001FF00000000C
00FFFE0000001C
03FFFFC000007C
0FF00FF80001F8
1F8001FE0007E0
7E00003FE03FC0
F800000FFFFF00
E0000001FFFC00
C00000003FE000
ENDCHAR
STARTCHAR 00A1
ENCODING 161
SWIDTH 380 0
DWIDTH 32 0
BBX 43 53 3 0
BITMAP
0000000003C0
0000000007E0
000000000FE0
000000000FE0
000000000FC0
000000000780
000000000000
000000000000
000000000000
000000000000
000000000000
000000000000
00000000C000
00000001C000
000000038000
000000030000
000000060000
0000000E0000
0000001C0000
000000380000
000000700000
000000F00000
000000E00000
000001C00000
000003C00000
000007800000
00000F000000
00001E000000
00003E000000
00003C000000
000078000000
0000F0000000
0001F0000000
0003E0000000
0007C0000000
000F80000000
000F80000000
001F00000000
003E00000000
007E00000000
00FC00000000
01F800000000
01F000000000
03F000000000
07E000000000
0FC000000000
1F8000000000
3F8000000000
7F0000000000
7E0000000000
FC0000000000
FC0000000000
780000000000
ENDCHAR
STARTCHAR 00A2
ENCODING 162
SWIDTH 357 0
DWIDTH 30 0
BBX 28 36 -2 -7
BITMAP
00000030
00000030
00000060
00000060
000000C0
000001C0
00003FC0
0003FFE0
000FE7F0
003F8DF0
007E09F0
00FC11F0
01F831F0
03F061E0
07E04000
0FC08000
0FC18000
0F830000
1F820000
1F060000
1F0C0000
1E180000
1E100000
1E300180
0E600F00
0FC07C00
07FFF000
03FF0000
07000000
06000000
0C000000
18000000
38000000
70000000
E0000000
40000000
ENDCHAR
STARTCHAR 00A3
ENCODING 163
SWIDTH 511 0
DWIDTH 43 0
BBX 66 44 -11 0
BITMAP
00000000000000FC00
00000000000007FF00
0000000000001F0380
0000000000003C0180
0000000000007800C0
000000000001F000C0
000000000003E000C0
000000000007C000C0
00000000000F8000C0
00000000000F000180
00000000001E000380
00000000003C000300
00000000007C000600
0000000000F8000000
0000000000F0000000
0000000001F0000000
0000000003E0000000
0000000007E0000000
0000000007C0000000
000000000F80000000
000000001F80000000
000000001F00000000
000000003F00000000
000000007E00000000
00001FFFFFFFE00000
00001FFFFFFFE00000
00000001F800000000
00000001F800000000
00000003F000000000
00000003F000000000
00000007E000000000
0000000FC000000000
0000000FC000000000
0000001F8000000000
0000003F0000000000
0000003F0000000000
0000007E0000000000
1F8000FC0006000000
7FF001F8000C000000
E0FC01F00038000000
C00F03E001E0000000
F003C7800F80000000
7FFCFF3FFE00000000
0FFFFFFFE000000000
ENDCHAR
STARTCHAR 00A4
ENCODING 164
SWIDTH 416 0
DWIDTH 35 0
BBX 43 43 5 0
BITMAP
000000000F00
000000007FC0
00000001E060
0000000781E0
0000001E07E0
0000007C0FE0
000000F00FE0
000003E00FE0
000007C00FC0
00001F000780
00003E000000
00007C000000
0000F8000000
0001F0000000
0007E0000000
000FC0000000
001F80000000
07FFFFFC0000
0FFFFFFC0000
00FC00000000
01F800000000
01F000000000
03E000000000
FFFFFF000000
FFFFFF000000
0F8000000000
1F0000000000
1F0000000000
3E0000000000
3C0000000000
7C0000000000
780000000000
780000800000
F00001800000
F00007000000
E0000C000000
E00018000000
E00070000000
E001C0000000
E00380000000
701E00000000
3FF800000000
1FC000000000
ENDCHAR
STARTCHAR 00A5
ENCODING 165
SWIDTH 476 0
DWIDTH 40 0
BBX 45 42 7 0
BITMAP
001E00000078
001E000000E0
001E000001C0
000F00000780
000F00000F00
000F00001E00
000F00003800
000780007000
00078000E000
00078003C000
000780078000
0003800E0000
0003C01C0000
03FFC03FF800
03FFC07FF800
07FFC1FFF000
0001E3C00000
0001E7800000
0001EF000000
0001FC000000
0001F8000000
0000F0000000
7FFFFFFF0000
FFFFFFFE0000
0003C0000000
000780000000
000780000000
000F00000000
001E00000000
001E00000000
003C00000000
007800000000
007800000000
00F000000000
00E000000000
01E000000000
03C000000000
038000000000
078000000000
0F0000000000
0F0000000000
1E0000000000
ENDCHAR
STARTCHAR 00A6
ENCODING 166
SWIDTH 500 0
DWIDTH 42 0
BBX 4 72 19 -14
BITMAP
F0
F0
F0
F0
F0
F0
F0
F0
F0
F0
F0
F0
F0
F0
F0
F0
F0
F0
F0
F0
F0
F0
F0
F0
F0
F0
F0
F0
F0
F0
F0
00
00
00
00
00
00
00
00
00
00
F0
F0
F0
F0
F0
F0
F0
F0
F0
F0
F0
F0
F0
F0
F0
F0
F0
F0
F0
F0
F0
F0
F0
F0
F0
F0
F0
F0
F0
F0
F0
ENDCHAR
STARTCHAR 00A7
ENCODING 167
SWIDTH 488 0
DWIDTH 41 0
BBX 50 64 6 -5
BITMAP
000000000FF800
000000007FFF00
00000001FFFF80
00000003C01FC0
00000007000780
0000000E000000
0000001E000000
0000003C000000
0000003C000000
0000007C000000
0000007C000000
0000007C000000
0000007E000000
0000007E000000
0000007E000000
0000007F000000
0000007F000000
000000FF800000
000003FF800000
00000FFFC00000
00003E0FC00000
0000700FE00000
0000E007E00000
0001C007F00000
00038007F00000
00030003F80000
00070003F80000
00070001F80000
000F0001FC0000
000F0000FC0000
000F0000FC0000
000F80007C0000
000F80007C0000
000FC0003C0000
000FE0003C0000
0007E0003C0000
0007F000380000
0007F000380000
0003F800380000
0003FC00700000
0001FC00600000
0000FE00E00000
0000FE03800000
00007F0F000000
00007FFE000000
00003FF8000000
00003FC0000000
00001FC0000000
00001FC0000000
00000FC0000000
00000FC0000000
00000FC0000000
000007C0000000
000007C0000000
00000780000000
00000780000000
00000700000000
00000F00000000
F0000E00000000
FC003C00000000
FF80F800000000
7FFFE000000000
3FFF8000000000
03F80000000000
ENDCHAR
STARTCHAR 00A8
ENCODING 168
SWIDTH 500 0
DWIDTH 42 0
BBX 19 6 22 27
BITMAP
3801C0
7C03E0
FC07E0
FC07E0
F807C0
700380
ENDCHAR
STARTCHAR 00A9
ENCODING 169
SWIDTH 821 0
DWIDTH 69 0
BBX 56 55 6 0
BITMAP
000001FF800000
00001FFFF80000
0000FFFFFF0000
0003FC007FC000
0007E00007E000
001F800001F800
003E0000007C00
00780000001E00
00F00000000F00
01E00000000780
03C000F80103C0
078007FF0301E0
07001F03C300F0
0E003C007F0070
1E00F8003F0078
1C01F0001F0038
3C01E0000F003C
3803E0000F001C
3807C00007001E
7007C00007000E
700FC00003000E
700FC00003000E
700F800003000F
E00F8000000007
E01F8000000007
E01F8000000007
E01F8000000007
E01F8000000007
E01F8000000007
E01F8000000007
E01F8000000007
E01F8000000007
F00F8000000007
700FC00000000E
700FC00000000E
7007C00000000E
3807C00001001C
3803E00003001C
3C03E00002003C
1C01F000040038
1E00F800080078
0E007C00300070
07003F80E000E0
07800FFFC001E0
03C003FE0003C0
01E00000000780
00F00000000F00
00780000001E00
003E0000007C00
001F800001F800
0007E00007E000
0003FC003FC000
0000FFFFFF0000
00001FFFF80000
000001FF800000
ENDCHAR
STARTCHAR 00AA
ENCODING 170
SWIDTH 285 0
DWIDTH 24 0
BBX 27 14 -1 45
BITMAP
000FFE00
007FFE00
01F1F800
07E3F000
0F87E020
1F0FC060
3E0F80C0
7C1F0100
783E0600
F07C0C00
F0F83000
E1706000
E6738000
783E0000
ENDCHAR
STARTCHAR 00AB
ENCODING 171
SWIDTH 380 0
DWIDTH 32 0
BBX 22 20 7 0
BITMAP
00180C
00381C
007038
01C0F0
0381C0
070380
1E0F00
3C1E00
783C00
F07800
707800
703800
303800
383800
181800
181800
0C1800
0C1800
0C0800
040800
ENDCHAR
STARTCHAR 00AC
ENCODING 172
SWIDTH 833 0
DWIDTH 70 0
BBX 48 20 10 14
BITMAP
FFFFFFFFFFFF
FFFFFFFFFFFF
FFFFFFFFFFFF
000000000007
000000000007
000000000007
000000000007
000000000007
000000000007
000000000007
000000000007
000000000007
000000000007
000000000007
000000000007
000000000007
000000000007
000000000007
000000000007
000000000007
ENDCHAR
STARTCHAR 00AE
ENCODING 174
SWIDTH 821 0
DWIDTH 69 0
BBX 56 55 6 0
BITMAP
000001FF800000
00001FFFF80000
0000FFFFFF0000
0003FC007FC000
0007E00007E000
001F800001F800
003E0000007C00
00780000001E00
00F00000000F00
01E00000000780
03C000000003C0
0787FFFF8001E0
0701FF03F800F0
0E007E007C0070
1E003C003E0078
1C003C001F0038
3C003C000F803C
38003C000F801C
38003C000F801E
70003C000F800E
70003C000F800E
70003C000F000E
70003C001F000F
E0003C003E0007
E0003C00780007
E0003C03E00007
E0003FFF000007
E0003C0F800007
E0003C00E00007
E0003C00700007
E0003C00380007
E0003C001C0007
F0003C001E0007
70003C001E000E
70003C000F000E
70003C000F000E
38003C000F081C
38003C000F081C
3C003C000F083C
1C003E000F1838
1E00FF000F1878
0E07FFF807F070
0707FFF803E0E0
078000000001E0
03C000000003C0
01E00000000780
00F00000000F00
00780000001E00
003E0000007C00
001F800001F800
0007E00007E000
0003FC003FC000
0000FFFFFF0000
00001FFFF80000
000001FF800000
ENDCHAR
STARTCHAR 00AF
ENCODING 175
SWIDTH 500 0
DWIDTH 42 0
BBX 20 4 21 28
BITMAP
7FFFF0
FFFFF0
FFFFF0
FFFFE0
ENDCHAR
STARTCHAR 00B0
ENCODING 176
SWIDTH 333 0
DWIDTH 28 0
BBX 21 22 3 36
BITMAP
01FC00
07FF00
0F0780
1C01C0
3800E0
700070
600030
E00038
C00018
C00018
C00018
C00018
C00018
C00018
E00038
600030
700070
3800E0
1C01C0
0F0780
07FF00
01FC00
ENDCHAR
STARTCHAR 00B1
ENCODING 177
SWIDTH 833 0
DWIDTH 70 0
BBX 47 44 11 3
BITMAP
000003800000
000003800000
000003800000
000003800000
000003800000
000003800000
000003800000
000003800000
000003800000
000003800000
000003800000
000003800000
000003800000
000003800000
FFFFFFFFFFFE
FFFFFFFFFFFE
FFFFFFFFFFFE
000003800000
000003800000
000003800000
000003800000
000003800000
000003800000
000003800000
000003800000
000003800000
000003800000
000003800000
000003800000
000003800000
000003800000
000000000000
000000000000
000000000000
000000000000
000000000000
000000000000
000000000000
000000000000
000000000000
000000000000
FFFFFFFFFFFE
FFFFFFFFFFFE
FFFFFFFFFFFE
ENDCHAR
STARTCHAR 00B2
ENCODING 178
SWIDTH 261 0
DWIDTH 22 0
BBX 30 26 -3 17
BITMAP
000007F0
00001F08
00007C0C
0000F00C
0001E08C
0003C19C
00078138
00070238
00060470
000C18F0
000671E0
0003C380
00000F00
00001C00
00006000
00018000
00060000
00380000
00C00000
03000000
0C000000
10000000
20000000
70000000
FFFF8000
FFFC0000
ENDCHAR
STARTCHAR 00B3
ENCODING 179
SWIDTH 273 0
DWIDTH 23 0
BBX 29 26 -1 17
BITMAP
000007E0
00001F18
00007C08
0000F018
0001E098
0003C138
000303F0
000707E0
00060FC0
00063F80
0003FC00
00003C00
00001C00
00001C00
08001C00
3E003C00
7E003C00
7C007800
E8007800
C000F000
C001E000
C003C000
60078000
201F0000
187C0000
07E00000
ENDCHAR
STARTCHAR 00B4
ENCODING 180
SWIDTH 500 0
DWIDTH 42 0
BBX 14 14 27 24
BITMAP
0038
007C
007C
00FC
00FC
00F8
01F0
03E0
03C0
0780
0F00
3C00
7000
C000
ENDCHAR
STARTCHAR 00B5
ENCODING 181
SWIDTH 511 0
DWIDTH 43 0
BBX 44 53 -2 -17
BITMAP
003E00007800
003E0000F800
003E0000F800
003E0000F800
003C0000F800
007C0000F000
007C0001F000
007C0001F000
007C0001F000
00780001E000
00F80003E000
00F80003E000
00F80003E000
00F80003E000
00F00007C000
01F00007C000
01F00007C000
01F00007C000
01E000078000
01E0000F8000
03E0000F8000
03E0000F8000
03E0001F8010
03E0001F0030
03E0001F0070
07E0003F0070
07E0003F0060
07E0007F00E0
07E0007F00E0
077000EF01C0
0F7801EF01C0
0F7C07CF8380
0F3FFF8FFF00
0F1FFF07FE00
1F0FFE07FC00
1E03F801F000
1E0000000000
1E0000000000
3E0000000000
3E0000000000
3E0000000000
3E0000000000
3E0000000000
7E0000000000
7C0000000000
7C0000000000
7C0000000000
FC0000000000
FC0000000000
FC0000000000
F80000000000
F80000000000
700000000000
ENDCHAR
STARTCHAR 00B6
ENCODING 182
SWIDTH 500 0
DWIDTH 42 0
BBX 33 59 4 0
BITMAP
001FFFFF80
00FFFFFF80
03FFFFFF80
0FFFC07000
1FFFC07000
1FFFC07000
3FFFC07000
7FFFC07000
7FFFC07000
FFFFC07000
FFFFC07000
FFFFC07000
FFFFC07000
FFFFC07000
FFFFC07000
FFFFC07000
FFFFC07000
FFFFC07000
FFFFC07000
7FFFC07000
7FFFC07000
3FFFC07000
1FFFC07000
0FFFC07000
07FFC07000
03FFC07000
00FFC07000
000FC07000
0001C07000
0001C07000
0001C07000
0001C07000
0001C07000
0001C07000
0001C07000
0001C07000
0001C07000
0001C07000
0001C07000
0001C07000
0001C07000
0001C07000
0001C07000
0001C07000
0001C07000
0001C07000
0001C07000
0001C07000
0001C07000
0001C07000
0001C07000
0001C07000
0001C07000
0001C07000
0001C07000
0001C07000
0001C07000
0001C07000
0001C07000
ENDCHAR
STARTCHAR 00B7
ENCODING 183
SWIDTH 238 0
DWIDTH 20 0
BBX 7 7 12 18
BITMAP
38
7C
FE
FE
FE
7C
38
ENDCHAR
STARTCHAR 00B8
ENCODING 184
SWIDTH 500 0
DWIDTH 42 0
BBX 19 11 2 -15
BITMAP
007F80
00FFC0
0003E0
0001E0
0001E0
0001E0
0001E0
0003C0
000FC0
FFFF80
0FFE00
ENDCHAR
STARTCHAR 00B9
ENCODING 185
SWIDTH 178 0
DWIDTH 15 0
BBX 26 25 -1 17
BITMAP
000000C0
00000380
00000700
00001E00
00003C00
00007800
0000F000
0003E000
0007C000
000F8000
00370000
006F0000
019E0000
073C0000
00780000
00F00000
01E00000
03C00000
07800000
0F000000
1F000000
1E000000
3C000000
78000000
F0000000
ENDCHAR
STARTCHAR 00BA
ENCODING 186
SWIDTH 238 0
DWIDTH 20 0
BBX 23 13 -1 45
BITMAP
000FC0
003FE0
00F820
03E020
0FC060
1F00E0
3E01E0
7C07FE
780F80
F03E00
E07800
E3E000
7F0000
ENDCHAR
STARTCHAR 00BB
ENCODING 187
SWIDTH 380 0
DWIDTH 32 0
BBX 22 20 1 0
BITMAP
004080
0060C0
00E0C0
01E060
03F060
07F070
0FF070
1FF838
3FF838
7FF838
FFFC3C
FFF878
FFF0F0
FFE1E0
FF8380
FF0700
FC0E00
F83800
E07000
C06000
ENDCHAR
STARTCHAR 00BC
ENCODING 188
SWIDTH 523 0
DWIDTH 44 0
BBX 49 42 0 0
BITMAP
00000018000600
00000070000C00
000000E0001800
000001C0003000
000003C000E000
0000078001C000
00001F00038000
00003E00070000
00007C000E0000
0000E8001C0000
0003D000300000
00072000600000
001C6000C00000
0038C003800000
00018007000000
0007000E000000
000E001C000000
001C0038070180
003C00600E0300
007800C01E0600
00F001801C0C00
00E00300381800
01C00E00783000
03801C00706000
07803800E0C000
00007000E0C000
0000C001C18000
00018001830000
00030003870000
000600030E0000
000C00070C0000
003800061C0000
0070000C380000
00E0000C700000
01800018700000
03000FFEE00000
06001FC3FE0000
0C000003C00000
18000007800000
30000007000000
E000000E000000
C000000E000000
ENDCHAR
STARTCHAR 00BD
ENCODING 189
SWIDTH 523 0
DWIDTH 44 0
BBX 46 42 0 0
BITMAP
00000007000C
0000000E001C
0000003C0038
000000780070
000000F000E0
000003E00180
000007C00300
00000F800600
00003F000C00
00007E001800
0001FC007000
00037800E000
000EF001C000
0039E0038000
0003C0060000
0007800C0000
000F00180000
001E003003F0
003C00601F88
007C00C03E04
00F801807804
01F00700F04C
01E00E01E08C
03C018018198
078030038338
000060030630
0000C0031860
00018001E0C0
000300000180
000600000700
000C00000800
001800003000
00600000C000
00C000070000
018000180000
030000600000
060001800000
0C0002000000
180004000000
30000E000000
60001FFFC000
80001FFE0000
ENDCHAR
STARTCHAR 00BE
ENCODING 190
SWIDTH 523 0
DWIDTH 44 0
BBX 45 42 5 0
BITMAP
00003F000018
0000FD800038
0001E0800070
0003C08000E0
0007058001C0
000E07800380
001C0F000700
00181F000C00
00187E001800
001FF8003000
001FE000E000
0003C001C000
0000C0038000
0000C0070000
0000C00E0000
0001C01C0000
3801C0383808
780380707018
800380E0F030
80070181E060
800E0301C0C0
801E06038180
40781C038300
60F038070200
1FC070060600
0000E00E0C00
0001C01C1C00
0003801C1800
000700383000
000E00307000
00180070E000
00300060C000
006000E1C000
00C000C38000
038001878000
07003FE70000
0E00FC1FF000
1C00001C0000
3800003C0000
700000780000
E00000700000
800000E00000
ENDCHAR
STARTCHAR 00BF
ENCODING 191
SWIDTH 535 0
DWIDTH 45 0
BBX 35 45 7 0
BITMAP
00000000C0
00000001E0
00000003E0
00000003E0
00000003C0
0000000180
0000000000
0000000000
0000000000
0000000C00
0000000C00
0000003800
0000007000
000001E000
0000078000
00003F0000
0000FC0000
0003F00000
000FE00000
001F800000
007F03F000
00FE0FF800
01F83C0C00
03F0700600
07E0C00300
0FC1800300
1F83000300
1F86000300
3F06000300
3E0C000300
7C08000600
7C18000600
7810000C00
F830001C00
F030001800
F030003000
E020006000
E00001C000
E000038000
6000070000
70001C0000
7000780000
3C03E00000
1FFF000000
03F8000000
ENDCHAR
STARTCHAR 00C0
ENCODING 192
SWIDTH 761 0
DWIDTH 64 0
BBX 93 77 0 1
BITMAP
000000000000000000000780
000000000000000000000F80
000000000000000000000FC0
000000000000000000000FC0
000000000000000000000FC0
0000000000000000000007C0
0000000000000000000007C0
0000000000000000000003C0
0000000000000000000003C0
0000000000000000000001E0
0000000000000000000000E0
000000000000000000000070
000000000000000000000038
000000000000000000000018
000000000000000000000000
000000000000000000000000
000000000000000000000000
000000000000000000000000
000000000000000000000000
0000000000000000000001F8
000000000000000000000FF8
0000000000000000000033F0
00000000000000000000C7E0
000000000000000000030FC0
0000000000000000000C1F80
000000000000000000103F00
000000000000000000607E00
00000000000000000080FC00
00000000000000000101F800
00000000000000000603F000
00000000000000000807E000
0000000000000000100FC000
0000000000000000201FC000
0000000000000000403F8000
0000000000000001807F0000
0000003F8000000200FE0000
000001FFF000000401FE0000
000003FFF800000803FC0000
000007FFFC00001007F80000
00000FE03E00006007F00000
00001F800F0000C00FE00000
00003E00038001801FE00000
00003C0001C003003FC00000
0000780000C006007F800000
0000700000600C007F000000
0000700000603800FF000000
0000600000307001FE000000
0000E0000030E003FC000000
0000E0000031C007F8000000
0000C00000138007F8000000
0000C000001F000FF0000000
0000C000001C001FE0000000
0000C0000038003FC0000000
0000C0000078003F80000000
0000C00000F8007F00000000
0000E00001D800FF00000000
00006000039801FE00000000
00006000071803FC00000000
000060000E1807F800000000
000070001C1807F000000000
0000300078180FE000000000
00003800E0181FE000000000
00001801C0183FC000000000
1E001C0380187F80C0000000
3F000E0F0030FF00C0000000
7F80061E0031FE0180000000
7F80073C0031FC0300000000
FF8003F00033F80600000000
FF0001E00037F00C00000000
FE0003C0006FE01800000000
C0000770007FC03000000000
C0001C38007F80E000000000
4000780E00FF01C000000000
6001E00780FE070000000000
380F8001F0FC3C0000000000
1FFE00007FFFF00000000000
03E0000007FE000000000000
ENDCHAR
STARTCHAR 00C1
ENCODING 193
SWIDTH 761 0
DWIDTH 64 0
BBX 100 78 0 1
BITMAP
000000000000000000000000E0
000000000000000000000001F0
000000000000000000000001F0
000000000000000000000003F0
000000000000000000000003F0
000000000000000000000003E0
000000000000000000000007C0
00000000000000000000000F80
00000000000000000000000F00
00000000000000000000001E00
00000000000000000000003C00
0000000000000000000000F000
0000000000000000000001C000
00000000000000000000030000
00000000000000000000000000
00000000000000000000000000
00000000000000000000000000
00000000000000000000000000
00000000000000000000000000
00000000000000000000000000
0000000000000000000001F000
000000000000000000001FF000
0000000000000000000063E000
0000000000000000000187C000
000000000000000000020F8000
0000000000000000000C1F0000
000000000000000000103E0000
000000000000000000607C0000
00000000000000000080F80000
00000000000000000301F00000
00000000000000000603E00000
00000000000000000807C00000
0000000000000000100FC00000
0000000000000000601F800000
0000000000000000C03F000000
0000000000000001807E000000
0000003F8000000300FC000000
000001FFF000000401FC000000
000003FFF800000803F8000000
000007FFFC00003003F0000000
00000FE03E00006007F0000000
00001F800F0000C00FE0000000
00003E00038001801FC0000000
00003C0001C003003F80000000
0000780000C006003F80000000
0000700000601C007F00000000
0000700000603800FE00000000
0000600000307001FC00000000
0000E0000030E003FC00000000
0000E0000031C003F800000000
0000C00000138007F000000000
0000C000001F000FE000000000
0000C000001C001FC000000000
0000C0000038003FC000000000
0000C0000078003F8000000000
0000C00000F8007F0000000000
0000E00001D800FE0000000000
00006000039801FC0000000000
00006000071803FC0000000000
000060000E1807F80000000000
000070001C1807F00000000000
0000300078180FE00000000000
00003800E0181FC00000000000
00001801C0183F800000000000
1E001C0380187F004000000000
3F000E0F0030FF00C000000000
7F80061E0030FE018000000000
7F80073C0031FC038000000000
FF8003F00033F8070000000000
FF0001E00037F00E0000000000
FE0003C0006FE01C0000000000
C0000770007FC0300000000000
C0001C38007F80E00000000000
4000780E00FF01C00000000000
6001E00780FE07000000000000
380F8001F0FC3C000000000000
1FFE00007FFFF0000000000000
03E0000007FE00000000000000
ENDCHAR
STARTCHAR 00C2
ENCODING 194
SWIDTH 761 0
DWIDTH 64 0
BBX 99 77 0 1
BITMAP
00000000000000000000000300
00000000000000000000000700
00000000000000000000001F00
00000000000000000000003F80
00000000000000000000007F80
0000000000000000000001FF80
0000000000000000000003F3C0
000000000000000000000FC1C0
000000000000000000001F01C0
000000000000000000007C00C0
00000000000000000000F800E0
00000000000000000003E00060
00000000000000000003800060
00000000000000000000000000
00000000000000000000000000
00000000000000000000000000
00000000000000000000000000
00000000000000000000000000
00000000000000000000000000
0000000000000000000001F000
000000000000000000000FF000
0000000000000000000063E000
0000000000000000000187C000
000000000000000000020F8000
0000000000000000000C1F0000
000000000000000000103E0000
000000000000000000607C0000
00000000000000000080F80000
00000000000000000101F00000
00000000000000000603E00000
00000000000000000807E00000
0000000000000000100FC00000
0000000000000000201F800000
0000000000000000C03F000000
0000000000000001807E000000
0000003F8000000300FE000000
000001FFF000000401FC000000
000003FFF800000803F8000000
000007FFFC00003003F0000000
00000FE03E00006007F0000000
00001F800F0000C00FE0000000
00003E00038001801FC0000000
00003C0001C003003F80000000
0000780000C006003F80000000
0000700000600C007F00000000
0000700000603800FE00000000
0000600000307001FC00000000
0000E0000030E003FC00000000
0000E0000031C003F800000000
0000C00000138007F000000000
0000C000001F000FE000000000
0000C000001C001FE000000000
0000C0000038003FC000000000
0000C0000078003F8000000000
0000C00000F8007F0000000000
0000E00001D800FE0000000000
00006000039801FE0000000000
00006000071803FC0000000000
000060000E1807F80000000000
000070001C1807F00000000000
0000300078180FE00000000000
00003800E0181FC00000000000
00001801C0183F800000000000
1E001C0380187F004000000000
3F000E0F0030FF00C000000000
7F80061E0030FE018000000000
7F80073C0031FC038000000000
FF8003F00033F8070000000000
FF0001E00037F00E0000000000
FE0003C0006FE01C0000000000
C0000770007FC0300000000000
C0001C38007F80E00000000000
4000780E00FF01C00000000000
6001E00780FE07000000000000
380F8001F0FC3C000000000000
1FFE00007FFFF0000000000000
03E0000007FE00000000000000
ENDCHAR
STARTCHAR 00C3
ENCODING 195
SWIDTH 761 0
DWIDTH 64 0
BBX 102 73 0 1
BITMAP
000000000000000000000F800C
000000000000000000003FE01C
000000000000000000007FFC38
00000000000000000000FFFFF8
00000000000000000000E1FFF0
00000000000000000001C03FE0
00000000000000000001800F80
00000000000000000000000000
00000000000000000000000000
00000000000000000000000000
00000000000000000000000000
00000000000000000000000000
00000000000000000000000000
00000000000000000000000000
00000000000000000000000000
0000000000000000000001F000
000000000000000000000FF000
0000000000000000000063E000
0000000000000000000187C000
000000000000000000020F8000
0000000000000000000C1F0000
000000000000000000103E0000
000000000000000000607C0000
00000000000000000080F80000
00000000000000000301F00000
00000000000000000603E00000
00000000000000000807C00000
0000000000000000100FC00000
0000000000000000201F800000
0000000000000000C03F000000
0000000000000001807E000000
0000003F8000000300FE000000
000001FFF000000401FC000000
000003FFF800000803F8000000
000007FFFC00003003F0000000
00000FE03E00006007F0000000
00001F800F0000C00FE0000000
00003E00038001801FC0000000
00003C0001C003003F80000000
0000780000C006003F80000000
0000700000601C007F00000000
0000700000603800FE00000000
0000600000307001FC00000000
0000E0000030E003FC00000000
0000E0000031C003F800000000
0000C00000138007F000000000
0000C000001F000FE000000000
0000C000001C001FC000000000
0000C0000038003FC000000000
0000C0000078003F8000000000
0000C00000F8007F0000000000
0000E00001D800FE0000000000
00006000039801FC0000000000
00006000071803FC0000000000
000060000E1807F80000000000
000070001C1807F00000000000
0000300078180FE00000000000
00003800E0181FC00000000000
00001801C0183F800000000000
1E001C0380187F004000000000
3F000E0F0030FF00C000000000
7F80061E0030FE018000000000
7F80073C0031FC038000000000
FF8003F00033F8070000000000
FF0001E00037F00E0000000000
FE0003C0006FE01C0000000000
C0000770007FC0300000000000
C0001C38007F80E00000000000
4000780E00FF01C00000000000
6001E00780FE07000000000000
380F8001F0FC3C000000000000
1FFE00007FFFF0000000000000
03E0000007FE00000000000000
ENDCHAR
STARTCHAR 00C4
ENCODING 196
SWIDTH 761 0
DWIDTH 64 0
BBX 100 74 0 0
BITMAP
000000000000000000001C00E0
000000000000000000003E01F0
000000000000000000007E03F0
000000000000000000007E03F0
000000000000000000007C03E0
000000000000000000003801C0
00000000000000000000000000
00000000000000000000000000
00000000000000000000000000
00000000000000000000000000
00000000000000000000000000
00000000000000000000000000
00000000000000000000000000
00000000000000000000000000
00000000000000000000000000
0000000000000000000001F000
000000000000000000001FE000
0000000000000000000063C000
00000000000000000001878000
000000000000000000020F8000
0000000000000000000C1F0000
000000000000000000303E0000
000000000000000000607C0000
00000000000000000080F80000
00000000000000000301F00000
00000000000000000603E00000
00000000000000000807C00000
0000000000000000100FC00000
0000000000000000601F800000
0000000000000000C03F000000
0000000000000001807E000000
0000003F8000000300FE000000
000001FFF000000401FC000000
000003FFF800001803F8000000
000007FFFC00003003F0000000
00000FE03E00006007F0000000
00001F800F0000C00FE0000000
00003E00038001801FC0000000
00003C0001C003003F80000000
0000780000C006003F80000000
0000700000601C007F00000000
0000700000603800FE00000000
0000600000307001FC00000000
0000E0000030E003FC00000000
0000E0000031C003F800000000
0000C00000138007F000000000
0000C000001F000FE000000000
0000C000001C001FE000000000
0000C0000038003FC000000000
0000C0000078003F8000000000
0000C00000F8007F0000000000
0000E00001D800FF0000000000
00006000039801FE0000000000
00006000071803FC0000000000
000060000E1803F80000000000
000070001C1807F00000000000
0000300078180FF00000000000
00003800E0181FE00000000000
00001801C0183FC00000000000
1E001C0380187F804000000000
3F000E0F0010FF00C000000000
7F80061E0030FE01C000000000
7F80073C0031FC038000000000
FF8003F00033F8070000000000
FF0001E00037F00E0000000000
FE0003C0002FF01C0000000000
C0000760007FE0380000000000
C0001E38007FC0700000000000
C000381C007F80E00000000000
6000F00F00FF03C00000000000
7003C003C0FE0F000000000000
3C1F8001F8FC7C000000000000
1FFE00003FFFF0000000000000
07F0000007FF80000000000000
ENDCHAR
STARTCHAR 00C5
ENCODING 197
SWIDTH 761 0
DWIDTH 64 0
BBX 102 75 0 1
BITMAP
00000000000000000000000FC0
00000000000000000000003FF0
00000000000000000000007878
00000000000000000000006038
0000000000000000000000E01C
0000000000000000000000C00C
0000000000000000000000C00C
0000000000000000000000C00C
0000000000000000000000C00C
0000000000000000000000E01C
00000000000000000000006038
00000000000000000000007870
00000000000000000000001FE0
00000000000000000000000FC0
00000000000000000000000000
00000000000000000000000000
0000000000000000000007C000
000000000000000000003FC000
00000000000000000000E38000
00000000000000000003870000
0000000000000000000E0E0000
0000000000000000001C1C0000
00000000000000000070380000
000000000000000000E0700000
00000000000000000180E00000
00000000000000000701E00000
00000000000000000E03C00000
00000000000000001807800000
0000000000000000300F000000
0000000000000000601F000000
0000000000000001C03E000000
0000000000000003807C000000
0000003F8000000700F8000000
000001FFF000000C01F8000000
000003FFF800001803F0000000
000007FFFC00003003E0000000
00000FE03E00006007E0000000
00001F800F0000C00FC0000000
00003E00038003801F80000000
00003C0001C007003F00000000
0000780000C00E003F00000000
0000700000601C007E00000000
0000700000603800FC00000000
0000600000307001FC00000000
0000E0000030E003F800000000
0000E0000031C003F000000000
0000C00000138007E000000000
0000C000001F000FE000000000
0000C000001C001FC000000000
0000C0000038003F8000000000
0000C0000078003F0000000000
0000C00000F8007F0000000000
0000E00001D800FE0000000000
00006000039801FC0000000000
00006000071803F80000000000
000060000E1803F80000000000
000070001C1807F00000000000
0000300078180FE00000000000
00003800E0181FC00000000000
00001801C0183F800000000000
1E001C0380187F804000000000
3F000E0F0010FF00C000000000
7F80061E0030FE01C000000000
7F80073C0031FC038000000000
FF8003F00033F8070000000000
FF0001E00037F00E0000000000
FE0003C0002FE01C0000000000
C0000760007FC0380000000000
C0001E38007F80700000000000
C000381C007F00E00000000000
6000F00F00FF03C00000000000
7003C003C0FE0F000000000000
3C1F8001F8FC7C000000000000
1FFE00003FFFF0000000000000
07F0000007FF80000000000000
ENDCHAR
STARTCHAR 00C6
ENCODING 198
SWIDTH 1250 0
DWIDTH 105 0
BBX 121 59 -5 0
BITMAP
0000000000000000000001F0001FF000
000000000000000000000FF001FFFC00
0000000000000000000063E00FF00600
0000000000000000000087C07F800300
000000000000000000020F80FE000180
0000000000000000000C1F03FC000180
000000000000000000103E0FF0000180
000000000000000000607C1FC0000180
000000000000000000C0F83F80000380
00000000000000000101F07F00000380
00000000000000000203E0FE00000780
00000000000000000C07E1FC00000700
0000000000000000180FC3F000000F00
0000000000000000201F87E000001E00
0000000000000000403F07E000003E00
0000000000000000803E0FC000007C00
0000001FC0000003007E0F800000F800
000000FFF000000600FC0F000003F000
000001FFFC00000C01F81E000007E000
000003FFFE00001803F01E00001F8000
000007F01F00003003F01C00007E0000
00000F800780006007E01C0001F80000
00001F0001C000C00FC01FF81FE00000
00001E0000E003800F801FFE0E000000
00003C00006007001F81E60700000000
0000380000700E003F0F830300000000
0000380000301C007E3F03C300000000
00007000003038007CFC01FE00000000
0000700000187000FDF8007C00000000
000070000018E001FFF0000000000000
000060000019C003FFC0000000000000
00006000000F8003FF80000000000000
00006000000F0007FF00000000000000
00006000001E000FFE00000000000000
00006000003C001FFC00000000000000
00006000007C003FF800000000000000
0000600000EC003FF800000000000000
0000700001CC007FF000007800000000
00003000038C00FFE00007FE00000000
00003000070C01FBC0001F0600000000
000038000E0C03F3C000780300000000
000018003C0C07E78000E00300000000
00001800780C0FC78001C00300000000
00000C00E00C0FC70007800700000000
1F000E01C0081F8F000E000F00000000
3F80060780183F0E001C000E00000000
7F80070F00187E0E0038001E00000000
7F8003BE0018FC0E0070003C00000000
FF8001F80019F80E006000FC00000000
FF8000F00013F00E00C001F800000000
FF0001E00037E006008003F000000000
C00003B0003FC007000007E000000000
C0000E1C003F800700001FC000000000
C0001C06003F000380003F8000000000
60007801807E0001C000FE0000000000
7001E000607C0001E003FC0000000000
3C0F80001CF80000781FF00000000000
1FFE000003F000003FFF800000000000
07F0000003E0000007FC000000000000
ENDCHAR
STARTCHAR 00C7
ENCODING 199
SWIDTH 702 0
DWIDTH 59 0
BBX 64 74 7 -16
BITMAP
00000000000000FC
00000000000007FF
0000000000003F87
000000000000FC03
000000000003F003
00000000000FC007
00000000001F0007
00000000007E000E
0000000001F8000E
0000000003F0001C
0000000007C00038
000000001F800078
000000003F0000F0
000000007E0001E0
00000001FC0007C0
00000003F8000F00
00000007F0001E00
0000000FE0007C00
0000001FC000F000
0000003F8003E000
0000007F00078000
000000FE001E0000
000001FC00780000
000003F803E00000
000007F00F800000
00000FE07C000000
00001FC3F0000000
00003FDF80000000
00007FFC00000000
0000FFE000000000
0003FE0000000000
007FFC0000000000
0FFFF80000000000
FFC3F00000000000
F807F00000000000
0007E00000000000
000FC00000000000
000FC0000F800000
001F80007FE00000
001F0001F0E00000
003F000780700000
003E000E00700000
003C001C00700000
003C007000F00000
007800E000F00000
007801C001E00000
0078038003E00000
0070070007C00000
00700E000FC00000
00700C001F800000
007018007F000000
00701000FE000000
00300001FC000000
00380007F8000000
001C000FE0000000
000E003FC0000000
0007C1FF00000000
0003FFF800000000
00007FC000000000
0000000000000000
0000000000000000
0000000000000000
0000000000000000
00007F8000000000
0000FFC000000000
000003E000000000
000001E000000000
000001E000000000
000001E000000000
000001E000000000
000003C000000000
000007C000000000
007FFF8000000000
000FFE0000000000
ENDCHAR
STARTCHAR 00C8
ENCODING 200
SWIDTH 642 0
DWIDTH 54 0
BBX 61 78 7 0
BITMAP
0000000000001C00
0000000000003E00
0000000000003E00
0000000000003E00
0000000000003E00
0000000000001E00
0000000000001E00
0000000000000E00
0000000000000F00
0000000000000700
0000000000000380
00000000000001C0
00000000000000E0
0000000000000060
0000000000000000
0000000000000000
0000000000000000
0000000000000000
0000000000000000
000000000001FF00
00000000003FFFC0
0000000000FFC1E0
0000000007FE0030
000000000FF00038
000000003FE00018
00000000FF800018
00000001FE000018
00000003FC000018
00000007F0000038
0000001FE0000038
0000001FC0000070
0000003F800000F0
0000007F000001E0
0000007E000003E0
000000FC000007C0
000000F800000F80
000000F000001F00
000001F000007E00
000001E00001F800
000001C00003F000
000001C0001FC000
000001FF80FE0000
000003FFE0F00000
00001E6070000000
0000F87030000000
0003E03830000000
000FC01FE0000000
003F8007C0000000
007E000000000000
00FC000000000000
03F8000000000000
07F0000000000000
07E0000000000000
0FC0000000000000
1F80000000000000
1F80000000000000
3F00000780000000
3E00007FE0000000
7C0001F070000000
7C00078030000000
78000E0030000000
F8003C0030000000
F000700070000000
F000E000F0000000
E001C000E0000000
E0038003E0000000
E0070007C0000000
E00E000FC0000000
E00C001F80000000
6000003F00000000
7000007E00000000
700001FC00000000
380007F800000000
1C000FE000000000
1E007FC000000000
07E7FF0000000000
03FFF80000000000
007FC00000000000
ENDCHAR
STARTCHAR 00C9
ENCODING 201
SWIDTH 642 0
DWIDTH 54 0
BBX 65 79 7 0
BITMAP
000000000000000F00
000000000000000F80
000000000000001F80
000000000000001F80
000000000000003F80
000000000000003F00
000000000000007E00
000000000000007C00
00000000000000F800
00000000000001F000
00000000000003E000
000000000000078000
0000000000000E0000
000000000000180000
000000000000000000
000000000000000000
000000000000000000
000000000000000000
000000000000000000
000000000000000000
000000000001FF0000
00000000003FFFC000
0000000000FFC1E000
0000000007FE007000
000000001FF0003000
000000003FC0001800
00000000FF80001800
00000001FE00001800
00000003FC00001800
00000007F000003800
0000001FE000003800
0000001FC000007000
0000003F800000F000
0000007F000001E000
0000007E000003E000
000000FC000007C000
000000F800000F8000
000000F000001F0000
000001F000007E0000
000001E00001F80000
000001C00007E00000
000001C0001F800000
000001FF80FE000000
000003FFE0E0000000
00001E607000000000
0000F8703000000000
0003E0383000000000
000FC01FE000000000
003F8007C000000000
007E00000000000000
00FC00000000000000
03F800000000000000
07F000000000000000
07E000000000000000
0FC000000000000000
1F8000000000000000
1F8000000000000000
3F0000078000000000
3E00007FE000000000
7C0001F07000000000
7C0007803000000000
78000E003000000000
F8003C003000000000
F00070007000000000
F000E000F000000000
E001C000E000000000
E0038003E000000000
E0070007C000000000
E00E000FC000000000
E00C001F8000000000
6000003F0000000000
7000007E0000000000
700001FC0000000000
380007F80000000000
1C000FE00000000000
1E007FC00000000000
07E7FF000000000000
03FFF8000000000000
007FC0000000000000
ENDCHAR
STARTCHAR 00CA
ENCODING 202
SWIDTH 642 0
DWIDTH 54 0
BBX 64 78 7 0
BITMAP
0000000000000018
0000000000000038
00000000000000F8
00000000000001FC
00000000000003FC
0000000000000FFC
0000000000001F9E
0000000000007E0E
000000000000F80E
000000000003E006
000000000007C007
00000000001F0003
00000000001C0003
0000000000000000
0000000000000000
0000000000000000
0000000000000000
0000000000000000
0000000000000000
000000000001FF00
00000000003FFFC0
0000000000FFC1E0
0000000007FE0070
000000001FF00030
000000003FC00018
00000000FF800018
00000001FE000018
00000003FC000018
00000007F0000038
0000001FE0000038
0000001FC0000070
0000003F800000F0
0000007F000001E0
0000007E000003E0
000000FC000007C0
000000F800000F80
000000F000001F00
000001F000007E00
000001E00000F800
000001C00003F000
000001C0001FC000
000001FF80FE0000
000003FFE0F00000
00001E6070000000
0000F87030000000
0003E03830000000
000FC01FE0000000
003F8007C0000000
007E000000000000
00FC000000000000
03F8000000000000
07F0000000000000
07E0000000000000
0FC0000000000000
1F80000000000000
1F80000000000000
3F00000780000000
3E00007FE0000000
7C0001F070000000
7C00078030000000
78000E0030000000
F8003C0030000000
F000700070000000
F000E000F0000000
E001C000E0000000
E0038003E0000000
E0070007C0000000
E00E000FC0000000
E00C001F80000000
6000003F00000000
7000007E00000000
700001FC00000000
380007F800000000
1C000FE000000000
1E007FC000000000
07E7FF0000000000
03FFF80000000000
007FC00000000000
ENDCHAR
STARTCHAR 00CB
ENCODING 203
SWIDTH 642 0
DWIDTH 54 0
BBX 66 74 7 0
BITMAP
000000000000E00780
000000000001F00FC0
000000000003F01FC0
000000000003F01FC0
000000000003E01F80
000000000001C00F00
000000000000000000
000000000000000000
000000000000000000
000000000000000000
000000000000000000
000000000000000000
000000000000000000
000000000000000000
000000000000000000
000000000001FF0000
00000000003FFFC000
0000000000FFC1E000
0000000007FE003000
000000000FF0003800
000000003FE0001800
00000000FF80001800
00000001FE00001800
00000003FC00001800
00000007F000003800
0000001FE000003800
0000001FC000007000
0000003F800000F000
0000007F000001E000
0000007E000003E000
000000FC000007C000
000000F800000F8000
000000F000001F0000
000001F000007E0000
000001E00001F80000
000001C00003F00000
000001C0001FC00000
000001FF80FE000000
000003FFE0F0000000
00001E607000000000
0000F8703000000000
0003E0383000000000
000FC01FE000000000
003F8007C000000000
007E00000000000000
00FC00000000000000
03F800000000000000
07F000000000000000
07E000000000000000
0FC000000000000000
1F8000000000000000
1F8000000000000000
3F0000078000000000
3E00007FE000000000
7C0001F07000000000
7C0007803000000000
78000E003000000000
F8003C003000000000
F00070007000000000
F000E000F000000000
E001C000E000000000
E0038003E000000000
E0070007C000000000
E00E000FC000000000
E00C001F8000000000
6000003F0000000000
7000007E0000000000
700001FC0000000000
380007F80000000000
1C000FE00000000000
1E007FC00000000000
07E7FF000000000000
03FFF8000000000000
007FC0000000000000
ENDCHAR
STARTCHAR 00CC
ENCODING 204
SWIDTH 714 0
DWIDTH 60 0
BBX 88 78 -2 0
BITMAP
00000000000000000000E0
00000000000000000001F0
00000000000000000001F0
00000000000000000001F0
00000000000000000001F0
00000000000000000000F0
00000000000000000000F0
0000000000000000000078
0000000000000000000078
0000000000000000000038
000000000000000000001C
000000000000000000000E
0000000000000000000007
0000000000000000000003
0000000000000000000000
0000000000000000000000
0000000000000000000000
0000000000000000000000
0000000000000000000000
0000000000000000000FFF
000000000000000001FFFF
00000000000000001FC0F8
00000000000000007E03C0
0000000000000003F80780
000000000000000FE01E00
000000000000001F803C00
000000000000007F007800
00000000000001FC00F000
00000000000003F801E000
0000000000000FF0038000
0000000000001FC0070000
0000000000003F800F0000
0000000000007F001E0000
000000000000FE003C0000
000000000001FC00780000
000000000001F800F00000
000000000003F001E00000
000000000007E003C00000
000000000007E007C00000
00000000000FC00F800000
00000000000F800F000000
00000000001F001E000000
00000000001F003C000000
00000000001E007C010000
00000000003C00F8030000
00000000003C00F0030000
00000000003801F0060000
00000000003803E00E0000
00000000003807C00C0000
0000000000300F80180000
0000000000300F80380000
0000000000301F00700000
0000000000103E00E00000
0000000000107E01C00000
0000000000087C03800000
000000000008F80F000000
000000000005F83C000000
000000000007FFF0000000
00000000000FFF80000000
00000000001FC000000000
00000000001FC000000000
00000000003F8000000000
00000000007F0000000000
1E00000000FE0000000000
3F00000003FC0000000000
7F80000007F00000000000
7F8000000FE00000000000
FF8000001FC00000000000
FF0000003F800000000000
FE000000FE000000000000
E0000001FC000000000000
60000007F0000000000000
7000001FE0000000000000
3800007F80000000000000
1C0003FC00000000000000
0FE03FF000000000000000
03FFFF8000000000000000
007FF00000000000000000
ENDCHAR
STARTCHAR 00CD
ENCODING 205
SWIDTH 714 0
DWIDTH 60 0
BBX 95 79 -2 0
BITMAP
00000000000000000000001C
00000000000000000000003E
00000000000000000000003E
00000000000000000000007E
00000000000000000000007E
00000000000000000000007C
0000000000000000000000F8
0000000000000000000001F0
0000000000000000000001E0
0000000000000000000003C0
000000000000000000000780
000000000000000000001E00
000000000000000000003800
000000000000000000006000
000000000000000000000000
000000000000000000000000
000000000000000000000000
000000000000000000000000
000000000000000000000000
000000000000000000000000
0000000000000000000FFF80
000000000000000001FFFF80
00000000000000000FE0FC00
00000000000000007E01F000
0000000000000001F807C000
000000000000000FE00F8000
000000000000001F803E0000
000000000000007F007C0000
00000000000001FC00F80000
00000000000003F801E00000
0000000000000FF003C00000
0000000000001FE007800000
0000000000003F800F000000
0000000000007F001E000000
000000000000FE003C000000
000000000001FC007C000000
000000000001F800F8000000
000000000003F001F0000000
000000000007E003E0000000
000000000007E007C0000000
00000000000FC00780000000
00000000000F800F80000000
00000000001F001F00000000
00000000001F003E00000000
00000000001E007C01800000
00000000003C00F803000000
00000000003C00F803000000
00000000003801F006000000
00000000003803E006000000
00000000003807C00C000000
00000000003007C01C000000
0000000000300F8038000000
0000000000301F0030000000
0000000000103F0060000000
0000000000107E01C0000000
0000000000087C0380000000
000000000008F80F00000000
000000000005F83C00000000
000000000007FFF000000000
00000000000FFFC000000000
00000000001FE00000000000
00000000001FC00000000000
00000000003F800000000000
00000000007F000000000000
1E00000000FE000000000000
3F00000001FC000000000000
7F80000007F8000000000000
7F8000000FE0000000000000
FF8000001FC0000000000000
FF0000003F80000000000000
FE000000FE00000000000000
E0000001FC00000000000000
60000007F000000000000000
7000001FE000000000000000
3800007F8000000000000000
1C0003FE0000000000000000
0FE03FF00000000000000000
03FFFF800000000000000000
007FF0000000000000000000
ENDCHAR
STARTCHAR 00CE
ENCODING 206
SWIDTH 714 0
DWIDTH 60 0
BBX 94 78 -2 0
BITMAP
000000000000000000000060
0000000000000000000000E0
0000000000000000000003E0
0000000000000000000007F0
000000000000000000000FF0
000000000000000000003FF0
000000000000000000007E78
00000000000000000001F838
00000000000000000003E038
0000000000000000000F8018
0000000000000000001F001C
0000000000000000007C000C
00000000000000000070000C
000000000000000000000000
000000000000000000000000
000000000000000000000000
000000000000000000000000
000000000000000000000000
000000000000000000000000
0000000000000000000FFFC0
000000000000000001FFFFC0
00000000000000000FE0FC00
00000000000000007E01F000
0000000000000001F807C000
000000000000000FE00F8000
000000000000001F803E0000
000000000000007F007C0000
00000000000001FC00F80000
00000000000003F801F00000
00000000000007F003E00000
0000000000001FE007800000
0000000000003F800F000000
0000000000007F001F000000
000000000000FE003E000000
000000000001FC007C000000
000000000001F800F8000000
000000000003F001F0000000
000000000007E003E0000000
000000000007E007C0000000
00000000000FC00780000000
00000000000F800F80000000
00000000001F001F00000000
00000000001F003E00000000
00000000001E007C01800000
00000000003C00FC03000000
00000000003C00F803000000
00000000003801F007000000
00000000003803E006000000
00000000003807E00C000000
00000000003007C01C000000
0000000000300F8038000000
0000000000301F0030000000
0000000000103F0060000000
0000000000107E01C0000000
0000000000087C0380000000
000000000008F80F00000000
000000000005F83C00000000
000000000007FFF000000000
00000000000FFFC000000000
00000000001FE00000000000
00000000001FC00000000000
00000000003F800000000000
00000000007F000000000000
1E00000000FE000000000000
3F00000001FC000000000000
7F80000007F8000000000000
7F8000000FE0000000000000
FF8000001FC0000000000000
FF0000003F80000000000000
FE000000FE00000000000000
E0000001FC00000000000000
60000007F000000000000000
7000001FE000000000000000
3800007F8000000000000000
1C0003FE0000000000000000
0FE03FF00000000000000000
03FFFF800000000000000000
007FF0000000000000000000
ENDCHAR
STARTCHAR 00CF
ENCODING 207
SWIDTH 714 0
DWIDTH 60 0
BBX 95 74 -2 0
BITMAP
00000000000000000003801C
00000000000000000007C03E
0000000000000000000FC07E
0000000000000000000FC07E
0000000000000000000F807C
000000000000000000070038
000000000000000000000000
000000000000000000000000
000000000000000000000000
000000000000000000000000
000000000000000000000000
000000000000000000000000
000000000000000000000000
000000000000000000000000
000000000000000000000000
0000000000000000000FFF80
000000000000000001FFFF80
00000000000000000FE0FC00
00000000000000007E01F000
0000000000000001F807C000
000000000000000FE00F0000
000000000000001F803E0000
000000000000007F007C0000
00000000000001FC00F00000
00000000000003F801E00000
0000000000000FF003C00000
0000000000001FE007800000
0000000000003F800F000000
0000000000007F001E000000
000000000000FE003C000000
000000000001FC0078000000
000000000001F800F8000000
000000000003F001F0000000
000000000007E003E0000000
000000000007E007C0000000
00000000000FC00780000000
00000000000F800F00000000
00000000001F001F00000000
00000000001F003E00000000
00000000001E007C01800000
00000000003C00F803800000
00000000003C00F803000000
00000000003801F007000000
00000000003803E006000000
00000000003807C00C000000
00000000003007C01C000000
0000000000300F8018000000
0000000000301F0030000000
0000000000103F0060000000
0000000000107E01C0000000
0000000000087C0380000000
000000000008F80F00000000
000000000005F83C00000000
000000000007FFF000000000
00000000000FFFC000000000
00000000001FE00000000000
00000000001FC00000000000
00000000003F800000000000
00000000007F000000000000
1E00000000FE000000000000
3F00000001FC000000000000
7F80000007F8000000000000
7F8000000FE0000000000000
FF8000001FC0000000000000
FF0000003F80000000000000
FE000000FE00000000000000
E0000001FC00000000000000
60000007F000000000000000
7000001FE000000000000000
3800007F8000000000000000
1C0003FE0000000000000000
0FE03FF00000000000000000
03FFFF800000000000000000
007FF0000000000000000000
ENDCHAR
STARTCHAR 00D0
ENCODING 208
SWIDTH 892 0
DWIDTH 75 0
BBX 76 59 5 0
BITMAP
00000000007FF8000000
0000000007FFFF000000
000000003FFE07E00000
00000000FFC000780000
00000003FE00000C0000
0000000FF80000020000
0000001FE00000010000
0000007F800000008000
000000FF000000004070
000001FC0000000021E0
000003F8000000002780
000007F0000030001F00
00000FE0000070000E00
00001FC0000060001C00
00001F80000060003C00
00003F000000E0006C00
00007E000000C000CC00
00007C000000C001CC00
0000F800000180038C00
0000F000000180070C00
0001F0000003000F0C00
0001E0000007001E0C00
0001C0000006003C0C00
0001C000000C007C0C00
00038000001C00F80C00
00038000003801F00C00
00038000003003F00C00
00030000006007E01800
0003000000C007C01800
0003000001800FC01800
0003000007001F801800
000180000E003F003000
000180001C007F003000
0000C0007800FE003000
0000E001E001FC006000
0000781F8001FC006000
00001FFE07FFFFF8C000
000007F007FFFFF8C000
00000000000FE0018000
00000000000FE0018000
00000000001FC0030000
00000000003F80060000
00000000007F000E0000
0000000000FE000C0000
0000000001FC00180000
0000000003F800300000
0000000007F000600000
000000000FE000C00000
000000001FC001C00000
000000003F8003000000
000000007F000E000000
00000000FC001C000000
3F800001F80038000000
FFF80007E000E0000000
C07F000F8003C0000000
C007E03E001F00000000
78007CF801FC00000000
3FFFFFFFFFE000000000
03FFFFFFFE0000000000
ENDCHAR
STARTCHAR 00D1
ENCODING 209
SWIDTH 750 0
DWIDTH 63 0
BBX 104 74 -8 0
BITMAP
000000000000000000003E0030
00000000000000000000FF8070
00000000000000000001FFF0E0
00000000000000000003FFFFE0
0000000000000000000387FFC0
0000000000000000000700FF80
00000000000000000006003E00
00000000000000000000000000
00000000000000000000000000
00000000000000000000000000
00000000000000000000000000
00000000000000000000000000
00000000000000000000000000
00000000000000000000000000
00000000000000000000000000
0000000000000000100000000F
0000000000000000300000003E
000000000000000070000000F8
0000000000000001E0000001C0
0000000000000003E000000780
0000000000000007C000000E00
000000000000000FC000001C00
000000000000000F8000003000
000000000000001F8000006000
000000000000003F800001C000
00000000000000770000038000
00000000000000EF0000070000
00000000000001CF00000E0000
000000000000039E0000180000
000000000000071E0000300000
000000000000063E0000600000
0000000000000C3C0000E00000
0000000000001C3C0001C00000
000000000000387C0003800000
000000000000707C0003000000
00000000000060780006000000
000000000000C0F8000C000000
00000000000180F80018000000
00000000000380F80030000000
00000000000701F00060000000
00000000000601F000C0000000
00000000000C01F001C0000000
00000000001803F00380000000
00000000003803E00300000000
00000000007003E00600000000
00000000006007E00C00000000
0000000000C007E01800000000
00000000018007C03000000000
0000000003800FC07000000000
0000000007000FC0E000000000
0000000006000F80C000000000
000000000C000F818000000000
0000000018001F830000000000
0000000038001F060000000000
0000000070001F0C0000000000
0000000060001F1C0000000000
00000000C0003E180000000000
0000000180003E300000000000
0000000300003C600000000000
0000000700003CC00000000000
0000000E00007D800000000000
0F80001C00007B800000000000
3FC0003800007F000000000000
7FE00070000076000000000000
7FE000E00000FC000000000000
FFE001C00000F8000000000000
FFC003800001F0000000000000
FF8007000001E0000000000000
C0001E000001E0000000000000
C00038000003C0000000000000
6000F000000380000000000000
3807C000000700000000000000
1FFF0000000600000000000000
07F80000000C00000000000000
ENDCHAR
STARTCHAR 00D2
ENCODING 210
SWIDTH 666 0
DWIDTH 56 0
BBX 64 78 9 0
BITMAP
0000000000000600
0000000000000E00
0000000000000E00
0000000000000E00
0000000000000E00
0000000000000600
0000000000000600
0000000000000300
0000000000000300
0000000000000180
00000000000000C0
0000000000000060
0000000000000030
0000000000000018
0000000000000000
0000000000000000
0000000000000000
0000000000000000
0000000000000000
000000000000FF80
00000000000FFFF0
00000000007FC078
0000000003FC001C
000000000FF00006
000000003FC00006
00000000FF000003
00000003FC000003
00000007F8000003
0000001FE0000003
0000003FC0000003
000000FF00000007
000001FE00000006
000003FC003FC00E
00000FF003FFF01E
00001FE00FF0783C
00003FC03F803878
00007F80FE001CF0
0000FF01F8000FE0
0001FE07E0000FC0
0003F80FC0001F80
0007F01F00003E00
000FE03E0000FE00
001FC07C0001CE00
003F80F000000E00
007F01E000000E00
007F03C000001C00
00FE078000001C00
01FC0F0000001800
03F81E0000003800
03F03C0000007000
07E0780000007000
07C0F0000000E000
0FC0E0000000E000
1F81C0000001C000
1F03800000038000
1F07000000070000
3E070000000E0000
3C0E0000001E0000
7C1C0000003C0000
7818000000780000
7838000000F00000
7030000001E00000
F070000003C00000
E060000007800000
E04000000E000000
E00000001C000000
C000000078000000
C0000000F0000000
C0000001C0000000
C000000780000000
4000000E00000000
6000003C00000000
600000F000000000
300003C000000000
18001F0000000000
0E00FC0000000000
07FFF00000000000
00FF000000000000
ENDCHAR
STARTCHAR 00D3
ENCODING 211
SWIDTH 666 0
DWIDTH 56 0
BBX 67 79 9 0
BITMAP
0000000000000001C0
0000000000000003E0
0000000000000003E0
0000000000000003E0
0000000000000007E0
0000000000000007C0
000000000000000F80
000000000000000F00
000000000000001E00
000000000000003C00
000000000000007800
00000000000001E000
000000000000038000
000000000000060000
000000000000000000
000000000000000000
000000000000000000
000000000000000000
000000000000000000
000000000000000000
000000000000FF8000
00000000000FFFF000
00000000007FC07800
0000000003FC001C00
000000000FF0000600
000000003FC0000600
00000000FF00000300
00000003FC00000300
00000007F800000300
0000001FE000000300
0000003FC000000300
000000FF0000000700
000001FE0000000600
000003FC003FC00E00
00000FF003FFF01E00
00001FE00FF8383C00
00003FC03FC01C7800
00007F80FE000CF000
0000FF01FC0007E000
0001FE03F00007C000
0003F80FC0000F8000
0007F01F80003E0000
000FE03E0000FE0000
001FC07C0001C60000
003F80F80000060000
007F01E00000060000
007F03C000000C0000
00FE078000000C0000
01FC0F000000080000
03F81E000000180000
03F03C000000300000
07E078000000300000
07C0F0000000600000
0FC0E0000000E00000
1F81C0000000C00000
1F0380000001800000
1F0780000003000000
3E0700000006000000
3C0E0000000E000000
7C1C0000001C000000
781C00000038000000
783800000070000000
7030000000E0000000
F070000001C0000000
E06000000380000000
E04000000600000000
E00000001C00000000
C00000003800000000
C00000007000000000
C0000001C000000000
C00000038000000000
4000000E0000000000
6000003C0000000000
600000F00000000000
300003C00000000000
18001F000000000000
0E00FC000000000000
07FFF0000000000000
00FF00000000000000
ENDCHAR
STARTCHAR 00D4
ENCODING 212
SWIDTH 666 0
DWIDTH 56 0
BBX 66 78 9 0
BITMAP
000000000000000600
000000000000001E00
000000000000003E00
00000000000000FF00
00000000000001FF00
00000000000007FF00
0000000000000FE700
0000000000003F8380
000000000000FE0380
000000000001F80180
000000000007C001C0
00000000001F0000C0
00000000001C0000C0
000000000000000000
000000000000000000
000000000000000000
000000000000000000
000000000000000000
000000000000000000
0000000000003FE000
000000000007FFFC00
00000000003FC07E00
0000000001FC001F00
0000000007F0000780
000000001FC0000780
000000007F000003C0
00000001FC000003C0
00000003F8000003C0
0000000FE0000003C0
0000001FC0000003C0
0000007F00000007C0
000000FE0000000780
000003FC003FC00F80
000007F003FFF01F00
00000FE00FF0383E00
00001FC03FC01C7E00
00003F80FE000CF800
0000FF01F80007F000
0001FE07F00007E000
0003F80FC0000F8000
0007F01F80007E0000
000FE03E0003FE0000
001FC0FC0007860000
003F81F00000060000
003F03E00000060000
007F07C000000C0000
00FE0F8000000C0000
01FC0F000000080000
01F81E000000180000
03F03C000000300000
07E078000000300000
07C0F0000000600000
0FC1E0000000E00000
0F83C0000000C00000
1F0380000001800000
1F0700000003000000
3E0E00000006000000
3C0E0000000E000000
7C1C0000001C000000
783800000038000000
783800000070000000
7070000000E0000000
F060000001C0000000
E0E000000380000000
E0C000000600000000
E00000001C00000000
C00000003800000000
C00000007000000000
C0000001C000000000
C00000038000000000
4000000E0000000000
6000003C0000000000
600000F00000000000
300003C00000000000
18001F000000000000
0E00FC000000000000
07FFF0000000000000
00FF00000000000000
ENDCHAR
STARTCHAR 00D5
ENCODING 213
SWIDTH 666 0
DWIDTH 56 0
BBX 69 74 9 0
BITMAP
0000000000001F0018
0000000000007FC038
000000000000FFF870
000000000001FFFFF0
000000000001C3FFE0
000000000003807FC0
000000000003001F00
000000000000000000
000000000000000000
000000000000000000
000000000000000000
000000000000000000
000000000000000000
000000000000000000
000000000000000000
000000000000FF8000
00000000000FFFF000
00000000007FC07800
0000000003FC001C00
000000000FF0000600
000000003FC0000600
00000000FF00000300
00000003FC00000300
00000007F800000300
0000001FE000000300
0000003FC000000300
000000FF0000000700
000001FE0000000600
000003FC003FC00E00
00000FF003FFF01E00
00001FE00FF8383C00
00003FC03FC01C7800
00007F80FE000CF000
0000FF01FC0007E000
0001FE03F00007C000
0003F80FC0000F8000
0007F01F80007E0000
000FE03E0001FE0000
001FC07C0003860000
003F80F80000060000
007F01E00000060000
007F03C000000C0000
00FE078000000C0000
01FC0F000000080000
03F81E000000180000
03F03C000000300000
07E078000000300000
07C0F0000000600000
0FC1E0000000E00000
1F81C0000000C00000
1F0380000001800000
1F0700000003000000
3E0700000006000000
3C0E0000000E000000
7C1C0000001C000000
781800000038000000
783800000070000000
7030000000E0000000
F070000001C0000000
E06000000380000000
E0C000000600000000
E00000001C00000000
C00000003800000000
C00000007000000000
C0000001C000000000
C00000038000000000
4000000E0000000000
6000003C0000000000
600000F00000000000
300003C00000000000
18001F000000000000
0E00FC000000000000
07FFF0000000000000
00FF00000000000000
ENDCHAR
STARTCHAR 00D6
ENCODING 214
SWIDTH 666 0
DWIDTH 56 0
BBX 68 74 9 0
BITMAP
0000000000003800E0
0000000000007C01F0
000000000000FC03F0
000000000000FC03F0
000000000000F803E0
0000000000007001C0
000000000000000000
000000000000000000
000000000000000000
000000000000000000
000000000000000000
000000000000000000
000000000000000000
000000000000000000
000000000000000000
000000000000FFC000
00000000000FFFF000
00000000007FC03800
0000000003FC000C00
000000000FF0000600
000000003FC0000700
00000000FF00000300
00000003FC00000300
00000007F800000300
0000001FE000000300
0000003FC000000300
000000FF0000000700
000001FE0000000600
000003FC007F800E00
000007F003FFE01E00
00001FE00FF8303C00
00003FC03FC0187800
00007F80FF000CF000
0000FF01FC0007E000
0001FE07F000078000
0003FC0FC0000F0000
0007F01F80003C0000
000FE03E00007C0000
001FC07C0000C40000
003F80F80000040000
007F01F00000040000
007F03C00000080000
00FE07800000080000
01FC0F000000100000
03F81E000000100000
03F03C000000200000
07E078000000200000
07E0F0000000400000
0FC0E0000000C00000
1F81C0000000800000
1F0380000001000000
1F0780000002000000
3E0700000006000000
3C0E0000000C000000
7C1C00000018000000
781C00000030000000
783800000060000000
7030000000C0000000
F07000000180000000
E06000000300000000
E04000000600000000
E00000001C00000000
C00000003000000000
C00000006000000000
C0000001C000000000
C00000030000000000
4000000E0000000000
600000380000000000
600000F00000000000
300003C00000000000
18001F000000000000
0E00FC000000000000
07FFE0000000000000
00FF00000000000000
ENDCHAR
STARTCHAR 00D7
ENCODING 215
SWIDTH 833 0
DWIDTH 70 0
BBX 44 44 12 3
BITMAP
200000000040
7000000000E0
F800000001F0
7C00000003E0
3E00000007C0
1F0000000F80
0F8000001F00
07C000003E00
03E000007C00
01F00000F800
00F80001F000
007C0003E000
003E0007C000
001F000F8000
000F801F0000
0007C03E0000
0003E07C0000
0001F0F80000
0000F9F00000
00007FE00000
00003FC00000
00001F800000
00001F800000
00003FC00000
00007FE00000
0000F9F00000
0001F0F80000
0003E07C0000
0007C03E0000
000F801F0000
001F000F8000
003E0007C000
007C0003E000
00F80001F000
01F00000F800
03E000007C00
07C000003E00
0F8000001F00
1F0000000F80
3E00000007C0
7C00000003E0
F800000001F0
7000000000E0
200000000040
ENDCHAR
STARTCHAR 00D8
ENCODING 216
SWIDTH 666 0
DWIDTH 56 0
BBX 68 78 5 -11
BITMAP
000000000000000030
000000000000000070
0000000000000000E0
0000000000000001C0
000000000000000380
000000000000000700
000000000000000600
000000000000000E00
0000000000000FFC00
000000000000FFFF00
000000000007F873C0
00000000003FC0E0E0
0000000000FF00C060
0000000003FC018070
000000000FF0038030
000000003FC0070030
000000007F800E0030
00000001FE001C0030
00000003FC00380070
0000000FF000700060
0000001FE000E000E0
0000003FC003FC00E0
000000FF001FFF01C0
000001FE007F838380
000003FC01FF00CF00
000007F807FE005E00
00000FF01FDC007C00
00001FE03F3800F000
00003FC07C7003E000
00007F81F8700F6000
0000FF03F0E0086000
0001FE07C1C0006000
0003FC0F8380004000
0007F81F070000C000
0007F03C0E0000C000
000FE0781C00018000
001FC0F01C00018000
003F81E03800030000
003F03C07000030000
007F0780E000060000
007E0701C000060000
00FC0E0380000C0000
01F81C030000180000
01F83C070000300000
01F0780E0000700000
03E0701C0000600000
03E0E0380000C00000
07C0C0700001800000
0781C0E00003000000
078380C00006000000
070301C0000C000000
0F0703800038000000
0F0607000070000000
0E040E0000E0000000
0E001C0001C0000000
0E0018000300000000
0C0030000E00000000
0C0070001C00000000
0C00E0007000000000
0C01C000E000000000
060380038000000000
0607000F0000000000
0306003C0000000000
010C01F00000000000
00D80FC00000000000
007FFE000000000000
007FF0000000000000
00E000000000000000
01C000000000000000
038000000000000000
070000000000000000
0E0000000000000000
1E0000000000000000
1C0000000000000000
380000000000000000
700000000000000000
E00000000000000000
C00000000000000000
ENDCHAR
STARTCHAR 00D9
ENCODING 217
SWIDTH 845 0
DWIDTH 71 0
BBX 77 78 10 0
BITMAP
00000000000000000700
00000000000000000F80
00000000000000000F80
00000000000000000F80
00000000000000000F80
00000000000000000780
00000000000000000780
00000000000000000380
000000000000000003C0
000000000000000001C0
000000000000000000E0
00000000000000000070
00000000000000000038
00000000000000000018
00000000000000000000
00000000000000000000
00000000000000000000
00000000000000000000
00000000000000000000
0000003FFC0000000000
000003FFFF8000000000
00001FC003E000000000
0000FC00007800000000
0003E000001C00000000
00078000000600000000
001E0000000300000000
00380000000180000000
00F00000000180000000
01C000000000C0000000
038000001000C0000000
07000000300060000000
0E000000300060000000
0C000000300060000000
18000000700060000000
38000000600060000000
30000000E00060000000
60000001C000E0000300
60000003C000E0000780
600000038001E0001F80
C00000078001C0003F80
C000000F0003C0007F00
C000001E0003C000FE00
C000003C00078000FC00
C0000078000F8001F000
C00001F0001F0003E000
600003E0001F0007C000
60000FC0003E000F8000
30003F80007C001F0000
3800FE0000FC003E0000
1E07F80001F8007E0000
07FFE00003F000FC0000
01FF000007E001F80000
000000000FE003F00000
000000001FC007E00000
000000003F800FC00000
000000007F001F800000
00000000FE003F000000
00000000FE007E000000
00000001FC00FC000000
00000003F801F8000000
00000007F003F0000000
0000000FE007F0000000
0000001FC00FE0000000
0000003F801FC0000000
0000007F003F80000000
000000FE007F00020000
000001FE00FE00060000
000003FC01FE001C0000
000003F8037C00380000
000007F00EF800600000
000007E01CF001C00000
00000FC030F003800000
00000F80E1E00E000000
00000F01C1C03C000000
00000F0701C0F0000000
00000F1E01C3C0000000
000007F800FF00000000
000003C0007C00000000
ENDCHAR
STARTCHAR 00DA
ENCODING 218
SWIDTH 845 0
DWIDTH 71 0
BBX 84 79 10 0
BITMAP
00000000000000000000E0
00000000000000000001F0
00000000000000000001F0
00000000000000000003F0
00000000000000000003F0
00000000000000000003E0
00000000000000000007C0
0000000000000000000F80
0000000000000000000F00
0000000000000000001E00
0000000000000000003C00
000000000000000000F000
000000000000000001C000
0000000000000000030000
0000000000000000000000
0000000000000000000000
0000000000000000000000
0000000000000000000000
0000000000000000000000
0000000000000000000000
0000003FFC000000000000
000003FFFF800000000000
00001FC003E00000000000
0000FC0000780000000000
0003E000001C0000000000
0007800000060000000000
001E000000030000000000
0038000000018000000000
00F0000000018000000000
01C000000000C000000000
038000001000C000000000
0700000030006000000000
0E00000030006000000000
0C00000030006000000000
1800000070006000000000
3800000060006000000000
30000000E0006000000000
60000001C000E000038000
60000003C000E000078000
600000038001E0000FC000
C00000078001C0001F8000
C000000F0003C0003F0000
C000001E0003C0007E0000
C000003C00078000FC0000
C0000078000F8001F80000
C00001F0001F0003F00000
600003E0001F0007E00000
60000FC0003E000FC00000
30003F80007C001F800000
3800FE0000FC003F000000
1E07F80001F8007E000000
07FFE00003F000FC000000
01FF000007E001F8000000
000000000FE003F0000000
000000001FC007E0000000
000000003F800FC0000000
000000007F001F80000000
00000000FE003F00000000
00000000FE007E00000000
00000001FC00FC00000000
00000003F801F800000000
00000007F003F800000000
0000000FE007F000000000
0000001FC00FE000000000
0000003F801FC000000000
0000007F003F8000000000
000000FE007F0002000000
000001FE00FE0006000000
000003FC01FE000C000000
000003F8037C0038000000
000007F006F80070000000
000007E01CF001C0000000
00000FC030F00380000000
00000F80E1E00F00000000
00000F01C1C03C00000000
00000F0701C0F000000000
00000F1E01C3C000000000
000007F800FF0000000000
000003C0007C0000000000
ENDCHAR
STARTCHAR 00DB
ENCODING 219
SWIDTH 845 0
DWIDTH 71 0
BBX 83 78 10 0
BITMAP
0000000000000000000300
0000000000000000000700
0000000000000000001F00
0000000000000000003F80
0000000000000000007F80
000000000000000001FF80
000000000000000003F3C0
00000000000000000FC1C0
00000000000000001F01C0
00000000000000007C00C0
0000000000000000F800E0
0000000000000003E00060
0000000000000003800060
0000000000000000000000
0000000000000000000000
0000000000000000000000
0000000000000000000000
0000000000000000000000
0000000000000000000000
0000003FFC000000000000
000003FFFF800000000000
00001FC003E00000000000
0000FC0000780000000000
0003E000001C0000000000
0007800000060000000000
001E000000030000000000
0038000000018000000000
00F0000000018000000000
01C000000000C000000000
038000001000C000000000
0700000030006000000000
0E00000030006000000000
0C00000030006000000000
1800000070006000000000
3800000060006000000000
30000000E0006000000000
60000001C000E000038000
60000003C000E00007C000
600000038001E0000FC000
C00000078001C0001F8000
C000000F0003C0003F0000
C000001E0003C0007E0000
C000003C00078000FC0000
C0000078000F8001F80000
C00001F0001F0003F00000
600003E0001F0007E00000
60000FC0003E000FC00000
30003F80007C001F800000
3800FE0000FC003F000000
1E07F80001F8007E000000
07FFE00003F000FC000000
01FF000007E001F8000000
000000000FE003F0000000
000000001FC007E0000000
000000003F800FC0000000
000000007F001F80000000
00000000FE003F00000000
00000000FE007E00000000
00000001FC00FC00000000
00000003F801F800000000
00000007F003F800000000
0000000FE007F000000000
0000001FC00FE000000000
0000003F801FC000000000
0000007F003F8000000000
000000FE007F0002000000
000001FE00FE0006000000
000003FC01FE000C000000
000003F8037C0038000000
000007F006F80070000000
000007E01CF001C0000000
00000FC030F00380000000
00000F80E1E00F00000000
00000F01C1C03C00000000
00000F0701C0F000000000
00000F1E01C3E000000000
000007F800FF0000000000
000003C0007C0000000000
ENDCHAR
STARTCHAR 00DC
ENCODING 220
SWIDTH 845 0
DWIDTH 71 0
BBX 84 74 10 0
BITMAP
00000000000000001C00E0
00000000000000003E01F0
00000000000000007E03F0
00000000000000007E03F0
00000000000000007C03E0
00000000000000003801C0
0000000000000000000000
0000000000000000000000
0000000000000000000000
0000000000000000000000
0000000000000000000000
0000000000000000000000
0000000000000000000000
0000000000000000000000
0000000000000000000000
0000003FFC000000000000
000003FFFF800000000000
00001FC003E00000000000
0000FC0000780000000000
0003E000001C0000000000
0007800000060000000000
001E000000030000000000
0038000000018000000000
00F0000000018000000000
01C000000000C000000000
038000001000C000000000
0700000030006000000000
0E00000030006000000000
0C00000030006000000000
1800000070006000000000
3800000060006000000000
30000000E0006000000000
60000001C000E000038000
60000003C000E000078000
600000038001E0000F8000
C00000078001C0001F8000
C000000F0003C0003F0000
C000001E0003C0007E0000
C000003C00078000FC0000
C0000078000F8001F80000
C00001F0001F0003F00000
600003E0001F0007E00000
60000FC0003E000FC00000
30003F80007C001F800000
3800FE0000FC003F000000
1E07F80001F8007E000000
07FFE00003F000FC000000
01FF000007E001F8000000
000000000FE003F0000000
000000001FC007E0000000
000000003F800FC0000000
000000007F001F80000000
00000000FE003F00000000
00000000FE007E00000000
00000001FC00FC00000000
00000003F801F800000000
00000007F003F000000000
0000000FE007F000000000
0000001FC00FE000000000
0000003F801FC000000000
0000007F003F8000000000
000000FE007F0002000000
000001FE00FE0006000000
000003FC01FE000C000000
000003F8037C0038000000
000007F006F80070000000
000007E01CF001C0000000
00000FC030F00380000000
00000F80E1E00F00000000
00000F01C1C03C00000000
00000F0701C0F000000000
00000F1E01C3E000000000
000007F800FF0000000000
000003C0007C0000000000
ENDCHAR
STARTCHAR 00DD
ENCODING 221
SWIDTH 809 0
DWIDTH 68 0
BBX 80 79 12 0
BITMAP
00000000000000000070
000000000000000000F8
000000000000000000F8
000000000000000001F8
000000000000000001F8
000000000000000001F0
000000000000000003E0
000000000000000007C0
00000000000000000780
00000000000000000F00
00000000000000001E00
00000000000000007800
0000000000000000E000
00000000000000018000
00000000000000000000
00000000000000000000
00000000000000000000
00000000000000000000
00000000000000000000
00000000000000000000
0000007FF00000000000
000007FFFF0000000000
00003F0007C000000000
0000F00000E000000000
0003C000007000000007
000F000000380000000E
001C0000001C00000038
00700000000C00000070
00E00000000C000000E0
01800001000E000001C0
03000001000E00000380
06000003000E00000600
0C000003001E00000E00
18000006001E00001C00
38000006003E00003800
3000000C003C00007000
6000001C007C0000E000
6000003800F80001C000
E000007801F800038000
C00000F003F000078000
C00001E007F0000F0000
C00003C00FE0001E0000
C00007C01FC0003C0000
C0000F803F80007C0000
E0003F007F0000F80000
60007C00FE0001F00000
7001F801FC0003F00000
3C0FE003F80007E00000
0FFF8007F0000FC00000
03FC000FE0001FC00000
0000001FC0003F800000
0000003F80007F000000
0000007F0000FF000000
0000007E0001FE000000
000000FC0003FC000000
000000F80007F8000000
000001F0001FF8000000
000001F0003FF0000000
000001E00077E0000000
000001C001CFE0000000
000001C0039FC0000000
000000C00E3F80000000
000000C0387F00000000
00000060E07E00000000
1E00003F00FC00000000
3F00000001F800000000
7F80000003F000000000
FF80000007E000000000
FF8000001FC000000000
FF8000003F8000000000
FF0000007F0000000000
C0000000FC0000000000
C0000003F80000000000
6000000FE00000000000
3000003F800000000000
180000FE000000000000
0F0007F8000000000000
03FFFFC0000000000000
007FF800000000000000
ENDCHAR
STARTCHAR 00DE
ENCODING 222
SWIDTH 809 0
DWIDTH 68 0
BBX 81 59 3 0
BITMAP
0000000000000000000380
0000000000000000000F00
0000000000000000003C00
0000000000000000007800
000000000000000001E000
000000000000000003C000
00000000000000000F8000
00000000000000001E0000
00000000000000003C0000
0000000000000000F80000
000000000003FFFFF00000
0000000000FFFFFFE00000
000000000FF80003E00000
000000003F000007F80000
00000001F800000F9C0000
00000007C000001F0E0000
0000001F0000003E060000
000000780000003E030000
000000F00000007C038000
000003C0000400F8018000
00000700000401F8018000
00001E00000C03F001C000
00003800000C03E001C000
00007000001C07E001C000
0000E00000180FC001C000
0001C00000381F8001C000
0003800000303F8003C000
0003000000703F0003C000
0006000000707E0003C000
000E000000E0FE0007C000
000C000001C1FC000FC000
001C000001C1F8000F8000
001800000383F8001F8000
003800000707F0003F8000
003000000F0FE0003F0000
003000001E1FE0007F0000
003000003C1FC000FE0000
00300000783F8001FE0000
00300000F07F8003FC0000
00100001E0FF0007F80000
0018000781FE001FF00000
000C000F01FE003FE00000
0006003C03FC00FFC00000
000381F007F807FF800000
1E007F000FF7FFFE000000
7F0000001FCFFFFC000000
7F8000003F87FFE0000000
FF8000007F00FF00000000
FF800000FE000000000000
FF000001FC000000000000
FE000003F8000000000000
E000000FF0000000000000
6000001FC0000000000000
7000003F80000000000000
380000FE00000000000000
1C0007F800000000000000
0FC03FE000000000000000
03FFFF0000000000000000
003FF80000000000000000
ENDCHAR
STARTCHAR 00DF
ENCODING 223
SWIDTH 440 0
DWIDTH 37 0
BBX 71 78 -17 -23
BITMAP
00000000000000003C
0000000000000001FE
0000000000000003EE
000000000000000F86
000000000000001E06
000000000000003C04
00000000000000F80C
00000000000001E018
00000000000003C030
000000000000078060
0000000000000F00C0
0000000000001E0180
0000000000003C0300
000000000000780E00
000000000000F81C00
000000000001F03800
000000000003E06000
000000000007C1C000
00000000000F838000
00000000000F060000
00000000001F0C0000
00000000003E180000
00000000007C300000
0000000000F8600000
0000000001F0C00000
0000000003F1C00000
0000000003E3800000
0000000007C3800000
000000000F83800000
000000001F87800000
000000003F07000000
000000003E0F000000
000000007C0F000000
00000001FC0F000000
00000003F80F000000
00000007F00F000000
0000001FE01E000000
0000003FE01E000000
00000067C01E000000
000000CF801E000000
0000039F001E000000
0000073F003E000000
00000C3E003E000000
0000187C003C030000
000030F8007C070000
000001F8007C0E0000
000001F0007C180000
000003E000F8700000
000007C700F8E00000
00000FCF80F3800000
00000F8F81FE000000
00001F0F03FC000000
00003E0C07F0000000
00007E07FF80000000
00007C01FC00000000
0000F8000000000000
0001F0000000000000
0003F0000000000000
0003E0000000000000
0007C0000000000000
000F80000000000000
001F80000000000000
001F00000000000000
003E00000000000000
007C00000000000000
00FC00000000000000
00F800000000000000
01F000000000000000
03E000000000000000
07E000000000000000
07C000000000000000
0F8000000000000000
1F0000000000000000
1F0000000000000000
3E0000000000000000
7C0000000000000000
F80000000000000000
F80000000000000000
ENDCHAR
STARTCHAR 00E0
ENCODING 224
SWIDTH 380 0
DWIDTH 32 0
BBX 35 38 -1 0
BITMAP
0000038000
000007C000
000007C000
000007C000
000007C000
000003C000
000003C000
000001C000
000001E000
000000E000
0000007000
0000003800
0000001800
0000000C00
0000000000
0000000000
0000000000
0000FC7C00
0007FCFC00
001FC7F800
007F07F000
00FE0FE000
01F80FC000
07F01F8000
0FE03F0000
1FC07E0020
3F80FC0060
3F01F800C0
7E03F00380
7E07E00700
FC0FE00C00
F81FC03800
F83F807000
F07F01C000
F0EF078000
F18F1E0000
7F07F80000
3C03E00000
ENDCHAR
STARTCHAR 00E1
ENCODING 225
SWIDTH 380 0
DWIDTH 32 0
BBX 37 38 -1 0
BITMAP
0000000070
00000000F8
00000000F8
00000001F8
00000001F8
00000001F0
00000003E0
00000007C0
0000000780
0000000F00
0000001E00
0000007800
000000E000
0000018000
0000000000
0000000000
0000000000
00007E3F00
0003FF7F00
000FF1FE00
003FC1F800
00FF03F000
01FC07E000
03F80FC000
0FF01F8000
1FE03F0008
1FC07E0038
3F80FC0070
7F01F800E0
7E03F00180
FC07E00700
F80FC00E00
F81F803800
F03F80F000
F06F03C000
F18F1F0000
7F07FC0000
3C03E00000
ENDCHAR
STARTCHAR 00E2
ENCODING 226
SWIDTH 380 0
DWIDTH 32 0
BBX 36 37 -1 0
BITMAP
0000000180
0000000380
0000000F80
0000001FC0
0000003FC0
000000FFC0
000001F9E0
000007E0E0
00000F80E0
00003E0060
00007C0070
0001F00030
0001C00030
0000000000
0000000000
0000000000
00007E3E00
0003FE7E00
000FE3FC00
003F83F800
00FE03F000
01FC07E000
07F80FC000
0FE01F8000
1FC03F0010
1F807C0030
3F00FC00E0
7F01F801C0
7E03F00300
FC07E00E00
F80FC01C00
F81F807800
F03F80E000
F06F038000
F18F1F0000
7F07FC0000
3C03E00000
ENDCHAR
STARTCHAR 00E3
ENCODING 227
SWIDTH 380 0
DWIDTH 32 0
BBX 39 34 -1 0
BITMAP
000007C006
00001FF00E
00003FFE1C
00007FFFFC
000070FFF8
0000E01FF0
0000C007C0
0000000000
0000000000
0000000000
0000000000
0000000000
0000000000
00007C3E00
0003FE7E00
000FE3FC00
003F83F800
00FE03F000
01FC07E000
07F80FC000
0FE01F0000
1FC03E0010
1F807C0030
3F00F80060
7E01F801C0
7E03F00380
FC07E00600
F80FC01C00
F81F807800
F03F80E000
F06F038000
F18F1F0000
7F07FC0000
3C03E00000
ENDCHAR
STARTCHAR 00E4
ENCODING 228
SWIDTH 380 0
DWIDTH 32 0
BBX 37 33 -1 0
BITMAP
00000E0070
00001F00F8
00003F01F8
00003F01F8
00003E01F0
00001C00E0
0000000000
0000000000
0000000000
0000000000
0000000000
0000000000
00007E3E00
0003FF7E00
000FF3FC00
003F81F800
00FF03E000
01FC07C000
03F80F8000
07F01F0000
0FC03E0008
1F807C0038
3F00F80070
7F01F000E0
7E03E00180
FC07E00700
F80FC00E00
F81F803800
F03F80F000
F06F03C000
F18F1F0000
7F07FC0000
3C03E00000
ENDCHAR
STARTCHAR 00E5
ENCODING 229
SWIDTH 380 0
DWIDTH 32 0
BBX 36 36 -1 1
BITMAP
000001F800
000007FE00
00000F0F00
00000C0300
00001C0380
0000180180
0000180180
0000180180
00001C0380
00000C0300
00000F0F00
000007FE00
000001F800
0000000000
0000000000
0001F0FF80
000FF9FF80
003FCBFF00
007F07FC00
01FE0FF800
03F80FF000
07F01FE000
0FE03F8000
1FC07F0010
3F80FE0030
3F01FC00E0
7E03F801C0
7E07F00300
FC0FE00E00
F81FC01C00
F83F807000
F07F80E000
F0EF038000
F18F1F0000
7F07F80000
3C03E00000
ENDCHAR
STARTCHAR 00E6
ENCODING 230
SWIDTH 440 0
DWIDTH 37 0
BBX 42 21 -2 0
BITMAP
0000FFFFE000
0007FFFFF000
001F87FC3000
003E0FF03000
00FC0FE06000
01F81FC06000
07F01F81C000
0FE03F0380C0
1FC07E0F01C0
1F807C7C0380
3F00FFF00700
7E01FFC00E00
7C03FE001C00
FC07F8003800
F80EF0007000
F818F001C000
F030F0038000
F060700F0000
F1C0783C0000
7F003FF00000
3C000F800000
ENDCHAR
STARTCHAR 00E7
ENCODING 231
SWIDTH 285 0
DWIDTH 24 0
BBX 35 34 -7 -15
BITMAP
000007F000
000038F800
0000E1F800
0001C1F800
000781F000
000F00E000
001E000000
003E000060
007C0000C0
0078000380
00F8000700
00F0000E00
00F0001800
00F0007000
00F001E000
00F8078000
007C3E0000
003FF80000
001FC00000
0000000000
0000000000
0000000000
0000000000
007F000000
00FF800000
0007C00000
0003C00000
0003C00000
0003C00000
0003C00000
0007800000
000F800000
FFFF000000
1FFC000000
ENDCHAR
STARTCHAR 00E8
ENCODING 232
SWIDTH 273 0
DWIDTH 23 0
BBX 25 38 1 0
BITMAP
0001F000
0003F800
0007F800
0007F800
0007F800
0007F800
0003F800
0003F800
0001F800
0000F800
00007800
00007800
00003800
00001800
00000000
00000000
00000000
0003F000
001FF800
007E1800
00FC1800
03F01000
07E03000
0FC06000
1F80C000
3F038080
3E0E0180
7E7C0300
7FF00600
FF800C00
F8003800
F0007000
F000E000
F0038000
700F0000
783C0000
3FF00000
1F800000
ENDCHAR
STARTCHAR 00E9
ENCODING 233
SWIDTH 273 0
DWIDTH 23 0
BBX 28 38 1 0
BITMAP
000000E0
000001F0
000001F0
000003F0
000003F0
000003E0
000007C0
00000F80
00000F00
00001E00
00003C00
0000F000
0001C000
00030000
00000000
00000000
00000000
0007E000
001FF000
007E3000
01F83000
03F02000
07E06000
0FC0C000
1F818000
3F070000
3E1E0180
7C780380
7FE00600
FF800C00
F8001800
F0007000
F000E000
F0038000
700F0000
783C0000
3FF00000
1F800000
ENDCHAR
STARTCHAR 00EA
ENCODING 234
SWIDTH 273 0
DWIDTH 23 0
BBX 27 37 1 0
BITMAP
00000300
00000700
00001F00
00003F80
00007F80
0001FF80
0003F3C0
000FC1C0
001F81C0
007E00C0
00F800E0
03E00060
03800020
00000000
00000000
00000000
0007E000
001FF000
007C3000
01F83000
03F02000
07C06000
0F80C000
1F018000
3F070020
3E1E0060
7C7801C0
7FE00380
FF800700
F8000C00
F0003800
F0007000
F001C000
70078000
783E0000
3FF80000
0FC00000
ENDCHAR
STARTCHAR 00EB
ENCODING 235
SWIDTH 273 0
DWIDTH 23 0
BBX 29 33 1 0
BITMAP
001C0070
003E00F8
007E01F8
007E01F8
007C01F0
003800E0
00000000
00000000
00000000
00000000
00000000
00000000
0003E000
001FF000
007E3000
00F83000
03F03000
07E06000
0FC0C000
1F818000
3F070040
3E1E00C0
7C780180
7FE00300
FF800E00
F8001C00
F0003800
F000E000
F001C000
70070000
783E0000
3FF00000
0FC00000
ENDCHAR
STARTCHAR 00EC
ENCODING 236
SWIDTH 250 0
DWIDTH 21 0
BBX 23 38 1 0
BITMAP
0000C0
0001E0
0001E0
0001E0
0001E0
0001E0
0000E0
0000E0
000070
000030
000018
00000C
00000C
000006
000000
000000
000000
0007E0
001FE0
003FC0
00FF00
01FE00
03FC00
0F7800
1DF000
3BE000
E7C002
CF800E
1F0018
3E0030
3E00E0
7C01C0
780300
F80E00
F03800
F0F000
7F8000
3E0000
ENDCHAR
STARTCHAR 00ED
ENCODING 237
SWIDTH 250 0
DWIDTH 21 0
BBX 29 38 1 0
BITMAP
00000070
000000F8
000000F8
000001F8
000001F8
000001F0
000003E0
000007C0
00000780
00000F00
00001E00
00007800
0000E000
00018000
00000000
00000000
00000000
0007E000
001FE000
003FC000
00FF0000
01FE0000
03FC0000
0FF80000
1DF00000
33E00000
E7C00C00
CF801800
1F003000
3E006000
3E00C000
7C038000
F8060000
F81C0000
F0380000
F1E00000
7F800000
3C000000
ENDCHAR
STARTCHAR 00EE
ENCODING 238
SWIDTH 250 0
DWIDTH 21 0
BBX 28 37 1 0
BITMAP
00000180
00000380
00000F80
00001FC0
00003FC0
0000FFC0
0001F9E0
0007E1E0
000F80E0
003E00E0
00780070
01F00070
01C00030
00000000
00000000
00000000
0007E000
001FE000
003FC000
00FF0000
01FE0000
03FC0000
0FF80000
1BF00000
37E00000
EFC00400
8F801800
1F003000
3E006000
7E00C000
7C038000
F8070000
F81C0000
F0380000
F1E00000
7F800000
3C000000
ENDCHAR
STARTCHAR 00EF
ENCODING 239
SWIDTH 250 0
DWIDTH 21 0
BBX 30 33 1 0
BITMAP
000E0038
001F007C
003F00FC
003F00FC
003E00F8
001C0070
00000000
00000000
00000000
00000000
00000000
00000000
0007E000
001FE000
003FC000
00FF0000
01FE0000
03FC0000
0EF80000
1DF00000
33E00000
E7C00600
8F800C00
1F001800
3E003000
3E00E000
7C018000
F8070000
F80E0000
F0380000
F0E00000
7F800000
3E000000
ENDCHAR
STARTCHAR 00F0
ENCODING 240
SWIDTH 321 0
DWIDTH 27 0
BBX 42 49 -1 0
BITMAP
000000080000
0000001C0000
0000001C0000
0000001C0000
0000001C0000
0000001C0000
0000001C0000
0000001C0000
0000001C0000
0000001C0000
0000001C0000
0000001C0000
0000001C0040
0000001C03C0
0000001C1F80
0000001CFE00
0000001FF000
0000001F8000
000001FC0000
00000FFC0000
00007F1C0000
0003F8180000
000FC0180000
000C00180000
000000180000
000000380000
000000300000
000000300000
00003FF00000
0001FFF00000
0007F8E00000
001FE0E00000
003F80E00000
00FE00C00000
01FC00C00000
03F801800000
07F003800000
0FC007800000
1F800F0C0000
3F001FF80000
7E003FE00000
7C00F8000000
FC01F0000000
F803C0000000
F00F80000000
F03E00000000
F0F800000000
7FE000000000
3F0000000000
ENDCHAR
STARTCHAR 00F1
ENCODING 241
SWIDTH 428 0
DWIDTH 36 0
BBX 39 34 0 0
BITMAP
000007C006
00001FF00E
00003FFE1C
00007FFFFC
000070FFF8
0000E01FF0
0000C007C0
0000000000
0000000000
0000000000
0000000000
0000000000
0000000000
0003C01E00
000FC0FF00
001EE1FF00
0078E70F00
00E1FE1F00
01C1F83E00
0383F0FC00
0607C1FC00
0C0F83F802
183F07F006
007E0FC00C
00FC1F8038
01F83F0070
03F07E00C0
07E07C0380
0FC0F80700
1F80F01C00
3F00E07800
7E00F1E000
FC007F8000
F8003C0000
ENDCHAR
STARTCHAR 00F2
ENCODING 242
SWIDTH 321 0
DWIDTH 27 0
BBX 32 38 -1 0
BITMAP
00003800
00007C00
00007C00
00007C00
00007C00
00003C00
00003C00
00001E00
00001E00
00000E00
00000700
00000380
000001C0
000000C0
00000000
00000000
00000000
00003F00
0001FF80
0007F3C0
001FC1C0
007F01C0
00FE01C0
01F803C0
03F00780
0FE00700
1FC00F00
1F801E07
3F003FFE
7E007FF0
7C01F000
FC03E000
F8078000
F01F0000
F03C0000
F0F00000
7FC00000
3F000000
ENDCHAR
STARTCHAR 00F3
ENCODING 243
SWIDTH 321 0
DWIDTH 27 0
BBX 33 38 -1 0
BITMAP
0000000700
0000000F80
0000000F80
0000001F80
0000001F80
0000001F00
0000003E00
0000007C00
0000007800
000000F000
000001E000
0000078000
00000E0000
0000180000
0000000000
0000000000
0000000000
00007E0000
0003FF0000
000FF38000
001FC18000
007F018000
00FE018000
03F8038000
07F0070000
0FE0070000
1FC00E0000
1F801E0380
3F003FFE00
7E007FF000
7C01F00000
FC03E00000
F807800000
F01F000000
F03C000000
F0F0000000
7FC0000000
3F00000000
ENDCHAR
STARTCHAR 00F4
ENCODING 244
SWIDTH 321 0
DWIDTH 27 0
BBX 32 37 -1 0
BITMAP
00000018
00000038
000000F8
000001FC
000003FC
00000FFC
00001F9E
00007E1E
0000F80E
0003E00E
0007C007
001F0003
001C0003
00000000
00000000
00000000
00007E00
0003FF00
000FF380
001FC180
007F0180
00FE0180
03F80380
07F00700
0FE00700
1FC00E00
1F801E07
3F003FFE
7E007FF0
7C01F000
FC03E000
F8078000
F01F0000
F03C0000
F0F80000
7FC00000
3F000000
ENDCHAR
STARTCHAR 00F5
ENCODING 245
SWIDTH 321 0
DWIDTH 27 0
BBX 35 34 -1 0
BITMAP
00007C0060
0001FF00E0
0003FFE1C0
0007FFFFC0
00070FFF80
000E01FF00
000C007C00
0000000000
0000000000
0000000000
0000000000
0000000000
0000000000
00007E0000
0003FF0000
000FF38000
001FC18000
007F018000
00FE018000
03F8038000
07F0070000
0FE0070000
1FC00E0000
1F801E0700
3F003FFE00
7E007FF000
7C01F00000
FC03E00000
F807800000
F01F000000
F03C000000
F0F0000000
7FC0000000
3F00000000
ENDCHAR
STARTCHAR 00F6
ENCODING 246
SWIDTH 321 0
DWIDTH 27 0
BBX 33 33 -1 0
BITMAP
0000E00700
0001F00F80
0003F01F80
0003F01F80
0003E01F00
0001C00E00
0000000000
0000000000
0000000000
0000000000
0000000000
0000000000
00007E0000
0003FF0000
000FF38000
001FC18000
007F018000
00FE018000
03F8030000
07F0070000
0FE0060000
1FC00C0000
3F80180780
3F003FFE00
7E007FF000
7C01E00000
FC03C00000
F807800000
F01E000000
F03C000000
F0F0000000
7FC0000000
3E00000000
ENDCHAR
STARTCHAR 00F7
ENCODING 247
SWIDTH 833 0
DWIDTH 70 0
BBX 48 35 10 7
BITMAP
000003C00000
000007E00000
00000FF00000
00000FF00000
00000FF00000
00000FF00000
000007E00000
000003C00000
000000000000
000000000000
000000000000
000000000000
000000000000
000000000000
000000000000
000000000000
FFFFFFFFFFFF
FFFFFFFFFFFF
FFFFFFFFFFFF
000000000000
000000000000
000000000000
000000000000
000000000000
000000000000
000000000000
000000000000
000003C00000
000007E00000
00000FF00000
00000FF00000
00000FF00000
00000FF00000
000007E00000
000003C00000
ENDCHAR
STARTCHAR 00F8
ENCODING 248
SWIDTH 333 0
DWIDTH 28 0
BBX 33 33 -1 -7
BITMAP
000000C000
000001C000
0000018000
0000030000
0000060000
00003E0000
0001FF8000
0007F98000
001FF0C000
007FB0C000
00FF60C000
01FCC1C000
07F9838000
0FF3838000
1FC3070000
1F860F0380
3F0C1FFF00
7E1C3FF800
7E38780000
FC31F00000
F863C00000
F0CF800000
F1DE000000
F1FC000000
7FF0000000
3F80000000
0E00000000
1C00000000
1800000000
3000000000
7000000000
E000000000
C000000000
ENDCHAR
STARTCHAR 00F9
ENCODING 249
SWIDTH 440 0
DWIDTH 37 0
BBX 40 38 1 0
BITMAP
000001C000
000003E000
000003E000
000003E000
000003E000
000001E000
000001E000
000000E000
000000F000
0000007000
0000003800
0000001C00
0000000E00
0000000600
0000000000
0000000000
0000000000
0007E001F0
001FE003F0
003FC00FC0
00FF001F80
01FE003F00
03FC007E00
0FF800FC00
1DF001F000
33E003E000
E7C00FC007
CF801F800E
1F003F001C
3E007E0030
3E00FC00E0
7C01F801C0
7803F00700
F80FF01E00
F039E07800
F0E1E1E000
7F80FF8000
3E007C0000
ENDCHAR
STARTCHAR 00FA
ENCODING 250
SWIDTH 440 0
DWIDTH 37 0
BBX 37 38 1 0
BITMAP
0000000070
00000000F8
00000000F8
00000001F8
00000001F8
00000001F0
00000003E0
00000007C0
0000000780
0000000F00
0000001E00
0000007800
000000E000
0000018000
0000000000
0000000000
0000000000
0007E001F0
001FE003F8
003FC007E0
00FF000FC0
01FE001F80
03FC003E00
0FF800FC00
1DF001F800
33E003F008
E7C007C018
CF800F8030
1F001F0060
3E007E00C0
3E00FC0380
7C01F80700
7803F00C00
F80FF03800
F039E0F000
F0E1E3C000
7F80FF0000
3E007C0000
ENDCHAR
STARTCHAR 00FB
ENCODING 251
SWIDTH 440 0
DWIDTH 37 0
BBX 39 37 1 0
BITMAP
0000000180
0000000380
0000000F80
0000001FC0
0000003FC0
000000FFC0
000001F9E0
000007E0E0
00000F80E0
00003F0060
00007C0070
0001F00030
0001C00030
0000000000
0000000000
0000000000
0007E001E0
001FE007F0
003FC00FC0
00FF001F80
01FE003F00
03FC007E00
0FF800FC00
1DF001F000
33E003E002
E7C00FC006
CF801F800C
1F003F0038
3E007E0070
3E00FC00E0
7C01F80380
7807F00700
F80FF01C00
F039E07800
F0E1E1E000
7F80FF8000
3E007C0000
ENDCHAR
STARTCHAR 00FC
ENCODING 252
SWIDTH 440 0
DWIDTH 37 0
BBX 38 33 1 0
BITMAP
00000E0038
00001F007C
00003F00FC
00003F00FC
00003E00F8
00001C0070
0000000000
0000000000
0000000000
0000000000
0000000000
0000000000
0007E000F8
001FE001FC
003FC003F0
00FF0007E0
01FE001FC0
03FC003F00
0FF8007E00
1DF000F800
33E001F004
E7C007E00C
CF800FC018
1F001F0030
3E003E00E0
3E007C01C0
7C01F80300
7803F80E00
F80FF03C00
F019E07000
F0E1E3C000
7F80FF0000
3E007C0000
ENDCHAR
STARTCHAR 00FD
ENCODING 253
SWIDTH 464 0
DWIDTH 39 0
BBX 51 61 -9 -23
BITMAP
00000000000E00
00000000001F00
00000000001F00
00000000003F00
00000000003F00
00000000003E00
00000000007C00
0000000000F800
0000000000F000
0000000001E000
0000000003C000
000000000F0000
000000001C0000
00000000300000
00000000000000
00000000000000
00000000000000
000000F0003C00
000003F8007800
000007F801F000
00001C7803E000
000030F807C000
000061F00F8000
0000C7E01F0000
00018FC03E0000
00031F80FC0020
00063F01FC00C0
00007E03F801C0
0000FC07F00380
0001F80FE00600
0003F01FC00C00
0003E03F803800
0007C0FF006000
000781FE01C000
000703FE070000
00070FFC1E0000
0003FEF9F00000
0001F0FFC00000
000003FC000000
00000FE0000000
00003FC0000000
0000F7C0000000
0003CF80000000
000F1F00000000
003C1E00000000
00703C00000000
01E07800000000
0380F000000000
0700F000000000
0E01E000000000
1C03C000000000
38078000000000
300F0000000000
601E0000000000
603C0000000000
C0380000000000
C0F00000000000
C1C00000000000
E3800000000000
7F000000000000
3C000000000000
ENDCHAR
STARTCHAR 00FE
ENCODING 254
SWIDTH 404 0
DWIDTH 34 0
BBX 63 72 -20 -23
BITMAP
000000000000001C
000000000000003E
000000000000007C
00000000000000F8
00000000000001F0
00000000000003E0
00000000000007C0
0000000000000F80
0000000000001F80
0000000000003F00
0000000000007E00
0000000000007C00
000000000000F800
000000000001F000
000000000003E000
000000000007C000
00000000000F8000
00000000001F8000
00000000003F0000
00000000007E0000
0000000000FC0000
0000000001F80000
0000000001F00000
0000000003E00000
0000000007C00000
000000000F800000
000000001F800000
000000003F000000
000000007E0F0000
00000000FC7F8000
00000003F9FF8000
00000007F3878000
0000000FEF0F8000
0000003BFC1F0000
00000077F87E0000
000000EFE0FE0000
0000019FC1FC0000
0000033F83F00380
0000003F07E00700
0000007C0FC00C00
000000F81F803800
000001F03F007000
000003E03E01E000
000007E07C038000
000007C0780F0000
00000F80703C0000
00001F0071F00000
00003E003FC00000
00007C001F000000
0000FC0000000000
0000F80000000000
0001F00000000000
0003E00000000000
0007C00000000000
000FC00000000000
001F800000000000
001F000000000000
003E000000000000
007E000000000000
00FC000000000000
01F8000000000000
01F0000000000000
03E0000000000000
07E0000000000000
0FC0000000000000
0F80000000000000
1F00000000000000
3F00000000000000
7E00000000000000
7C00000000000000
F800000000000000
F000000000000000
ENDCHAR
STARTCHAR 00FF
ENCODING 255
SWIDTH 464 0
DWIDTH 39 0
BBX 51 56 -9 -23
BITMAP
00000001C00700
00000003E00F80
00000007E01F80
00000007E01F80
00000007C01F00
00000003800E00
00000000000000
00000000000000
00000000000000
00000000000000
00000000000000
00000000000000
000000F0001C00
000003F8003C00
000007F800F800
00001C7801F000
000030F803E000
000061F00FC000
0000C7E01F8000
00018FC03F0000
00031F807E0000
00063F00FC0060
00007E01F800C0
0000FC07F00180
0001F80FE00300
0003F01FC00E00
0003E03F801C00
0007C07F007000
000781FF01E000
000703FE078000
00070FFC1E0000
0003FEF8F80000
0001F0FFC00000
000003FC000000
00000FE0000000
00003FC0000000
0000F7C0000000
0003CF80000000
000F1F00000000
003C1E00000000
00703C00000000
01E07800000000
0380F000000000
0700F000000000
0E01E000000000
1C03C000000000
38078000000000
300F0000000000
601E0000000000
603C0000000000
C0380000000000
C0F00000000000
C1C00000000000
E3800000000000
7F000000000000
3C000000000000
ENDCHAR
STARTCHAR 0131
ENCODING 305
SWIDTH 250 0
DWIDTH 21 0
BBX 22 21 1 0
BITMAP
0007E0
001FE0
003FC0
00FF00
01FE00
03FC00
0FF800
1DF000
33E000
E7C00C
8F8018
1F0030
3E0060
3E00C0
7C0380
F80600
F81C00
F03800
F1E000
7F8000
3C0000
ENDCHAR
STARTCHAR 0141
ENCODING 321
SWIDTH 595 0
DWIDTH 50 0
BBX 93 59 -11 0
BITMAP
0000000000000000000007E0
000000000000000000003FF0
00000000000000000000F838
00000000000000000003C018
000000000000000000078018
0000000000000000001E0018
0000000000000000003C0038
000000000000000000780038
000000000000000000F00070
000000000000000001E00070
000000000000000007C000E0
00000000000000000F8001E0
00000000000000001F0003C0
00000000000000003E000780
00000000000000007C000F00
0000000000000000F8001E00
0000000000000001F0007C00
0000000000000001E001F000
0000000000000003E007E000
0000000000000007C01F8000
000000000000000F80080000
000000000000001F00000000
000000000000003F00000000
000000000000007E00000000
00000000000000FC00000000
00000000000000F800000000
00000000000001F807000000
00000000000003F07E000000
00000000000007E3FC000000
0000000000000FFFC0000000
0000000000000FFE00000000
0000000000001FE000000000
000000000000FF8000000000
00000000000FFF0000000000
00000000007FFE0000000000
0000000003F8FC0000000000
000000000FC1FC0000000000
000000001C03F80000000000
000000000007F00000000000
00000000000FE00000000000
00000000000FE00000000000
00000000001FC00000000000
00000000003F800000000000
00000000007F000000000000
0000000000FE000000000000
0000000001FC000000000000
0000000003F8000000000000
0000000007F0000300000000
000000000FC0000700000000
000000003F80000C00000000
000000007F00003800000000
0FF80000FC00007000000000
7FFFC003F80001C000000000
E007FC0FE000038000000000
C0003F9F00000E0000000000
C00001FC00007C0000000000
78000FFF8003F00000000000
3FFFFF03FFFF800000000000
07FFE0003FFC000000000000
ENDCHAR
STARTCHAR 0142
ENCODING 322
SWIDTH 297 0
DWIDTH 25 0
BBX 42 49 1 0
BITMAP
0000000003C0
0000000007C0
000000000F80
000000001F00
000000003E00
000000007E00
00000000FC00
00000001F800
00000003F000
00000003E000
00000007C000
0000000F8000
0000001F8080
0000003F0780
0000007E7F00
000000FFF800
000001FFC000
000003FE0000
00000FE00000
0000FFC00000
0007FFC00000
003F9F800000
00FC3F000000
00C07E000000
0000FC000000
0001F8000000
0003F0000000
0007E0000000
000FC0000000
001FC0000000
007F80000000
00FF00000000
01FE00000000
037C00000000
0EF800000000
18F000000000
31F000200000
63E000600000
C3C000C00000
038001800000
078007000000
07000E000000
0F0018000000
0E0070000000
0E01E0000000
0E0380000000
0E1E00000000
07F800000000
03E000000000
ENDCHAR
STARTCHAR 0152
ENCODING 338
SWIDTH 1214 0
DWIDTH 102 0
BBX 104 59 9 0
BITMAP
000000000000FF800000003FE0
00000000000FFFF0000003FFF8
00000000007FC0F800001FF01C
0000000003FE001C00007F8006
000000000FF0000E0001FE0003
000000003FC000060007F80003
00000000FF000003000FE00003
00000003FC000003003FC00003
00000007F8000003007F800003
0000001FE000000300FE000007
0000003FC000000301FC000007
000000FF0000000703F800000E
000001FE0000000607F000001E
000003FC003FC00E07E000003E
00000FF003FFF01E0FC000007C
00001FE00FF0383C1F800000F8
00003FC03FC01C781F000001F0
00007F80FE000CF01E000003E0
0000FF01F80007E03C00000FC0
0001FE07F00007C03C00001F80
0003F80FC0000F803800007E00
0007F01F80003E00380001F800
000FE03E0001F6003FF80FC000
001FC0FC0001C6003FFE0E0000
003F81F000000600CC07000000
007F03E00000040F0E03000000
007E07C000000C7C0703000000
00FE0F80000009F801FE000000
01FC1F0000001FF000FC000000
03F81E0000001FC00000000000
03F03C0000003F800000000000
07E0780000003F000000000000
07C0F00000007E000000000000
0FC1E0000000FC000000000000
1F83C0000001F8000000000000
1F0380000001F0000000000000
1E0700000003F0000000000000
3E0E00000007E00003FC000000
3C0E0000000FC0001FFE000000
7C1C0000001F80007C03000000
78380000003F8001E003000000
70380000006F00078003000000
7070000000DF000E0003000000
F0600000019E001C0007000000
E0600000071E0070000F000000
E04000000E1C00E0001E000000
C0000000181C01C0003E000000
C0000000301C0380007C000000
C0000000E01C070000FC000000
C0000001C01C060001F8000000
C0000007000C000007F0000000
6000001E000E00000FE0000000
60000078000E00001FC0000000
700001F0000700007F80000000
380007C000038001FE00000000
1C003F000001C007F800000000
0FC7FC000000FCFFE000000000
07FFF00000007FFF8000000000
00FF000000000FF80000000000
ENDCHAR
STARTCHAR 0153
ENCODING 339
SWIDTH 476 0
DWIDTH 40 0
BBX 44 21 -1 0
BITMAP
00007E00F800
0003FF07FC00
000FF18F8C00
001FC1BE0C00
007F01FC0C00
00FE01F81800
03FC03F03000
07F003E07000
0FE007C0C000
1FC00F838030
1F801F8F0060
3F003FFC00C0
7E007FE00380
7C00FF000700
FC03BC000E00
F8073C003800
F00C3C007000
F0383C01C000
F0E01E0F0000
7FC00FFC0000
3E0007E00000
ENDCHAR
STARTCHAR 0160
ENCODING 352
SWIDTH 642 0
DWIDTH 54 0
BBX 106 78 -6 0
BITMAP
00000000000000000000060001C0
00000000000000000000070007C0
0000000000000000000007000F00
0000000000000000000003803E00
000000000000000000000380F800
0000000000000000000003C3F000
0000000000000000000003CFC000
0000000000000000000001FF8000
0000000000000000000001FE0000
0000000000000000000001FC0000
0000000000000000000000F80000
0000000000000000000000E00000
0000000000000000000000C00000
0000000000000000000000000000
0000000000000000000000000000
0000000000000000000000000000
0000000000000000000000000000
0000000000000000000000000000
0000000000000000000000000000
0000000000000000000007E00000
000000000000000000003FF00000
00000000000000000000F8180000
00000000000000000003E0180000
0000000000000000000780180000
0000000000000000001F00180000
0000000000000000003C00380000
0000000000000000007800700000
000000000000000000F000700000
000000000000000003E000E00000
000000000000000007C001E00000
00000000000000000F8003C00000
00000000000000001F0007800000
00000000000000003E000F000000
00000000000000007C001E000000
0000000000000000F8003C000000
0000000000000001F00078000000
0000000000000003E000F0000000
0000000000000007E003C0000000
0000000000000007C00780000000
000000000000000F801E00000000
000000000000001F003C00000000
000000000000003F00F000000000
000000000000007E03C000000000
00000000000000FC0F0000000000
00000000000001F83C0000000000
00000000000001F8F00000000000
00000000000003F7C00000000000
00000000000007FF000000000000
0000000000000FF8000000000000
0000000000001FE0000000000000
000000000000FF80000000000000
00000000001FFF00000000000000
000000000FFF7F00000000000000
0000000FFFE0FE00000000000000
00000007E001FC00000000000000
000000000003FC00000000000000
000000000003F800000000000000
000000000007F000000000000000
00000000000FE000000000000000
00000000001FC000000000000000
00000000003F8000000000000000
00000000007F8000000000000000
0000000000FF0000000000000000
1E00000001FE0000000000000000
3F00000003FC0000000000000000
7F80000007F00000000000000000
FF8000000FE00000000000000000
FF8000001FC00000000000000000
FF8000003F800000000000000000
FE0000007F000000000000000000
C0000000FC000000000000000000
40000003F8000000000000000000
60000007E0000000000000000000
3000001F80000000000000000000
1C0000FE00000000000000000000
0F8007F800000000000000000000
03FFFFC000000000000000000000
007FF80000000000000000000000
ENDCHAR
STARTCHAR 0161
ENCODING 353
SWIDTH 285 0
DWIDTH 24 0
BBX 35 37 -1 0
BITMAP
00030000E0
00030003E0
0003800F80
0001803F00
0001C07C00
0001C1F800
0001E7E000
0000FFC000
0000FF0000
0000FE0000
00007C0000
0000700000
0000E00000
0000E00000
0001E00000
0001E00000
0001E00000
0003E00000
000FE00000
001BE00000
0063E00000
00C3E00000
0383E00000
0603E00000
0C03E00000
1803E01800
1007E07000
0007E0E000
0007C1C000
0007C30000
700F8E0000
F80F380000
F81EF00000
F03FC00000
C07F000000
7FF8000000
1FC0000000
ENDCHAR
STARTCHAR 0178
ENCODING 376
SWIDTH 809 0
DWIDTH 68 0
BBX 81 74 12 0
BITMAP
000000000000000E003800
000000000000001F007C00
000000000000003F00FC00
000000000000003F00FC00
000000000000003E00F800
000000000000001C007000
0000000000000000000000
0000000000000000000000
0000000000000000000000
0000000000000000000000
0000000000000000000000
0000000000000000000000
0000000000000000000000
0000000000000000000000
0000000000000000000000
0000007FF0000000000000
000007FFFF000000000000
00003F0007C00000000000
0000F00000E00000000000
0003C00000700000000380
000F000000380000000700
001C0000001C0000001C00
00700000000C0000003800
00E00000000C0000007000
01800001000E000000C000
03000001000E0000038000
06000003000E0000070000
0C000003001E00000E0000
18000006001E00001C0000
38000006003E00003C0000
3000000C003C0000780000
6000001C007C0000F00000
6000003800F80001E00000
E000007801F80003C00000
C00000F003F00007800000
C00001E007F0000F800000
C00003C00FE0000F000000
C00007C01FC0001E000000
C0000F803F80003C000000
E0003F007F00007C000000
60007C00FE0000F8000000
7001F801FC0001F0000000
3C0FE003F80003F0000000
0FFF8007F00007E0000000
03FC000FE0000FC0000000
0000001FC0001FC0000000
0000003F80007F80000000
0000007F0000FF00000000
0000007E0001FE00000000
000000FC0003FE00000000
000000F80007FC00000000
000001F0000FF800000000
000001F0003FF800000000
000001E00077F000000000
000001C000CFE000000000
000001C0039FC000000000
000000C00E3F8000000000
000000C0187F8000000000
00000060E07F0000000000
1E00003F00FE0000000000
3F00000001FC0000000000
7F80000003F80000000000
FF80000007F00000000000
FF8000001FE00000000000
FF8000003F800000000000
FF0000007F000000000000
C0000000FE000000000000
C0000003F8000000000000
6000000FE0000000000000
3000003F80000000000000
180000FE00000000000000
0F0007F800000000000000
03FFFFC000000000000000
007FF80000000000000000
ENDCHAR
STARTCHAR 017D
ENCODING 381
SWIDTH 607 0
DWIDTH 51 0
BBX 63 101 3 -23
BITMAP
0000000001000070
00000000018001F0
0000000001C007C0
0000000000C01F80
0000000000E07E00
0000000000E1FC00
0000000000E3F000
00000000007FE000
00000000007F8000
00000000007F0000
00000000003E0000
0000000000380000
0000000000300000
0000000000000000
0000000000000000
0000000000000000
0000000000000000
0000000000000000
0000000000000000
000000001FFE0000
00000001FFFFE000
0000000FC001F800
0000003C00001E00
000000F000000700
000003C000000180
00000700000000C0
00001C0000000060
0000380000000030
0000700000000038
0000C00000000018
000180000000001C
000300000180000C
000600000180000C
000E00000180000E
000C00000300000E
001800000300000E
001000000700000E
003000000700000E
002000000E00000E
006000000E00001E
006000001E00001E
004000001C00001E
00C000003C00003E
00C000007800003C
00C000007800007C
00C00000F000007C
00C00001E00000F8
00C00003E00000F8
00C00007C00001F0
0060000F800001F0
0060001F000003E0
0070007C000007E0
003801F800000FC0
001E07E000000F80
0007FF8000001F00
0001FC0000003E00
0000000000007C00
000000000000F800
000000000001F000
000000000003E000
000000000007C000
00000000000F0000
00000000001E0000
0000000000380000
000000F800701000
000003FE01C03000
000007018300E000
000006004C01C000
000007FFF0038000
000001FC380E0000
00000000383C0000
0000000038F00000
000000003F800000
00000001FE000000
0000001FF8000000
000001FE38000000
00000FE078000000
00007E0078000000
0003F80070000000
000FC000F0000000
003F0001F0000000
00FC0001E0000000
01F00003E0000000
03C00007C0000000
0F800007C0000000
1E00000F80000000
1C00001F00000000
3800003E00000000
7000007E00000000
700000FC00000000
600001F800000000
E00003F000000000
C0000FE000000000
C0001F8000000000
C0003F0000000000
C000FE0000000000
C001F80000000000
6007E00000000000
783F800000000000
3FFE000000000000
0FE0000000000000
ENDCHAR
STARTCHAR 017E
ENCODING 382
SWIDTH 333 0
DWIDTH 28 0
BBX 59 61 -19 -24
BITMAP
000000000C000060
000000000F0001E0
000000000F000780
0000000007801E00
0000000007C07C00
0000000007E1F000
0000000003E7C000
0000000003FF8000
0000000003FE0000
0000000001FC0000
0000000001F00000
0000000001E00000
0000000000800000
0000000000000000
0000000000000000
0000000000000000
000000001F000000
00000000FF800000
00000003FF800000
0000000F0F800000
0000001C0F800000
000000701F800000
000000E01F000000
000003803F000000
000007007E004000
00000600FC00C000
00000001F8018000
00000003F0030000
00000007E00E0000
0000000FC01C0000
0000003F80700000
00000FFE00E00000
000011FC03C00000
000020F00F000000
000021E03C000000
00003FE0F0000000
00001FE7C0000000
000001FF00000000
000003F800000000
00000FC000000000
00003FC000000000
0000E7C000000000
00038F8000000000
000F1F8000000000
001C3F0000000000
00703E0000000000
00E07E0000000000
0180FC0000000000
0701F80000000000
0E03F00000000000
1C07E00000000000
1807C00000000000
300F800000000000
601F000000000000
603E000000000000
C07C000000000000
C0F0000000000000
C1E0000000000000
C7C0000000000000
7F00000000000000
3800000000000000
ENDCHAR
STARTCHAR 0192
ENCODING 402
SWIDTH 476 0
DWIDTH 40 0
BBX 68 62 -12 -13
BITMAP
000000000000000F80
000000000000003FE0
00000000000000E3E0
0000000000000183F0
0000000000000703F0
0000000000000E03F0
0000000000001C03F0
0000000000003801E0
000000000000700000
000000000000F00000
000000000001E00000
000000000001C00000
000000000003C00000
000000000007800000
00000000000F000000
00000000001F000000
00000000003E000000
00000000003C000000
00000000007C000000
0000000000F8000000
0000000001F0000000
0000000003F0000000
0000000FFFFFF80000
0000000FFFFFF00000
000000000FC0000000
000000000F80000000
000000001F00000000
000000003F00000000
000000003E00000000
000000007C00000000
00000000FC00000000
00000000F800000000
00000001F000000000
00000003E000000000
00000003E000000000
00000007C000000000
0000000F8000000000
0000000F8000000000
0000001F0000000000
0000003E0000000000
0000003C0000000000
0000007C0000000000
000000F80000000000
000000F00000000000
000001E00000000000
000003C00000000000
000003C00000000000
000007800000000000
00000F000000000000
00001E000000000000
00001C000000000000
000038000000000000
000070000000000000
0000E0000000000000
3801C0000000000000
7C0180000000000000
FC0300000000000000
FC0600000000000000
FC1C00000000000000
FC3000000000000000
7FE000000000000000
1F0000000000000000
ENDCHAR
STARTCHAR 02C6
ENCODING 710
SWIDTH 500 0
DWIDTH 42 0
BBX 21 13 19 24
BITMAP
0000C0
0001C0
0007C0
000FE0
001FE0
007FE0
00FCF0
03F070
07C070
1F0030
3E0038
F80018
E00018
ENDCHAR
STARTCHAR 02C7
ENCODING 711
SWIDTH 500 0
DWIDTH 42 0
BBX 21 13 26 24
BITMAP
C00038
C000F8
E003E0
7007C0
701F00
787E00
79F800
3FF000
3FC000
3F8000
1F0000
1C0000
180000
ENDCHAR
STARTCHAR 02D8
ENCODING 728
SWIDTH 500 0
DWIDTH 42 0
BBX 22 11 22 27
BITMAP
C0000C
C0001C
E00038
F000F8
7003F0
7C0FE0
7FFFC0
3FFF00
1FFE00
0FFC00
03E000
ENDCHAR
STARTCHAR 02D9
ENCODING 729
SWIDTH 500 0
DWIDTH 42 0
BBX 6 7 29 27
BITMAP
38
7C
FC
FC
FC
F8
70
ENDCHAR
STARTCHAR 02DA
ENCODING 730
SWIDTH 500 0
DWIDTH 42 0
BBX 14 14 24 24
BITMAP
0FC0
1FF0
3878
6018
E01C
C00C
C00C
C00C
C00C
E01C
7038
3870
1FE0
0FC0
ENDCHAR
STARTCHAR 02DB
ENCODING 731
SWIDTH 500 0
DWIDTH 42 0
BBX 12 17 8 -15
BITMAP
0080
0180
0300
0600
0C00
1C00
3800
3800
7000
7000
F000
F010
F030
F860
FFC0
7F80
3E00
ENDCHAR
STARTCHAR 02DC
ENCODING 732
SWIDTH 500 0
DWIDTH 42 0
BBX 23 7 20 27
BITMAP
07C006
1FF00E
3FFE1C
7FFFFC
70FFF8
E01FF0
C007C0
ENDCHAR
STARTCHAR 02DD
ENCODING 733
SWIDTH 500 0
DWIDTH 42 0
BBX 21 14 23 24
BITMAP
003030
007878
007878
0078F8
00F8F8
00F0F0
01E1F0
01C1E0
0383C0
070780
0E0E00
381C00
703800
C06000
ENDCHAR
STARTCHAR 2013
ENCODING 8211
SWIDTH 500 0
DWIDTH 42 0
BBX 40 2 1 9
BITMAP
7FFFFFFFFF
FFFFFFFFFC
ENDCHAR
STARTCHAR 2014
ENCODING 8212
SWIDTH 1000 0
DWIDTH 84 0
BBX 76 2 5 9
BITMAP
3FFFFFFFFFFFFFFFFFF0
FFFFFFFFFFFFFFFFFFE0
ENDCHAR
STARTCHAR 2018
ENCODING 8216
SWIDTH 285 0
DWIDTH 24 0
BBX 11 11 31 37
BITMAP
00E0
07C0
0F80
1F00
3E00
7E00
FE00
FE00
FE00
FC00
7800
ENDCHAR
STARTCHAR 2019
ENCODING 8217
SWIDTH 285 0
DWIDTH 24 0
BBX 10 11 31 37
BITMAP
0780
0FC0
0FC0
1FC0
1FC0
1F80
1F80
3F00
7E00
F800
E000
ENDCHAR
STARTCHAR 201A
ENCODING 8218
SWIDTH 261 0
DWIDTH 22 0
BBX 11 11 0 -5
BITMAP
03C0
07E0
0FE0
0FE0
0FE0
0FC0
03C0
0780
0E00
3C00
F000
ENDCHAR
STARTCHAR 201C
ENCODING 8220
SWIDTH 404 0
DWIDTH 34 0
BBX 21 11 31 37
BITMAP
01C078
07C1F0
0F03C0
1C0700
380E00
7E1F80
FE1F80
FE3F80
FE3F80
FC3F00
781E00
ENDCHAR
STARTCHAR 201D
ENCODING 8221
SWIDTH 404 0
DWIDTH 34 0
BBX 20 11 31 37
BITMAP
0781E0
0FC3F0
0FC3F0
1FC7F0
1FC7F0
1F87E0
0F83E0
0701C0
1E0780
781F00
F03C00
ENDCHAR
STARTCHAR 201E
ENCODING 8222
SWIDTH 380 0
DWIDTH 32 0
BBX 21 11 0 -5
BITMAP
03C0F0
07E1F8
0FE3F8
0FE3F8
0FE3F8
0FC3F0
03C3F0
0787E0
1E0FC0
7C1F00
F01C00
ENDCHAR
STARTCHAR 2020
ENCODING 8224
SWIDTH 488 0
DWIDTH 41 0
BBX 41 69 13 -10
BITMAP
00000001C000
00000003E000
00000007E000
00000007C000
0000000FC000
0000000F8000
0000001F8000
0000001F0000
0000001E0000
0000003E0000
0000003C0000
000000380000
000000700000
000000700000
000000600000
000000C00000
007FFFFFFF80
000001800000
000003800000
000007800000
00001F800000
00001F800000
00001F000000
00003F000000
00003E000000
00003E000000
00007C000000
00007C000000
000078000000
0000F8000000
0000F0000000
0001F0000000
0001E0000000
0001E0000000
0003C0000000
0003C0000000
000380000000
000700000000
000700000000
000E00000000
000E00000000
000C00000000
001C00000000
001800000000
003800000000
003000000000
003000000000
007000000000
006000000000
00E000000000
00C000000000
01C000000000
018000000000
018000000000
030000000000
030000000000
060000000000
060000000000
0C0000000000
0C0000000000
080000000000
180000000000
100000000000
300000000000
200000000000
600000000000
400000000000
C00000000000
C00000000000
ENDCHAR
STARTCHAR 2021
ENCODING 8225
SWIDTH 488 0
DWIDTH 41 0
BBX 49 69 6 -10
BITMAP
0000000003C000
0000000003E000
0000000007E000
000000000FC000
000000000FC000
000000000F8000
000000001F8000
000000001F0000
000000001E0000
000000003E0000
000000003C0000
00000000380000
00000000700000
00000000700000
00000000600000
00000000C00000
00007FFFFFFF80
00000001800000
00000001800000
00000003800000
00000007000000
00000007000000
0000000F000000
0000001E000000
0000001E000000
0000003E000000
0000003C000000
0000007C000000
000000FC000000
000000F8000000
000001F8000000
000003F8000000
000007F8000000
000007F0000000
000007F0000000
000007F0000000
00000FE0000000
00000FC0000000
00000FC0000000
00001F80000000
00001F00000000
00001F00000000
00003E00000000
00003C00000000
00003C00000000
00003800000000
00007000000000
00007000000000
0000E000000000
0000C000000000
0000C000000000
FFFFFFFF000000
00018000000000
00030000000000
00030000000000
00070000000000
000F0000000000
001E0000000000
001E0000000000
003E0000000000
007C0000000000
007C0000000000
00FC0000000000
00F80000000000
01F80000000000
01F00000000000
03F00000000000
01E00000000000
00C00000000000
ENDCHAR
STARTCHAR 2022
ENCODING 8226
SWIDTH 595 0
DWIDTH 50 0
BBX 24 24 12 18
BITMAP
007F00
03FFC0
07FFE0
0FFFF8
1FFFF8
3FFFFC
7FFFFE
7FFFFE
7FFFFF
FFFFFF
FFFFFF
FFFFFF
FFFFFF
FFFFFF
FFFFFF
7FFFFE
7FFFFE
7FFFFE
3FFFFC
1FFFF8
0FFFF0
07FFE0
03FF80
007E00
ENDCHAR
STARTCHAR 2026
ENCODING 8230
SWIDTH 1000 0
DWIDTH 84 0
BBX 62 6 7 1
BITMAP
3C000003C0000078
7E000007E00000FC
FE00000FE00001FC
FE00000FE00001FC
FC00000FC00001F8
78000007800000F0
ENDCHAR
STARTCHAR 2030
ENCODING 8240
SWIDTH 857 0
DWIDTH 72 0
BBX 67 52 2 -8
BITMAP
000000000000080000
000000000000180000
000000000000700000
000003C00000E00000
00000FE00001C00000
00003E700007800000
0000783C001F000000
0000F03F80FA000000
0001E03FFFC4000000
0003E0300008000000
0003C0300010000000
000780300060000000
0007807000C0000000
000F00700180000000
000E00600300000000
001E00E00600000000
001E00E00C00000000
001C01C01800000000
001C03C03000000000
001C03806000000000
001C0700C000000000
001C0E018000000000
000E3C030000000000
000FF80600F8000F80
0003C00C03FC003FC0
00000018078E0078E0
000000300F0600F060
000000601E0601E060
000000C03C0603C060
00000380780607C060
00000700F806078060
00000E00F0060F0060
00001C01F00C1F00C0
00003801E00C1E00C0
00007001C00C1E00C0
0000E003C0183C0180
0001C003C0183C0180
000380038030380300
000700038070380700
000E00038060380600
001C000380C0380C00
003800038180381C00
00700001C7001C7000
00E00001FE000FE000
01C000007800078000
038000000000000000
070000000000000000
0E0000000000000000
3C0000000000000000
780000000000000000
F00000000000000000
E00000000000000000
ENDCHAR
STARTCHAR 2039
ENCODING 8249
SWIDTH 261 0
DWIDTH 22 0
BBX 13 20 7 0
BITMAP
0018
0038
0070
01C0
0380
0700
1E00
3C00
7800
F000
7000
7000
3000
3800
1800
1800
1C00
0C00
0C00
0400
ENDCHAR
STARTCHAR 203A
ENCODING 8250
SWIDTH 261 0
DWIDTH 22 0
BBX 14 20 1 0
BITMAP
0180
0180
00C0
00C0
00E0
0060
0070
0070
0078
0038
003C
0078
00F0
03E0
0780
0F00
1C00
3800
6000
C000
ENDCHAR
STARTCHAR 2044
ENCODING 8260
SWIDTH 142 0
DWIDTH 12 0
BBX 47 42 -12 0
BITMAP
000000000006
00000000000E
00000000001C
000000000038
000000000060
0000000000C0
000000000380
000000000700
000000000E00
000000001C00
000000003800
000000007000
00000000C000
000000018000
000000070000
0000000E0000
0000001C0000
000000380000
000000700000
000000E00000
000001800000
000003000000
00000E000000
00001C000000
000038000000
000070000000
0000E0000000
000180000000
000300000000
000600000000
001C00000000
003800000000
007000000000
00E000000000
01C000000000
030000000000
060000000000
1C0000000000
380000000000
700000000000
E00000000000
C00000000000
ENDCHAR
STARTCHAR 20AC
ENCODING 8364
SWIDTH 416 0
DWIDTH 35 0
BBX 43 43 5 0
BITMAP
000000000F00
000000007FC0
00000001E060
0000000781E0
0000001E07E0
0000007C0FE0
000000F00FE0
000003E00FE0
000007C00FC0
00001F000780
00003E000000
00007C000000
0000F8000000
0001F0000000
0007E0000000
000FC0000000
001F80000000
07FFFFFC0000
0FFFFFFC0000
00FC00000000
01F800000000
01F000000000
03E000000000
FFFFFF000000
FFFFFF000000
0F8000000000
1F0000000000
1F0000000000
3E0000000000
3C0000000000
7C0000000000
780000000000
780000800000
F00001800000
F00007000000
E0000C000000
E00018000000
E00070000000
E001C0000000
E00380000000
701E00000000
3FF800000000
1FC000000000
ENDCHAR
STARTCHAR 2122
ENCODING 8482
SWIDTH 821 0
DWIDTH 69 0
BBX 48 22 10 36
BITMAP
7FFFC3F8007F
70E1C0FC007C
60E0C07C00F8
40E0406C00B8
40E0406E00B8
40E0406E01B8
80E040660138
00E000670138
00E000670238
00E000630238
00E000638238
00E000638438
00E000618438
00E00061CC38
00E00061C838
00E00060C838
00E00060F038
00E00060F038
00E000607038
00E000606038
01F000F0207C
07FC03FC21FF
ENDCHAR
STARTCHAR 2212
ENCODING 8722
SWIDTH 833 0
DWIDTH 70 0
BBX 48 3 10 23
BITMAP
FFFFFFFFFFFF
FFFFFFFFFFFF
FFFFFFFFFFFF
ENDCHAR
STARTCHAR FB01
ENCODING 64257
SWIDTH 500 0
DWIDTH 42 0
BBX 71 78 -19 -23
BITMAP
00000000000000003C
0000000000000000FE
0000000000000003F6
000000000000000F82
000000000000001F02
000000000000003E04
000000000000007804
00000000000000F008
00000000000003E010
00000000000007C020
0000000000000F8040
0000000000001F0080
0000000000003E0100
0000000000003E0200
0000000000007C0C00
000000000000F81800
000000000001F03000
000000000003E0C000
000000000007C18000
00000000000F870000
00000000001F8C0000
00000000003F38003C
00000000003EF0007E
00000000007DC0007E
0000000000FF80007E
0000000001FE00003C
0000000003FC000000
0000000003F0000000
0000000007E0000000
000000000F80000000
000000001F00000000
000000001F00000000
000000003E00000000
000000007C00000000
00000000FC0001F000
00000001F80007F000
00000003F0001FE000
00000007E0003FC000
0000000FE0007F8000
0000003FC001FF0000
0000007F8003FC0000
000000EF0007F80000
000001DF000FF00000
000003BE003FE00000
0000073C007FC00000
00000E7C00FF800700
00000C7801DF000E00
000000F007BE003800
000001E00F7C007000
000001E03C7801C000
000003C1F8F8078000
00003FFFE0F01E0000
00001FFF80F0F80000
00003FFE00FFC00000
00007FF0003E000000
0000FC000000000000
0000FC000000000000
0001F8000000000000
0003F0000000000000
0007E0000000000000
0007C0000000000000
000FC0000000000000
001F80000000000000
003F00000000000000
003E00000000000000
007C00000000000000
00FC00000000000000
01F800000000000000
01F000000000000000
03E000000000000000
07C000000000000000
0FC000000000000000
0F8000000000000000
1F0000000000000000
3E0000000000000000
7E0000000000000000
7C0000000000000000
F80000000000000000
ENDCHAR
STARTCHAR FB02
ENCODING 64258
SWIDTH 559 0
DWIDTH 47 0
BBX 83 78 -18 -23
BITMAP
00000000000000003C0000
0000000000000001FE0000
0000000000000003EE0000
000000000000000F060000
000000000000001E060000
000000000000003C040000
00000000000000780C03E0
00000000000000F01807E0
00000000000001E03007C0
00000000000007C0300F80
0000000000000F80601F00
0000000000000F01C03E00
0000000000001E03807C00
0000000000003C0700F800
000000000000780E00F800
000000000000F01801F000
000000000001E07003E000
000000000003E0E007C000
000000000007C1C00F8000
00000000000F87000F0000
00000000000F0E001E0000
00000000001F3C003E0000
00000000003E70007C0000
00000000007DE000F80000
0000000000FBC000F00000
0000000000FF0001E00000
0000000001FE0003C00000
0000000003F80007800000
0000000007F0000F800000
000000000FE0000F000000
000000000F80001E000000
000000001F00003C000000
000000003E000078000000
000000007C0000F0000000
000000007C0000E0000000
00000000F80001E0000000
00000001F00003C0000000
00000003E0000780000000
0000000FC0000F00000000
0000001FC0001E00000000
0000003F80003C00000000
0000006F00007800000000
000001DE0001F800000000
000003BE0003F000000000
0000067C000FE000000000
00000C78003FC000300000
000018F000FBC000E00000
000011F003E38001C00000
000001E00FC78007000000
000003C03F07001C000000
00000781FC0F0078000000
00007FFFF00F01E0000000
00003FFFC00F8F80000000
00007FFE000FFC00000000
0000FFF00007E000000000
0000FC0000000000000000
0001F80000000000000000
0003F00000000000000000
0007E00000000000000000
0007C00000000000000000
000FC00000000000000000
001F800000000000000000
003F000000000000000000
003E000000000000000000
007E000000000000000000
00FC000000000000000000
01F8000000000000000000
01F0000000000000000000
03E0000000000000000000
07E0000000000000000000
0FC0000000000000000000
0F80000000000000000000
1F00000000000000000000
3E00000000000000000000
7E00000000000000000000
7C00000000000000000000
F800000000000000000000
F000000000000000000000
ENDCHAR
ENDFONT
